M48
;DRILL file {KiCad 4.0.4-stable} date 04/16/17 20:08:06
;FORMAT={-:-/ absolute / inch / decimal}
FMAT,2
INCH,TZ
T1C0.016
T2C0.031
T3C0.039
%
G90
G05
M72
T1
X4.7318Y-3.1506
X4.8Y-2.8058
X5.0188Y-1.8457
X5.0405Y-3.0115
X5.0785Y-3.93
X5.144Y-2.6918
X5.265Y-3.2058
X5.384Y-2.4894
X5.4284Y-3.0135
X5.4628Y-4.1679
X5.527Y-3.1708
X5.5615Y-3.511
X5.5887Y-3.1581
X5.6591Y-3.4683
X5.7719Y-2.6951
X5.9113Y-4.3014
X5.9294Y-3.3
X5.9991Y-3.7388
X6.0043Y-2.465
X6.0084Y-3.5464
X6.2613Y-3.6995
X6.2643Y-3.3425
X6.2717Y-3.2728
X6.4649Y-2.9625
X6.4923Y-3.2756
X6.5067Y-4.1686
X6.7424Y-2.5639
X6.8618Y-3.0052
X7.0056Y-3.1389
X7.1159Y-2.6693
T2
X4.8Y-2.08
X4.8Y-2.38
X4.8Y-3.3
X4.8Y-3.6
X4.9Y-2.08
X4.9Y-2.38
X4.9Y-3.3
X4.9Y-3.6
X5.Y-2.08
X5.Y-2.38
X5.Y-3.3
X5.Y-3.6
X5.1Y-2.08
X5.1Y-2.38
X5.1Y-3.3
X5.1Y-3.6
X5.2Y-2.08
X5.2Y-2.38
X5.2Y-3.3
X5.2Y-3.6
X5.3Y-2.08
X5.3Y-2.38
X5.3Y-3.3
X5.3Y-3.6
X5.4Y-2.08
X5.4Y-2.38
X5.4Y-3.3
X5.4Y-3.6
X5.5Y-2.08
X5.5Y-2.38
X5.5Y-3.3
X5.5Y-3.6
T3
X4.8Y-1.65
X4.8Y-1.75
X4.8Y-1.85
X4.8Y-1.95
X4.8Y-2.58
X4.8Y-3.1
X4.8Y-4.05
X4.8Y-4.15
X4.8Y-4.25
X4.8Y-4.35
X4.9Y-2.58
X4.9Y-3.1
X5.Y-2.58
X5.Y-2.8
X5.Y-2.9
X5.Y-3.1
X5.Y-4.4
X5.1Y-1.8
X5.1Y-2.8
X5.1Y-2.9
X5.1Y-4.4
X5.2Y-1.8
X5.2Y-2.8
X5.2Y-2.9
X5.2Y-4.4
X5.25Y-3.8
X5.25Y-3.9
X5.25Y-4.
X5.25Y-4.1
X5.25Y-4.2
X5.3Y-1.8
X5.3Y-2.8
X5.3Y-2.9
X5.3Y-4.4
X5.4Y-1.8
X5.4Y-2.8
X5.4Y-2.9
X5.5Y-2.8
X5.5Y-2.9
X5.6Y-2.8
X5.6Y-2.9
X5.6Y-4.4
X5.7Y-2.8
X5.7Y-2.9
X5.7Y-4.4
X5.8Y-1.82
X5.8Y-2.8
X5.8Y-2.9
X5.8Y-3.2
X5.8Y-3.3
X5.8Y-3.4
X5.8Y-3.5
X5.8Y-3.6
X5.8Y-4.4
X5.9Y-1.82
X5.9Y-2.8
X5.9Y-2.9
X5.9Y-4.4
X5.95Y-2.02
X5.95Y-2.12
X5.95Y-2.22
X5.95Y-2.32
X5.95Y-2.42
X6.Y-1.82
X6.Y-2.8
X6.Y-2.9
X6.1Y-1.82
X6.1Y-2.8
X6.1Y-2.9
X6.2Y-2.8
X6.2Y-2.9
X6.25Y-4.5
X6.3Y-2.8
X6.3Y-2.9
X6.35Y-4.5
X6.4Y-1.72
X6.4Y-2.8
X6.4Y-2.9
X6.45Y-4.5
X6.5Y-1.72
X6.5Y-2.8
X6.5Y-2.9
X6.55Y-4.5
X6.6Y-1.72
X6.6Y-2.8
X6.6Y-2.9
X6.6Y-3.3
X6.6Y-3.4
X6.6Y-3.5
X6.6Y-3.6
X6.6Y-3.7
X6.6Y-3.8
X6.6Y-3.9
X6.6Y-4.
X6.6Y-4.1
X6.65Y-2.02
X6.65Y-2.12
X6.65Y-2.22
X6.65Y-2.32
X6.65Y-2.42
X6.65Y-4.5
X6.7Y-1.72
X6.7Y-2.8
X6.7Y-2.9
X6.7Y-3.3
X6.7Y-3.4
X6.7Y-3.5
X6.7Y-3.6
X6.7Y-3.7
X6.7Y-3.8
X6.7Y-3.9
X6.7Y-4.
X6.7Y-4.1
X6.8Y-1.72
X6.8Y-2.8
X6.8Y-2.9
X6.9Y-2.8
X6.9Y-2.9
T0
M30
