G04 #@! TF.FileFunction,Soldermask,Bot*
%FSLAX46Y46*%
G04 Gerber Fmt 4.6, Leading zero omitted, Abs format (unit mm)*
G04 Created by KiCad (PCBNEW 4.0.4-stable) date 04/16/17 22:08:56*
%MOMM*%
%LPD*%
G01*
G04 APERTURE LIST*
%ADD10C,0.100000*%
%ADD11R,1.700000X1.700000*%
%ADD12O,1.700000X1.700000*%
%ADD13R,2.000000X1.700000*%
%ADD14R,1.600000X2.400000*%
%ADD15O,1.600000X2.400000*%
%ADD16R,0.508000X1.143000*%
G04 APERTURE END LIST*
D10*
D11*
X121920000Y-65532000D03*
D12*
X124460000Y-65532000D03*
X127000000Y-65532000D03*
D11*
X121920000Y-78740000D03*
D12*
X124460000Y-78740000D03*
X127000000Y-78740000D03*
D11*
X127000000Y-73660000D03*
D12*
X127000000Y-71120000D03*
X129540000Y-73660000D03*
X129540000Y-71120000D03*
X132080000Y-73660000D03*
X132080000Y-71120000D03*
X134620000Y-73660000D03*
X134620000Y-71120000D03*
X137160000Y-73660000D03*
X137160000Y-71120000D03*
X139700000Y-73660000D03*
X139700000Y-71120000D03*
X142240000Y-73660000D03*
X142240000Y-71120000D03*
X144780000Y-73660000D03*
X144780000Y-71120000D03*
X147320000Y-73660000D03*
X147320000Y-71120000D03*
X149860000Y-73660000D03*
X149860000Y-71120000D03*
X152400000Y-73660000D03*
X152400000Y-71120000D03*
X154940000Y-73660000D03*
X154940000Y-71120000D03*
X157480000Y-73660000D03*
X157480000Y-71120000D03*
X160020000Y-73660000D03*
X160020000Y-71120000D03*
X162560000Y-73660000D03*
X162560000Y-71120000D03*
X165100000Y-73660000D03*
X165100000Y-71120000D03*
X167640000Y-73660000D03*
X167640000Y-71120000D03*
X170180000Y-73660000D03*
X170180000Y-71120000D03*
X172720000Y-73660000D03*
X172720000Y-71120000D03*
X175260000Y-73660000D03*
X175260000Y-71120000D03*
D11*
X147320000Y-46228000D03*
D12*
X149860000Y-46228000D03*
X152400000Y-46228000D03*
X154940000Y-46228000D03*
D11*
X134620000Y-111760000D03*
D12*
X132080000Y-111760000D03*
X129540000Y-111760000D03*
X127000000Y-111760000D03*
D11*
X129540000Y-45720000D03*
D12*
X132080000Y-45720000D03*
X134620000Y-45720000D03*
X137160000Y-45720000D03*
D11*
X121920000Y-49530000D03*
D12*
X121920000Y-46990000D03*
X121920000Y-44450000D03*
X121920000Y-41910000D03*
D11*
X149860000Y-111760000D03*
D12*
X147320000Y-111760000D03*
X144780000Y-111760000D03*
X142240000Y-111760000D03*
D11*
X121920000Y-110490000D03*
D12*
X121920000Y-107950000D03*
X121920000Y-105410000D03*
X121920000Y-102870000D03*
D13*
X149320000Y-104140000D03*
X145320000Y-104140000D03*
X149320000Y-99060000D03*
X145320000Y-99060000D03*
X159290000Y-61468000D03*
X163290000Y-61468000D03*
X163290000Y-51308000D03*
X159290000Y-51308000D03*
D14*
X139700000Y-52832000D03*
D15*
X121920000Y-60452000D03*
X137160000Y-52832000D03*
X124460000Y-60452000D03*
X134620000Y-52832000D03*
X127000000Y-60452000D03*
X132080000Y-52832000D03*
X129540000Y-60452000D03*
X129540000Y-52832000D03*
X132080000Y-60452000D03*
X127000000Y-52832000D03*
X134620000Y-60452000D03*
X124460000Y-52832000D03*
X137160000Y-60452000D03*
X121920000Y-52832000D03*
X139700000Y-60452000D03*
D11*
X151130000Y-51308000D03*
D12*
X151130000Y-53848000D03*
X151130000Y-56388000D03*
X151130000Y-58928000D03*
X151130000Y-61468000D03*
D11*
X168910000Y-51308000D03*
D12*
X168910000Y-53848000D03*
X168910000Y-56388000D03*
X168910000Y-58928000D03*
X168910000Y-61468000D03*
D11*
X147320000Y-81280000D03*
D12*
X147320000Y-83820000D03*
X147320000Y-86360000D03*
X147320000Y-88900000D03*
X147320000Y-91440000D03*
D11*
X158750000Y-114300000D03*
D12*
X161290000Y-114300000D03*
X163830000Y-114300000D03*
X166370000Y-114300000D03*
X168910000Y-114300000D03*
D11*
X133350000Y-96520000D03*
D12*
X133350000Y-99060000D03*
X133350000Y-101600000D03*
X133350000Y-104140000D03*
X133350000Y-106680000D03*
D11*
X162560000Y-43688000D03*
D12*
X165100000Y-43688000D03*
X167640000Y-43688000D03*
X170180000Y-43688000D03*
X172720000Y-43688000D03*
D16*
X120015000Y-75565000D03*
X121285000Y-75565000D03*
X122555000Y-75565000D03*
X123825000Y-75565000D03*
X123825000Y-69215000D03*
X122555000Y-69215000D03*
X121285000Y-69215000D03*
X120015000Y-69215000D03*
D14*
X121920000Y-91440000D03*
D15*
X139700000Y-83820000D03*
X124460000Y-91440000D03*
X137160000Y-83820000D03*
X127000000Y-91440000D03*
X134620000Y-83820000D03*
X129540000Y-91440000D03*
X132080000Y-83820000D03*
X132080000Y-91440000D03*
X129540000Y-83820000D03*
X134620000Y-91440000D03*
X127000000Y-83820000D03*
X137160000Y-91440000D03*
X124460000Y-83820000D03*
X139700000Y-91440000D03*
X121920000Y-83820000D03*
D11*
X167640000Y-83820000D03*
D12*
X170180000Y-83820000D03*
X167640000Y-86360000D03*
X170180000Y-86360000D03*
X167640000Y-88900000D03*
X170180000Y-88900000D03*
X167640000Y-91440000D03*
X170180000Y-91440000D03*
X167640000Y-93980000D03*
X170180000Y-93980000D03*
X167640000Y-96520000D03*
X170180000Y-96520000D03*
X167640000Y-99060000D03*
X170180000Y-99060000D03*
X167640000Y-101600000D03*
X170180000Y-101600000D03*
X167640000Y-104140000D03*
X170180000Y-104140000D03*
M02*
