G04 #@! TF.FileFunction,Legend,Top*
%FSLAX46Y46*%
G04 Gerber Fmt 4.6, Leading zero omitted, Abs format (unit mm)*
G04 Created by KiCad (PCBNEW 4.0.4-stable) date 04/16/17 22:08:56*
%MOMM*%
%LPD*%
G01*
G04 APERTURE LIST*
%ADD10C,0.100000*%
%ADD11C,0.125000*%
%ADD12C,0.200000*%
%ADD13C,0.120000*%
%ADD14C,0.010000*%
%ADD15C,0.150000*%
G04 APERTURE END LIST*
D10*
D11*
X182852190Y-45652285D02*
X182614095Y-45818952D01*
X182852190Y-45937999D02*
X182352190Y-45937999D01*
X182352190Y-45747523D01*
X182376000Y-45699904D01*
X182399810Y-45676095D01*
X182447429Y-45652285D01*
X182518857Y-45652285D01*
X182566476Y-45676095D01*
X182590286Y-45699904D01*
X182614095Y-45747523D01*
X182614095Y-45937999D01*
X182828381Y-45247523D02*
X182852190Y-45295142D01*
X182852190Y-45390380D01*
X182828381Y-45437999D01*
X182780762Y-45461809D01*
X182590286Y-45461809D01*
X182542667Y-45437999D01*
X182518857Y-45390380D01*
X182518857Y-45295142D01*
X182542667Y-45247523D01*
X182590286Y-45223714D01*
X182637905Y-45223714D01*
X182685524Y-45461809D01*
X182518857Y-45057047D02*
X182852190Y-44938000D01*
X182518857Y-44818952D01*
X182804571Y-43961810D02*
X182828381Y-43985620D01*
X182852190Y-44057048D01*
X182852190Y-44104667D01*
X182828381Y-44176096D01*
X182780762Y-44223715D01*
X182733143Y-44247524D01*
X182637905Y-44271334D01*
X182566476Y-44271334D01*
X182471238Y-44247524D01*
X182423619Y-44223715D01*
X182376000Y-44176096D01*
X182352190Y-44104667D01*
X182352190Y-44057048D01*
X182376000Y-43985620D01*
X182399810Y-43961810D01*
X182590286Y-43199906D02*
X182614095Y-43128477D01*
X182637905Y-43104668D01*
X182685524Y-43080858D01*
X182756952Y-43080858D01*
X182804571Y-43104668D01*
X182828381Y-43128477D01*
X182852190Y-43176096D01*
X182852190Y-43366572D01*
X182352190Y-43366572D01*
X182352190Y-43199906D01*
X182376000Y-43152287D01*
X182399810Y-43128477D01*
X182447429Y-43104668D01*
X182495048Y-43104668D01*
X182542667Y-43128477D01*
X182566476Y-43152287D01*
X182590286Y-43199906D01*
X182590286Y-43366572D01*
X182852190Y-42795144D02*
X182828381Y-42842763D01*
X182804571Y-42866572D01*
X182756952Y-42890382D01*
X182614095Y-42890382D01*
X182566476Y-42866572D01*
X182542667Y-42842763D01*
X182518857Y-42795144D01*
X182518857Y-42723715D01*
X182542667Y-42676096D01*
X182566476Y-42652287D01*
X182614095Y-42628477D01*
X182756952Y-42628477D01*
X182804571Y-42652287D01*
X182828381Y-42676096D01*
X182852190Y-42723715D01*
X182852190Y-42795144D01*
X182852190Y-42199906D02*
X182590286Y-42199906D01*
X182542667Y-42223715D01*
X182518857Y-42271334D01*
X182518857Y-42366572D01*
X182542667Y-42414191D01*
X182828381Y-42199906D02*
X182852190Y-42247525D01*
X182852190Y-42366572D01*
X182828381Y-42414191D01*
X182780762Y-42438001D01*
X182733143Y-42438001D01*
X182685524Y-42414191D01*
X182661714Y-42366572D01*
X182661714Y-42247525D01*
X182637905Y-42199906D01*
X182852190Y-41961810D02*
X182518857Y-41961810D01*
X182614095Y-41961810D02*
X182566476Y-41938001D01*
X182542667Y-41914191D01*
X182518857Y-41866572D01*
X182518857Y-41818953D01*
X182852190Y-41438001D02*
X182352190Y-41438001D01*
X182828381Y-41438001D02*
X182852190Y-41485620D01*
X182852190Y-41580858D01*
X182828381Y-41628477D01*
X182804571Y-41652286D01*
X182756952Y-41676096D01*
X182614095Y-41676096D01*
X182566476Y-41652286D01*
X182542667Y-41628477D01*
X182518857Y-41580858D01*
X182518857Y-41485620D01*
X182542667Y-41438001D01*
D12*
X140208000Y-51054000D02*
G75*
G03X140208000Y-51054000I-254000J0D01*
G01*
X122174000Y-93218000D02*
G75*
G03X122174000Y-93218000I-254000J0D01*
G01*
D13*
X123190000Y-66862000D02*
X128330000Y-66862000D01*
X128330000Y-66862000D02*
X128330000Y-64202000D01*
X128330000Y-64202000D02*
X123190000Y-64202000D01*
X123190000Y-64202000D02*
X123190000Y-66862000D01*
X121920000Y-66862000D02*
X120590000Y-66862000D01*
X120590000Y-66862000D02*
X120590000Y-65532000D01*
X123190000Y-80070000D02*
X128330000Y-80070000D01*
X128330000Y-80070000D02*
X128330000Y-77410000D01*
X128330000Y-77410000D02*
X123190000Y-77410000D01*
X123190000Y-77410000D02*
X123190000Y-80070000D01*
X121920000Y-80070000D02*
X120590000Y-80070000D01*
X120590000Y-80070000D02*
X120590000Y-78740000D01*
X145990000Y-44888000D02*
X148590000Y-44888000D01*
X148590000Y-44888000D02*
X148590000Y-42268000D01*
X148590000Y-42268000D02*
X145990000Y-42268000D01*
X145990000Y-42268000D02*
X145990000Y-44888000D01*
X146940000Y-42268000D02*
X147700000Y-42268000D01*
X147700000Y-42268000D02*
X147700000Y-36268000D01*
X147700000Y-36268000D02*
X146940000Y-36268000D01*
X146940000Y-36268000D02*
X146940000Y-42268000D01*
X146940000Y-45318000D02*
X146940000Y-44888000D01*
X147700000Y-45318000D02*
X147700000Y-44888000D01*
X147060000Y-42268000D02*
X147060000Y-36268000D01*
X147180000Y-42268000D02*
X147180000Y-36268000D01*
X147300000Y-42268000D02*
X147300000Y-36268000D01*
X147420000Y-42268000D02*
X147420000Y-36268000D01*
X147540000Y-42268000D02*
X147540000Y-36268000D01*
X147660000Y-42268000D02*
X147660000Y-36268000D01*
X148590000Y-44888000D02*
X151130000Y-44888000D01*
X151130000Y-44888000D02*
X151130000Y-42268000D01*
X151130000Y-42268000D02*
X148590000Y-42268000D01*
X148590000Y-42268000D02*
X148590000Y-44888000D01*
X149480000Y-42268000D02*
X150240000Y-42268000D01*
X150240000Y-42268000D02*
X150240000Y-36268000D01*
X150240000Y-36268000D02*
X149480000Y-36268000D01*
X149480000Y-36268000D02*
X149480000Y-42268000D01*
X149480000Y-45318000D02*
X149480000Y-44888000D01*
X150240000Y-45318000D02*
X150240000Y-44888000D01*
X151130000Y-44888000D02*
X153670000Y-44888000D01*
X153670000Y-44888000D02*
X153670000Y-42268000D01*
X153670000Y-42268000D02*
X151130000Y-42268000D01*
X151130000Y-42268000D02*
X151130000Y-44888000D01*
X152020000Y-42268000D02*
X152780000Y-42268000D01*
X152780000Y-42268000D02*
X152780000Y-36268000D01*
X152780000Y-36268000D02*
X152020000Y-36268000D01*
X152020000Y-36268000D02*
X152020000Y-42268000D01*
X152020000Y-45318000D02*
X152020000Y-44888000D01*
X152780000Y-45318000D02*
X152780000Y-44888000D01*
X153670000Y-44888000D02*
X156270000Y-44888000D01*
X156270000Y-44888000D02*
X156270000Y-42268000D01*
X156270000Y-42268000D02*
X153670000Y-42268000D01*
X153670000Y-42268000D02*
X153670000Y-44888000D01*
X154560000Y-42268000D02*
X155320000Y-42268000D01*
X155320000Y-42268000D02*
X155320000Y-36268000D01*
X155320000Y-36268000D02*
X154560000Y-36268000D01*
X154560000Y-36268000D02*
X154560000Y-42268000D01*
X154560000Y-45318000D02*
X154560000Y-44888000D01*
X155320000Y-45318000D02*
X155320000Y-44888000D01*
X147320000Y-47498000D02*
X146050000Y-47498000D01*
X146050000Y-47498000D02*
X146050000Y-46228000D01*
X135950000Y-113100000D02*
X133350000Y-113100000D01*
X133350000Y-113100000D02*
X133350000Y-115720000D01*
X133350000Y-115720000D02*
X135950000Y-115720000D01*
X135950000Y-115720000D02*
X135950000Y-113100000D01*
X135000000Y-115720000D02*
X134240000Y-115720000D01*
X134240000Y-115720000D02*
X134240000Y-121720000D01*
X134240000Y-121720000D02*
X135000000Y-121720000D01*
X135000000Y-121720000D02*
X135000000Y-115720000D01*
X135000000Y-112670000D02*
X135000000Y-113100000D01*
X134240000Y-112670000D02*
X134240000Y-113100000D01*
X134880000Y-115720000D02*
X134880000Y-121720000D01*
X134760000Y-115720000D02*
X134760000Y-121720000D01*
X134640000Y-115720000D02*
X134640000Y-121720000D01*
X134520000Y-115720000D02*
X134520000Y-121720000D01*
X134400000Y-115720000D02*
X134400000Y-121720000D01*
X134280000Y-115720000D02*
X134280000Y-121720000D01*
X133350000Y-113100000D02*
X130810000Y-113100000D01*
X130810000Y-113100000D02*
X130810000Y-115720000D01*
X130810000Y-115720000D02*
X133350000Y-115720000D01*
X133350000Y-115720000D02*
X133350000Y-113100000D01*
X132460000Y-115720000D02*
X131700000Y-115720000D01*
X131700000Y-115720000D02*
X131700000Y-121720000D01*
X131700000Y-121720000D02*
X132460000Y-121720000D01*
X132460000Y-121720000D02*
X132460000Y-115720000D01*
X132460000Y-112670000D02*
X132460000Y-113100000D01*
X131700000Y-112670000D02*
X131700000Y-113100000D01*
X130810000Y-113100000D02*
X128270000Y-113100000D01*
X128270000Y-113100000D02*
X128270000Y-115720000D01*
X128270000Y-115720000D02*
X130810000Y-115720000D01*
X130810000Y-115720000D02*
X130810000Y-113100000D01*
X129920000Y-115720000D02*
X129160000Y-115720000D01*
X129160000Y-115720000D02*
X129160000Y-121720000D01*
X129160000Y-121720000D02*
X129920000Y-121720000D01*
X129920000Y-121720000D02*
X129920000Y-115720000D01*
X129920000Y-112670000D02*
X129920000Y-113100000D01*
X129160000Y-112670000D02*
X129160000Y-113100000D01*
X128270000Y-113100000D02*
X125670000Y-113100000D01*
X125670000Y-113100000D02*
X125670000Y-115720000D01*
X125670000Y-115720000D02*
X128270000Y-115720000D01*
X128270000Y-115720000D02*
X128270000Y-113100000D01*
X127380000Y-115720000D02*
X126620000Y-115720000D01*
X126620000Y-115720000D02*
X126620000Y-121720000D01*
X126620000Y-121720000D02*
X127380000Y-121720000D01*
X127380000Y-121720000D02*
X127380000Y-115720000D01*
X127380000Y-112670000D02*
X127380000Y-113100000D01*
X126620000Y-112670000D02*
X126620000Y-113100000D01*
X134620000Y-110490000D02*
X135890000Y-110490000D01*
X135890000Y-110490000D02*
X135890000Y-111760000D01*
X128210000Y-44380000D02*
X130810000Y-44380000D01*
X130810000Y-44380000D02*
X130810000Y-41760000D01*
X130810000Y-41760000D02*
X128210000Y-41760000D01*
X128210000Y-41760000D02*
X128210000Y-44380000D01*
X129160000Y-41760000D02*
X129920000Y-41760000D01*
X129920000Y-41760000D02*
X129920000Y-35760000D01*
X129920000Y-35760000D02*
X129160000Y-35760000D01*
X129160000Y-35760000D02*
X129160000Y-41760000D01*
X129160000Y-44810000D02*
X129160000Y-44380000D01*
X129920000Y-44810000D02*
X129920000Y-44380000D01*
X129280000Y-41760000D02*
X129280000Y-35760000D01*
X129400000Y-41760000D02*
X129400000Y-35760000D01*
X129520000Y-41760000D02*
X129520000Y-35760000D01*
X129640000Y-41760000D02*
X129640000Y-35760000D01*
X129760000Y-41760000D02*
X129760000Y-35760000D01*
X129880000Y-41760000D02*
X129880000Y-35760000D01*
X130810000Y-44380000D02*
X133350000Y-44380000D01*
X133350000Y-44380000D02*
X133350000Y-41760000D01*
X133350000Y-41760000D02*
X130810000Y-41760000D01*
X130810000Y-41760000D02*
X130810000Y-44380000D01*
X131700000Y-41760000D02*
X132460000Y-41760000D01*
X132460000Y-41760000D02*
X132460000Y-35760000D01*
X132460000Y-35760000D02*
X131700000Y-35760000D01*
X131700000Y-35760000D02*
X131700000Y-41760000D01*
X131700000Y-44810000D02*
X131700000Y-44380000D01*
X132460000Y-44810000D02*
X132460000Y-44380000D01*
X133350000Y-44380000D02*
X135890000Y-44380000D01*
X135890000Y-44380000D02*
X135890000Y-41760000D01*
X135890000Y-41760000D02*
X133350000Y-41760000D01*
X133350000Y-41760000D02*
X133350000Y-44380000D01*
X134240000Y-41760000D02*
X135000000Y-41760000D01*
X135000000Y-41760000D02*
X135000000Y-35760000D01*
X135000000Y-35760000D02*
X134240000Y-35760000D01*
X134240000Y-35760000D02*
X134240000Y-41760000D01*
X134240000Y-44810000D02*
X134240000Y-44380000D01*
X135000000Y-44810000D02*
X135000000Y-44380000D01*
X135890000Y-44380000D02*
X138490000Y-44380000D01*
X138490000Y-44380000D02*
X138490000Y-41760000D01*
X138490000Y-41760000D02*
X135890000Y-41760000D01*
X135890000Y-41760000D02*
X135890000Y-44380000D01*
X136780000Y-41760000D02*
X137540000Y-41760000D01*
X137540000Y-41760000D02*
X137540000Y-35760000D01*
X137540000Y-35760000D02*
X136780000Y-35760000D01*
X136780000Y-35760000D02*
X136780000Y-41760000D01*
X136780000Y-44810000D02*
X136780000Y-44380000D01*
X137540000Y-44810000D02*
X137540000Y-44380000D01*
X129540000Y-46990000D02*
X128270000Y-46990000D01*
X128270000Y-46990000D02*
X128270000Y-45720000D01*
X120580000Y-50860000D02*
X120580000Y-48260000D01*
X120580000Y-48260000D02*
X117960000Y-48260000D01*
X117960000Y-48260000D02*
X117960000Y-50860000D01*
X117960000Y-50860000D02*
X120580000Y-50860000D01*
X117960000Y-49910000D02*
X117960000Y-49150000D01*
X117960000Y-49150000D02*
X111960000Y-49150000D01*
X111960000Y-49150000D02*
X111960000Y-49910000D01*
X111960000Y-49910000D02*
X117960000Y-49910000D01*
X121010000Y-49910000D02*
X120580000Y-49910000D01*
X121010000Y-49150000D02*
X120580000Y-49150000D01*
X117960000Y-49790000D02*
X111960000Y-49790000D01*
X117960000Y-49670000D02*
X111960000Y-49670000D01*
X117960000Y-49550000D02*
X111960000Y-49550000D01*
X117960000Y-49430000D02*
X111960000Y-49430000D01*
X117960000Y-49310000D02*
X111960000Y-49310000D01*
X117960000Y-49190000D02*
X111960000Y-49190000D01*
X120580000Y-48260000D02*
X120580000Y-45720000D01*
X120580000Y-45720000D02*
X117960000Y-45720000D01*
X117960000Y-45720000D02*
X117960000Y-48260000D01*
X117960000Y-48260000D02*
X120580000Y-48260000D01*
X117960000Y-47370000D02*
X117960000Y-46610000D01*
X117960000Y-46610000D02*
X111960000Y-46610000D01*
X111960000Y-46610000D02*
X111960000Y-47370000D01*
X111960000Y-47370000D02*
X117960000Y-47370000D01*
X121010000Y-47370000D02*
X120580000Y-47370000D01*
X121010000Y-46610000D02*
X120580000Y-46610000D01*
X120580000Y-45720000D02*
X120580000Y-43180000D01*
X120580000Y-43180000D02*
X117960000Y-43180000D01*
X117960000Y-43180000D02*
X117960000Y-45720000D01*
X117960000Y-45720000D02*
X120580000Y-45720000D01*
X117960000Y-44830000D02*
X117960000Y-44070000D01*
X117960000Y-44070000D02*
X111960000Y-44070000D01*
X111960000Y-44070000D02*
X111960000Y-44830000D01*
X111960000Y-44830000D02*
X117960000Y-44830000D01*
X121010000Y-44830000D02*
X120580000Y-44830000D01*
X121010000Y-44070000D02*
X120580000Y-44070000D01*
X120580000Y-43180000D02*
X120580000Y-40580000D01*
X120580000Y-40580000D02*
X117960000Y-40580000D01*
X117960000Y-40580000D02*
X117960000Y-43180000D01*
X117960000Y-43180000D02*
X120580000Y-43180000D01*
X117960000Y-42290000D02*
X117960000Y-41530000D01*
X117960000Y-41530000D02*
X111960000Y-41530000D01*
X111960000Y-41530000D02*
X111960000Y-42290000D01*
X111960000Y-42290000D02*
X117960000Y-42290000D01*
X121010000Y-42290000D02*
X120580000Y-42290000D01*
X121010000Y-41530000D02*
X120580000Y-41530000D01*
X123190000Y-49530000D02*
X123190000Y-50800000D01*
X123190000Y-50800000D02*
X121920000Y-50800000D01*
X151190000Y-113100000D02*
X148590000Y-113100000D01*
X148590000Y-113100000D02*
X148590000Y-115720000D01*
X148590000Y-115720000D02*
X151190000Y-115720000D01*
X151190000Y-115720000D02*
X151190000Y-113100000D01*
X150240000Y-115720000D02*
X149480000Y-115720000D01*
X149480000Y-115720000D02*
X149480000Y-121720000D01*
X149480000Y-121720000D02*
X150240000Y-121720000D01*
X150240000Y-121720000D02*
X150240000Y-115720000D01*
X150240000Y-112670000D02*
X150240000Y-113100000D01*
X149480000Y-112670000D02*
X149480000Y-113100000D01*
X150120000Y-115720000D02*
X150120000Y-121720000D01*
X150000000Y-115720000D02*
X150000000Y-121720000D01*
X149880000Y-115720000D02*
X149880000Y-121720000D01*
X149760000Y-115720000D02*
X149760000Y-121720000D01*
X149640000Y-115720000D02*
X149640000Y-121720000D01*
X149520000Y-115720000D02*
X149520000Y-121720000D01*
X148590000Y-113100000D02*
X146050000Y-113100000D01*
X146050000Y-113100000D02*
X146050000Y-115720000D01*
X146050000Y-115720000D02*
X148590000Y-115720000D01*
X148590000Y-115720000D02*
X148590000Y-113100000D01*
X147700000Y-115720000D02*
X146940000Y-115720000D01*
X146940000Y-115720000D02*
X146940000Y-121720000D01*
X146940000Y-121720000D02*
X147700000Y-121720000D01*
X147700000Y-121720000D02*
X147700000Y-115720000D01*
X147700000Y-112670000D02*
X147700000Y-113100000D01*
X146940000Y-112670000D02*
X146940000Y-113100000D01*
X146050000Y-113100000D02*
X143510000Y-113100000D01*
X143510000Y-113100000D02*
X143510000Y-115720000D01*
X143510000Y-115720000D02*
X146050000Y-115720000D01*
X146050000Y-115720000D02*
X146050000Y-113100000D01*
X145160000Y-115720000D02*
X144400000Y-115720000D01*
X144400000Y-115720000D02*
X144400000Y-121720000D01*
X144400000Y-121720000D02*
X145160000Y-121720000D01*
X145160000Y-121720000D02*
X145160000Y-115720000D01*
X145160000Y-112670000D02*
X145160000Y-113100000D01*
X144400000Y-112670000D02*
X144400000Y-113100000D01*
X143510000Y-113100000D02*
X140910000Y-113100000D01*
X140910000Y-113100000D02*
X140910000Y-115720000D01*
X140910000Y-115720000D02*
X143510000Y-115720000D01*
X143510000Y-115720000D02*
X143510000Y-113100000D01*
X142620000Y-115720000D02*
X141860000Y-115720000D01*
X141860000Y-115720000D02*
X141860000Y-121720000D01*
X141860000Y-121720000D02*
X142620000Y-121720000D01*
X142620000Y-121720000D02*
X142620000Y-115720000D01*
X142620000Y-112670000D02*
X142620000Y-113100000D01*
X141860000Y-112670000D02*
X141860000Y-113100000D01*
X149860000Y-110490000D02*
X151130000Y-110490000D01*
X151130000Y-110490000D02*
X151130000Y-111760000D01*
X120580000Y-111820000D02*
X120580000Y-109220000D01*
X120580000Y-109220000D02*
X117960000Y-109220000D01*
X117960000Y-109220000D02*
X117960000Y-111820000D01*
X117960000Y-111820000D02*
X120580000Y-111820000D01*
X117960000Y-110870000D02*
X117960000Y-110110000D01*
X117960000Y-110110000D02*
X111960000Y-110110000D01*
X111960000Y-110110000D02*
X111960000Y-110870000D01*
X111960000Y-110870000D02*
X117960000Y-110870000D01*
X121010000Y-110870000D02*
X120580000Y-110870000D01*
X121010000Y-110110000D02*
X120580000Y-110110000D01*
X117960000Y-110750000D02*
X111960000Y-110750000D01*
X117960000Y-110630000D02*
X111960000Y-110630000D01*
X117960000Y-110510000D02*
X111960000Y-110510000D01*
X117960000Y-110390000D02*
X111960000Y-110390000D01*
X117960000Y-110270000D02*
X111960000Y-110270000D01*
X117960000Y-110150000D02*
X111960000Y-110150000D01*
X120580000Y-109220000D02*
X120580000Y-106680000D01*
X120580000Y-106680000D02*
X117960000Y-106680000D01*
X117960000Y-106680000D02*
X117960000Y-109220000D01*
X117960000Y-109220000D02*
X120580000Y-109220000D01*
X117960000Y-108330000D02*
X117960000Y-107570000D01*
X117960000Y-107570000D02*
X111960000Y-107570000D01*
X111960000Y-107570000D02*
X111960000Y-108330000D01*
X111960000Y-108330000D02*
X117960000Y-108330000D01*
X121010000Y-108330000D02*
X120580000Y-108330000D01*
X121010000Y-107570000D02*
X120580000Y-107570000D01*
X120580000Y-106680000D02*
X120580000Y-104140000D01*
X120580000Y-104140000D02*
X117960000Y-104140000D01*
X117960000Y-104140000D02*
X117960000Y-106680000D01*
X117960000Y-106680000D02*
X120580000Y-106680000D01*
X117960000Y-105790000D02*
X117960000Y-105030000D01*
X117960000Y-105030000D02*
X111960000Y-105030000D01*
X111960000Y-105030000D02*
X111960000Y-105790000D01*
X111960000Y-105790000D02*
X117960000Y-105790000D01*
X121010000Y-105790000D02*
X120580000Y-105790000D01*
X121010000Y-105030000D02*
X120580000Y-105030000D01*
X120580000Y-104140000D02*
X120580000Y-101540000D01*
X120580000Y-101540000D02*
X117960000Y-101540000D01*
X117960000Y-101540000D02*
X117960000Y-104140000D01*
X117960000Y-104140000D02*
X120580000Y-104140000D01*
X117960000Y-103250000D02*
X117960000Y-102490000D01*
X117960000Y-102490000D02*
X111960000Y-102490000D01*
X111960000Y-102490000D02*
X111960000Y-103250000D01*
X111960000Y-103250000D02*
X117960000Y-103250000D01*
X121010000Y-103250000D02*
X120580000Y-103250000D01*
X121010000Y-102490000D02*
X120580000Y-102490000D01*
X123190000Y-110490000D02*
X123190000Y-111760000D01*
X123190000Y-111760000D02*
X121920000Y-111760000D01*
X141090000Y-55642000D02*
X141090000Y-54272000D01*
X141090000Y-54272000D02*
X120530000Y-54272000D01*
X120530000Y-54272000D02*
X120530000Y-59012000D01*
X120530000Y-59012000D02*
X141090000Y-59012000D01*
X141090000Y-59012000D02*
X141090000Y-57642000D01*
X141090000Y-57642000D02*
G75*
G02X141090000Y-55642000I0J1000000D01*
G01*
X149800000Y-52578000D02*
X149800000Y-62798000D01*
X149800000Y-62798000D02*
X152460000Y-62798000D01*
X152460000Y-62798000D02*
X152460000Y-52578000D01*
X152460000Y-52578000D02*
X149800000Y-52578000D01*
X149800000Y-51308000D02*
X149800000Y-49978000D01*
X149800000Y-49978000D02*
X151130000Y-49978000D01*
X167580000Y-52578000D02*
X167580000Y-62798000D01*
X167580000Y-62798000D02*
X170240000Y-62798000D01*
X170240000Y-62798000D02*
X170240000Y-52578000D01*
X170240000Y-52578000D02*
X167580000Y-52578000D01*
X167580000Y-51308000D02*
X167580000Y-49978000D01*
X167580000Y-49978000D02*
X168910000Y-49978000D01*
X145990000Y-82550000D02*
X145990000Y-92770000D01*
X145990000Y-92770000D02*
X148650000Y-92770000D01*
X148650000Y-92770000D02*
X148650000Y-82550000D01*
X148650000Y-82550000D02*
X145990000Y-82550000D01*
X145990000Y-81280000D02*
X145990000Y-79950000D01*
X145990000Y-79950000D02*
X147320000Y-79950000D01*
X160020000Y-115630000D02*
X170240000Y-115630000D01*
X170240000Y-115630000D02*
X170240000Y-112970000D01*
X170240000Y-112970000D02*
X160020000Y-112970000D01*
X160020000Y-112970000D02*
X160020000Y-115630000D01*
X158750000Y-115630000D02*
X157420000Y-115630000D01*
X157420000Y-115630000D02*
X157420000Y-114300000D01*
X132020000Y-97790000D02*
X132020000Y-108010000D01*
X132020000Y-108010000D02*
X134680000Y-108010000D01*
X134680000Y-108010000D02*
X134680000Y-97790000D01*
X134680000Y-97790000D02*
X132020000Y-97790000D01*
X132020000Y-96520000D02*
X132020000Y-95190000D01*
X132020000Y-95190000D02*
X133350000Y-95190000D01*
X163830000Y-45018000D02*
X174050000Y-45018000D01*
X174050000Y-45018000D02*
X174050000Y-42358000D01*
X174050000Y-42358000D02*
X163830000Y-42358000D01*
X163830000Y-42358000D02*
X163830000Y-45018000D01*
X162560000Y-45018000D02*
X161230000Y-45018000D01*
X161230000Y-45018000D02*
X161230000Y-43688000D01*
X120530000Y-88630000D02*
X120530000Y-90000000D01*
X120530000Y-90000000D02*
X141090000Y-90000000D01*
X141090000Y-90000000D02*
X141090000Y-85260000D01*
X141090000Y-85260000D02*
X120530000Y-85260000D01*
X120530000Y-85260000D02*
X120530000Y-86630000D01*
X120530000Y-86630000D02*
G75*
G02X120530000Y-88630000I0J-1000000D01*
G01*
X171520000Y-82490000D02*
X171520000Y-85090000D01*
X171520000Y-85090000D02*
X174140000Y-85090000D01*
X174140000Y-85090000D02*
X174140000Y-82490000D01*
X174140000Y-82490000D02*
X171520000Y-82490000D01*
X174140000Y-83440000D02*
X174140000Y-84200000D01*
X174140000Y-84200000D02*
X180140000Y-84200000D01*
X180140000Y-84200000D02*
X180140000Y-83440000D01*
X180140000Y-83440000D02*
X174140000Y-83440000D01*
X171090000Y-83440000D02*
X171520000Y-83440000D01*
X171090000Y-84200000D02*
X171520000Y-84200000D01*
X168550000Y-83440000D02*
X169270000Y-83440000D01*
X168550000Y-84200000D02*
X169270000Y-84200000D01*
X174140000Y-83560000D02*
X180140000Y-83560000D01*
X174140000Y-83680000D02*
X180140000Y-83680000D01*
X174140000Y-83800000D02*
X180140000Y-83800000D01*
X174140000Y-83920000D02*
X180140000Y-83920000D01*
X174140000Y-84040000D02*
X180140000Y-84040000D01*
X174140000Y-84160000D02*
X180140000Y-84160000D01*
X171520000Y-85090000D02*
X171520000Y-87630000D01*
X171520000Y-87630000D02*
X174140000Y-87630000D01*
X174140000Y-87630000D02*
X174140000Y-85090000D01*
X174140000Y-85090000D02*
X171520000Y-85090000D01*
X174140000Y-85980000D02*
X174140000Y-86740000D01*
X174140000Y-86740000D02*
X180140000Y-86740000D01*
X180140000Y-86740000D02*
X180140000Y-85980000D01*
X180140000Y-85980000D02*
X174140000Y-85980000D01*
X171090000Y-85980000D02*
X171520000Y-85980000D01*
X171090000Y-86740000D02*
X171520000Y-86740000D01*
X168550000Y-85980000D02*
X169270000Y-85980000D01*
X168550000Y-86740000D02*
X169270000Y-86740000D01*
X171520000Y-87630000D02*
X171520000Y-90170000D01*
X171520000Y-90170000D02*
X174140000Y-90170000D01*
X174140000Y-90170000D02*
X174140000Y-87630000D01*
X174140000Y-87630000D02*
X171520000Y-87630000D01*
X174140000Y-88520000D02*
X174140000Y-89280000D01*
X174140000Y-89280000D02*
X180140000Y-89280000D01*
X180140000Y-89280000D02*
X180140000Y-88520000D01*
X180140000Y-88520000D02*
X174140000Y-88520000D01*
X171090000Y-88520000D02*
X171520000Y-88520000D01*
X171090000Y-89280000D02*
X171520000Y-89280000D01*
X168550000Y-88520000D02*
X169270000Y-88520000D01*
X168550000Y-89280000D02*
X169270000Y-89280000D01*
X171520000Y-90170000D02*
X171520000Y-92710000D01*
X171520000Y-92710000D02*
X174140000Y-92710000D01*
X174140000Y-92710000D02*
X174140000Y-90170000D01*
X174140000Y-90170000D02*
X171520000Y-90170000D01*
X174140000Y-91060000D02*
X174140000Y-91820000D01*
X174140000Y-91820000D02*
X180140000Y-91820000D01*
X180140000Y-91820000D02*
X180140000Y-91060000D01*
X180140000Y-91060000D02*
X174140000Y-91060000D01*
X171090000Y-91060000D02*
X171520000Y-91060000D01*
X171090000Y-91820000D02*
X171520000Y-91820000D01*
X168550000Y-91060000D02*
X169270000Y-91060000D01*
X168550000Y-91820000D02*
X169270000Y-91820000D01*
X171520000Y-92710000D02*
X171520000Y-95250000D01*
X171520000Y-95250000D02*
X174140000Y-95250000D01*
X174140000Y-95250000D02*
X174140000Y-92710000D01*
X174140000Y-92710000D02*
X171520000Y-92710000D01*
X174140000Y-93600000D02*
X174140000Y-94360000D01*
X174140000Y-94360000D02*
X180140000Y-94360000D01*
X180140000Y-94360000D02*
X180140000Y-93600000D01*
X180140000Y-93600000D02*
X174140000Y-93600000D01*
X171090000Y-93600000D02*
X171520000Y-93600000D01*
X171090000Y-94360000D02*
X171520000Y-94360000D01*
X168550000Y-93600000D02*
X169270000Y-93600000D01*
X168550000Y-94360000D02*
X169270000Y-94360000D01*
X171520000Y-95250000D02*
X171520000Y-97790000D01*
X171520000Y-97790000D02*
X174140000Y-97790000D01*
X174140000Y-97790000D02*
X174140000Y-95250000D01*
X174140000Y-95250000D02*
X171520000Y-95250000D01*
X174140000Y-96140000D02*
X174140000Y-96900000D01*
X174140000Y-96900000D02*
X180140000Y-96900000D01*
X180140000Y-96900000D02*
X180140000Y-96140000D01*
X180140000Y-96140000D02*
X174140000Y-96140000D01*
X171090000Y-96140000D02*
X171520000Y-96140000D01*
X171090000Y-96900000D02*
X171520000Y-96900000D01*
X168550000Y-96140000D02*
X169270000Y-96140000D01*
X168550000Y-96900000D02*
X169270000Y-96900000D01*
X171520000Y-97790000D02*
X171520000Y-100330000D01*
X171520000Y-100330000D02*
X174140000Y-100330000D01*
X174140000Y-100330000D02*
X174140000Y-97790000D01*
X174140000Y-97790000D02*
X171520000Y-97790000D01*
X174140000Y-98680000D02*
X174140000Y-99440000D01*
X174140000Y-99440000D02*
X180140000Y-99440000D01*
X180140000Y-99440000D02*
X180140000Y-98680000D01*
X180140000Y-98680000D02*
X174140000Y-98680000D01*
X171090000Y-98680000D02*
X171520000Y-98680000D01*
X171090000Y-99440000D02*
X171520000Y-99440000D01*
X168550000Y-98680000D02*
X169270000Y-98680000D01*
X168550000Y-99440000D02*
X169270000Y-99440000D01*
X171520000Y-100330000D02*
X171520000Y-102870000D01*
X171520000Y-102870000D02*
X174140000Y-102870000D01*
X174140000Y-102870000D02*
X174140000Y-100330000D01*
X174140000Y-100330000D02*
X171520000Y-100330000D01*
X174140000Y-101220000D02*
X174140000Y-101980000D01*
X174140000Y-101980000D02*
X180140000Y-101980000D01*
X180140000Y-101980000D02*
X180140000Y-101220000D01*
X180140000Y-101220000D02*
X174140000Y-101220000D01*
X171090000Y-101220000D02*
X171520000Y-101220000D01*
X171090000Y-101980000D02*
X171520000Y-101980000D01*
X168550000Y-101220000D02*
X169270000Y-101220000D01*
X168550000Y-101980000D02*
X169270000Y-101980000D01*
X171520000Y-102870000D02*
X171520000Y-105470000D01*
X171520000Y-105470000D02*
X174140000Y-105470000D01*
X174140000Y-105470000D02*
X174140000Y-102870000D01*
X174140000Y-102870000D02*
X171520000Y-102870000D01*
X174140000Y-103760000D02*
X174140000Y-104520000D01*
X174140000Y-104520000D02*
X180140000Y-104520000D01*
X180140000Y-104520000D02*
X180140000Y-103760000D01*
X180140000Y-103760000D02*
X174140000Y-103760000D01*
X171090000Y-103760000D02*
X171520000Y-103760000D01*
X171090000Y-104520000D02*
X171520000Y-104520000D01*
X168550000Y-103760000D02*
X169270000Y-103760000D01*
X168550000Y-104520000D02*
X169270000Y-104520000D01*
X166370000Y-83820000D02*
X166370000Y-82550000D01*
X166370000Y-82550000D02*
X167640000Y-82550000D01*
D14*
G36*
X181294094Y-56000269D02*
X181304618Y-55966719D01*
X181334368Y-55942814D01*
X181393209Y-55924726D01*
X181491004Y-55908627D01*
X181637618Y-55890688D01*
X181721125Y-55881112D01*
X181885095Y-55862731D01*
X181996242Y-55852714D01*
X182064835Y-55852248D01*
X182101146Y-55862521D01*
X182115442Y-55884721D01*
X182117995Y-55920037D01*
X182118000Y-55927021D01*
X182098181Y-55994718D01*
X182038625Y-56025713D01*
X181987735Y-56047142D01*
X181964747Y-56090626D01*
X181959253Y-56176390D01*
X181959250Y-56179971D01*
X181965795Y-56270939D01*
X181992484Y-56321851D01*
X182038625Y-56350473D01*
X182101543Y-56401655D01*
X182118000Y-56478591D01*
X182118000Y-56570543D01*
X181800500Y-56408578D01*
X181800500Y-56228425D01*
X181800500Y-56136609D01*
X181796770Y-56079717D01*
X181773922Y-56056123D01*
X181714466Y-56056160D01*
X181665562Y-56062015D01*
X181581410Y-56073724D01*
X181529898Y-56082732D01*
X181523384Y-56084756D01*
X181544815Y-56100321D01*
X181607553Y-56134074D01*
X181658321Y-56159350D01*
X181800500Y-56228425D01*
X181800500Y-56408578D01*
X181705684Y-56360209D01*
X181545185Y-56277750D01*
X181432844Y-56217267D01*
X181360071Y-56172248D01*
X181318274Y-56136180D01*
X181298862Y-56102549D01*
X181293243Y-56064843D01*
X181292934Y-56047293D01*
X181294094Y-56000269D01*
X181294094Y-56000269D01*
G37*
X181294094Y-56000269D02*
X181304618Y-55966719D01*
X181334368Y-55942814D01*
X181393209Y-55924726D01*
X181491004Y-55908627D01*
X181637618Y-55890688D01*
X181721125Y-55881112D01*
X181885095Y-55862731D01*
X181996242Y-55852714D01*
X182064835Y-55852248D01*
X182101146Y-55862521D01*
X182115442Y-55884721D01*
X182117995Y-55920037D01*
X182118000Y-55927021D01*
X182098181Y-55994718D01*
X182038625Y-56025713D01*
X181987735Y-56047142D01*
X181964747Y-56090626D01*
X181959253Y-56176390D01*
X181959250Y-56179971D01*
X181965795Y-56270939D01*
X181992484Y-56321851D01*
X182038625Y-56350473D01*
X182101543Y-56401655D01*
X182118000Y-56478591D01*
X182118000Y-56570543D01*
X181800500Y-56408578D01*
X181800500Y-56228425D01*
X181800500Y-56136609D01*
X181796770Y-56079717D01*
X181773922Y-56056123D01*
X181714466Y-56056160D01*
X181665562Y-56062015D01*
X181581410Y-56073724D01*
X181529898Y-56082732D01*
X181523384Y-56084756D01*
X181544815Y-56100321D01*
X181607553Y-56134074D01*
X181658321Y-56159350D01*
X181800500Y-56228425D01*
X181800500Y-56408578D01*
X181705684Y-56360209D01*
X181545185Y-56277750D01*
X181432844Y-56217267D01*
X181360071Y-56172248D01*
X181318274Y-56136180D01*
X181298862Y-56102549D01*
X181293243Y-56064843D01*
X181292934Y-56047293D01*
X181294094Y-56000269D01*
G36*
X181237417Y-55071991D02*
X181273592Y-55059764D01*
X181300437Y-55064899D01*
X181359130Y-55077615D01*
X181464770Y-55099143D01*
X181601932Y-55126382D01*
X181742526Y-55153786D01*
X182113178Y-55225390D01*
X182112015Y-55427001D01*
X182102317Y-55572826D01*
X182075553Y-55660572D01*
X182064533Y-55674931D01*
X181992422Y-55709572D01*
X181884557Y-55720887D01*
X181883318Y-55720772D01*
X181883318Y-55554889D01*
X181930200Y-55545769D01*
X181979920Y-55503992D01*
X181986536Y-55441516D01*
X181949224Y-55385017D01*
X181935437Y-55376251D01*
X181871245Y-55353723D01*
X181774010Y-55331522D01*
X181729062Y-55323904D01*
X181638157Y-55312906D01*
X181593516Y-55318514D01*
X181579125Y-55344928D01*
X181578250Y-55363475D01*
X181606816Y-55439074D01*
X181679848Y-55502737D01*
X181778349Y-55544622D01*
X181883318Y-55554889D01*
X181883318Y-55720772D01*
X181763918Y-55709681D01*
X181653486Y-55676762D01*
X181619963Y-55659331D01*
X181509422Y-55565513D01*
X181460417Y-55456283D01*
X181463061Y-55368508D01*
X181468011Y-55301547D01*
X181435822Y-55270019D01*
X181394816Y-55258610D01*
X181298464Y-55234797D01*
X181249096Y-55210120D01*
X181231168Y-55172656D01*
X181229000Y-55131430D01*
X181237417Y-55071991D01*
X181237417Y-55071991D01*
G37*
X181237417Y-55071991D02*
X181273592Y-55059764D01*
X181300437Y-55064899D01*
X181359130Y-55077615D01*
X181464770Y-55099143D01*
X181601932Y-55126382D01*
X181742526Y-55153786D01*
X182113178Y-55225390D01*
X182112015Y-55427001D01*
X182102317Y-55572826D01*
X182075553Y-55660572D01*
X182064533Y-55674931D01*
X181992422Y-55709572D01*
X181884557Y-55720887D01*
X181883318Y-55720772D01*
X181883318Y-55554889D01*
X181930200Y-55545769D01*
X181979920Y-55503992D01*
X181986536Y-55441516D01*
X181949224Y-55385017D01*
X181935437Y-55376251D01*
X181871245Y-55353723D01*
X181774010Y-55331522D01*
X181729062Y-55323904D01*
X181638157Y-55312906D01*
X181593516Y-55318514D01*
X181579125Y-55344928D01*
X181578250Y-55363475D01*
X181606816Y-55439074D01*
X181679848Y-55502737D01*
X181778349Y-55544622D01*
X181883318Y-55554889D01*
X181883318Y-55720772D01*
X181763918Y-55709681D01*
X181653486Y-55676762D01*
X181619963Y-55659331D01*
X181509422Y-55565513D01*
X181460417Y-55456283D01*
X181463061Y-55368508D01*
X181468011Y-55301547D01*
X181435822Y-55270019D01*
X181394816Y-55258610D01*
X181298464Y-55234797D01*
X181249096Y-55210120D01*
X181231168Y-55172656D01*
X181229000Y-55131430D01*
X181237417Y-55071991D01*
G36*
X181487703Y-54443867D02*
X181498093Y-54419500D01*
X181530554Y-54433564D01*
X181606748Y-54471637D01*
X181714540Y-54527544D01*
X181815593Y-54581080D01*
X181950296Y-54654557D01*
X182038029Y-54707906D01*
X182088650Y-54749336D01*
X182112014Y-54787056D01*
X182117979Y-54829275D01*
X182118000Y-54832941D01*
X182099011Y-54912183D01*
X182062437Y-54938951D01*
X182002797Y-54950202D01*
X181902979Y-54963791D01*
X181800500Y-54975125D01*
X181684437Y-54988140D01*
X181588292Y-55001614D01*
X181538562Y-55011300D01*
X181499054Y-55009663D01*
X181484136Y-54964717D01*
X181483000Y-54929640D01*
X181488648Y-54865541D01*
X181518092Y-54837271D01*
X181590076Y-54828904D01*
X181602062Y-54828494D01*
X181711828Y-54820023D01*
X181813222Y-54804718D01*
X181816375Y-54804044D01*
X181861788Y-54792118D01*
X181872700Y-54778283D01*
X181842386Y-54756076D01*
X181764121Y-54719036D01*
X181697312Y-54689611D01*
X181585697Y-54638207D01*
X181521052Y-54598781D01*
X181490972Y-54560800D01*
X181483051Y-54513733D01*
X181483000Y-54507685D01*
X181487703Y-54443867D01*
X181487703Y-54443867D01*
G37*
X181487703Y-54443867D02*
X181498093Y-54419500D01*
X181530554Y-54433564D01*
X181606748Y-54471637D01*
X181714540Y-54527544D01*
X181815593Y-54581080D01*
X181950296Y-54654557D01*
X182038029Y-54707906D01*
X182088650Y-54749336D01*
X182112014Y-54787056D01*
X182117979Y-54829275D01*
X182118000Y-54832941D01*
X182099011Y-54912183D01*
X182062437Y-54938951D01*
X182002797Y-54950202D01*
X181902979Y-54963791D01*
X181800500Y-54975125D01*
X181684437Y-54988140D01*
X181588292Y-55001614D01*
X181538562Y-55011300D01*
X181499054Y-55009663D01*
X181484136Y-54964717D01*
X181483000Y-54929640D01*
X181488648Y-54865541D01*
X181518092Y-54837271D01*
X181590076Y-54828904D01*
X181602062Y-54828494D01*
X181711828Y-54820023D01*
X181813222Y-54804718D01*
X181816375Y-54804044D01*
X181861788Y-54792118D01*
X181872700Y-54778283D01*
X181842386Y-54756076D01*
X181764121Y-54719036D01*
X181697312Y-54689611D01*
X181585697Y-54638207D01*
X181521052Y-54598781D01*
X181490972Y-54560800D01*
X181483051Y-54513733D01*
X181483000Y-54507685D01*
X181487703Y-54443867D01*
G36*
X181464240Y-53995161D02*
X181464982Y-53991131D01*
X181488570Y-53918536D01*
X181533196Y-53874927D01*
X181609172Y-53857597D01*
X181726813Y-53863837D01*
X181866928Y-53885590D01*
X181987187Y-53908640D01*
X182058446Y-53929336D01*
X182094474Y-53954931D01*
X182109040Y-53992679D01*
X182112171Y-54014775D01*
X182108626Y-54078081D01*
X182087241Y-54102000D01*
X182068271Y-54119599D01*
X182085132Y-54163413D01*
X182116255Y-54272756D01*
X182087071Y-54367352D01*
X182056632Y-54401696D01*
X181982627Y-54440599D01*
X181923388Y-54437154D01*
X181923388Y-54254530D01*
X181938783Y-54251031D01*
X181985419Y-54206141D01*
X181979494Y-54137443D01*
X181966701Y-54114217D01*
X181919785Y-54077180D01*
X181871937Y-54056515D01*
X181817345Y-54049762D01*
X181800725Y-54084486D01*
X181800500Y-54093793D01*
X181819643Y-54173726D01*
X181866095Y-54233547D01*
X181923388Y-54254530D01*
X181923388Y-54437154D01*
X181896806Y-54435608D01*
X181800562Y-54391166D01*
X181734445Y-54302392D01*
X181693046Y-54161579D01*
X181689360Y-54140064D01*
X181665282Y-54048537D01*
X181637193Y-54016736D01*
X181612217Y-54041869D01*
X181597479Y-54121145D01*
X181596120Y-54176587D01*
X181592982Y-54268777D01*
X181576618Y-54312983D01*
X181541996Y-54324250D01*
X181497085Y-54295642D01*
X181466677Y-54220537D01*
X181454489Y-54115016D01*
X181464240Y-53995161D01*
X181464240Y-53995161D01*
G37*
X181464240Y-53995161D02*
X181464982Y-53991131D01*
X181488570Y-53918536D01*
X181533196Y-53874927D01*
X181609172Y-53857597D01*
X181726813Y-53863837D01*
X181866928Y-53885590D01*
X181987187Y-53908640D01*
X182058446Y-53929336D01*
X182094474Y-53954931D01*
X182109040Y-53992679D01*
X182112171Y-54014775D01*
X182108626Y-54078081D01*
X182087241Y-54102000D01*
X182068271Y-54119599D01*
X182085132Y-54163413D01*
X182116255Y-54272756D01*
X182087071Y-54367352D01*
X182056632Y-54401696D01*
X181982627Y-54440599D01*
X181923388Y-54437154D01*
X181923388Y-54254530D01*
X181938783Y-54251031D01*
X181985419Y-54206141D01*
X181979494Y-54137443D01*
X181966701Y-54114217D01*
X181919785Y-54077180D01*
X181871937Y-54056515D01*
X181817345Y-54049762D01*
X181800725Y-54084486D01*
X181800500Y-54093793D01*
X181819643Y-54173726D01*
X181866095Y-54233547D01*
X181923388Y-54254530D01*
X181923388Y-54437154D01*
X181896806Y-54435608D01*
X181800562Y-54391166D01*
X181734445Y-54302392D01*
X181693046Y-54161579D01*
X181689360Y-54140064D01*
X181665282Y-54048537D01*
X181637193Y-54016736D01*
X181612217Y-54041869D01*
X181597479Y-54121145D01*
X181596120Y-54176587D01*
X181592982Y-54268777D01*
X181576618Y-54312983D01*
X181541996Y-54324250D01*
X181497085Y-54295642D01*
X181466677Y-54220537D01*
X181454489Y-54115016D01*
X181464240Y-53995161D01*
G36*
X181472842Y-53237573D02*
X181527174Y-53176239D01*
X181560261Y-53163069D01*
X181632970Y-53159559D01*
X181746890Y-53169960D01*
X181881970Y-53191474D01*
X182018159Y-53221300D01*
X182062437Y-53233202D01*
X182107894Y-53276226D01*
X182118000Y-53330234D01*
X182111743Y-53384583D01*
X182080244Y-53400249D01*
X182016488Y-53391136D01*
X181923894Y-53375312D01*
X181804560Y-53358280D01*
X181746613Y-53351046D01*
X181649002Y-53341758D01*
X181598722Y-53346308D01*
X181580364Y-53368741D01*
X181578250Y-53395241D01*
X181589876Y-53453404D01*
X181631587Y-53496208D01*
X181713625Y-53529260D01*
X181846237Y-53558168D01*
X181889449Y-53565562D01*
X182007034Y-53586226D01*
X182075273Y-53604859D01*
X182107578Y-53629117D01*
X182117360Y-53666657D01*
X182118000Y-53696043D01*
X182110126Y-53760666D01*
X182080124Y-53776196D01*
X182062437Y-53772412D01*
X182003177Y-53758742D01*
X181904000Y-53739394D01*
X181800500Y-53721000D01*
X181656827Y-53695531D01*
X181564588Y-53674482D01*
X181512445Y-53652676D01*
X181489061Y-53624933D01*
X181483099Y-53586077D01*
X181483000Y-53575986D01*
X181494396Y-53517353D01*
X181515481Y-53498750D01*
X181523432Y-53476526D01*
X181498127Y-53422729D01*
X181496106Y-53419607D01*
X181460921Y-53324953D01*
X181472842Y-53237573D01*
X181472842Y-53237573D01*
G37*
X181472842Y-53237573D02*
X181527174Y-53176239D01*
X181560261Y-53163069D01*
X181632970Y-53159559D01*
X181746890Y-53169960D01*
X181881970Y-53191474D01*
X182018159Y-53221300D01*
X182062437Y-53233202D01*
X182107894Y-53276226D01*
X182118000Y-53330234D01*
X182111743Y-53384583D01*
X182080244Y-53400249D01*
X182016488Y-53391136D01*
X181923894Y-53375312D01*
X181804560Y-53358280D01*
X181746613Y-53351046D01*
X181649002Y-53341758D01*
X181598722Y-53346308D01*
X181580364Y-53368741D01*
X181578250Y-53395241D01*
X181589876Y-53453404D01*
X181631587Y-53496208D01*
X181713625Y-53529260D01*
X181846237Y-53558168D01*
X181889449Y-53565562D01*
X182007034Y-53586226D01*
X182075273Y-53604859D01*
X182107578Y-53629117D01*
X182117360Y-53666657D01*
X182118000Y-53696043D01*
X182110126Y-53760666D01*
X182080124Y-53776196D01*
X182062437Y-53772412D01*
X182003177Y-53758742D01*
X181904000Y-53739394D01*
X181800500Y-53721000D01*
X181656827Y-53695531D01*
X181564588Y-53674482D01*
X181512445Y-53652676D01*
X181489061Y-53624933D01*
X181483099Y-53586077D01*
X181483000Y-53575986D01*
X181494396Y-53517353D01*
X181515481Y-53498750D01*
X181523432Y-53476526D01*
X181498127Y-53422729D01*
X181496106Y-53419607D01*
X181460921Y-53324953D01*
X181472842Y-53237573D01*
G36*
X181463390Y-52622900D02*
X181493780Y-52547666D01*
X181550595Y-52514872D01*
X181558522Y-52514500D01*
X181635805Y-52526518D01*
X181654320Y-52562539D01*
X181622181Y-52613832D01*
X181582174Y-52694825D01*
X181599450Y-52773984D01*
X181668651Y-52839065D01*
X181732626Y-52866191D01*
X181854900Y-52884051D01*
X181940939Y-52859890D01*
X181983808Y-52801206D01*
X181976573Y-52715498D01*
X181938265Y-52643841D01*
X181904769Y-52591817D01*
X181915393Y-52578370D01*
X181977888Y-52591732D01*
X182046961Y-52610599D01*
X182081522Y-52634802D01*
X182097525Y-52684751D01*
X182107817Y-52757941D01*
X182108023Y-52863445D01*
X182068672Y-52949015D01*
X182055218Y-52966938D01*
X181965102Y-53035114D01*
X181850507Y-53058373D01*
X181727821Y-53040402D01*
X181613430Y-52984887D01*
X181523721Y-52895515D01*
X181493803Y-52840634D01*
X181462405Y-52725561D01*
X181463390Y-52622900D01*
X181463390Y-52622900D01*
G37*
X181463390Y-52622900D02*
X181493780Y-52547666D01*
X181550595Y-52514872D01*
X181558522Y-52514500D01*
X181635805Y-52526518D01*
X181654320Y-52562539D01*
X181622181Y-52613832D01*
X181582174Y-52694825D01*
X181599450Y-52773984D01*
X181668651Y-52839065D01*
X181732626Y-52866191D01*
X181854900Y-52884051D01*
X181940939Y-52859890D01*
X181983808Y-52801206D01*
X181976573Y-52715498D01*
X181938265Y-52643841D01*
X181904769Y-52591817D01*
X181915393Y-52578370D01*
X181977888Y-52591732D01*
X182046961Y-52610599D01*
X182081522Y-52634802D01*
X182097525Y-52684751D01*
X182107817Y-52757941D01*
X182108023Y-52863445D01*
X182068672Y-52949015D01*
X182055218Y-52966938D01*
X181965102Y-53035114D01*
X181850507Y-53058373D01*
X181727821Y-53040402D01*
X181613430Y-52984887D01*
X181523721Y-52895515D01*
X181493803Y-52840634D01*
X181462405Y-52725561D01*
X181463390Y-52622900D01*
G36*
X181462051Y-52058152D02*
X181510226Y-51967940D01*
X181605925Y-51919737D01*
X181690106Y-51911250D01*
X181832250Y-51911250D01*
X181832250Y-52117625D01*
X181836577Y-52239234D01*
X181850573Y-52305459D01*
X181873525Y-52324000D01*
X181942303Y-52297889D01*
X181981085Y-52230923D01*
X181985930Y-52140156D01*
X181952898Y-52042642D01*
X181942498Y-52025494D01*
X181912084Y-51973350D01*
X181925846Y-51959568D01*
X181976613Y-51967264D01*
X182052005Y-52010916D01*
X182100745Y-52096964D01*
X182116964Y-52207802D01*
X182095475Y-52324000D01*
X182039505Y-52418239D01*
X181950720Y-52468763D01*
X181827830Y-52482750D01*
X181676009Y-52456213D01*
X181667830Y-52451023D01*
X181667830Y-52285069D01*
X181694903Y-52266635D01*
X181705202Y-52191228D01*
X181705250Y-52183771D01*
X181695756Y-52101215D01*
X181664720Y-52070668D01*
X181656628Y-52070000D01*
X181604632Y-52093364D01*
X181584920Y-52148921D01*
X181596357Y-52214870D01*
X181637808Y-52269410D01*
X181667830Y-52285069D01*
X181667830Y-52451023D01*
X181557826Y-52381208D01*
X181481911Y-52264650D01*
X181461967Y-52189678D01*
X181462051Y-52058152D01*
X181462051Y-52058152D01*
G37*
X181462051Y-52058152D02*
X181510226Y-51967940D01*
X181605925Y-51919737D01*
X181690106Y-51911250D01*
X181832250Y-51911250D01*
X181832250Y-52117625D01*
X181836577Y-52239234D01*
X181850573Y-52305459D01*
X181873525Y-52324000D01*
X181942303Y-52297889D01*
X181981085Y-52230923D01*
X181985930Y-52140156D01*
X181952898Y-52042642D01*
X181942498Y-52025494D01*
X181912084Y-51973350D01*
X181925846Y-51959568D01*
X181976613Y-51967264D01*
X182052005Y-52010916D01*
X182100745Y-52096964D01*
X182116964Y-52207802D01*
X182095475Y-52324000D01*
X182039505Y-52418239D01*
X181950720Y-52468763D01*
X181827830Y-52482750D01*
X181676009Y-52456213D01*
X181667830Y-52451023D01*
X181667830Y-52285069D01*
X181694903Y-52266635D01*
X181705202Y-52191228D01*
X181705250Y-52183771D01*
X181695756Y-52101215D01*
X181664720Y-52070668D01*
X181656628Y-52070000D01*
X181604632Y-52093364D01*
X181584920Y-52148921D01*
X181596357Y-52214870D01*
X181637808Y-52269410D01*
X181667830Y-52285069D01*
X181667830Y-52451023D01*
X181557826Y-52381208D01*
X181481911Y-52264650D01*
X181461967Y-52189678D01*
X181462051Y-52058152D01*
G36*
X181602062Y-51232486D02*
X181792111Y-51270537D01*
X181928773Y-51298784D01*
X182020816Y-51320411D01*
X182077011Y-51338600D01*
X182106127Y-51356533D01*
X182116935Y-51377394D01*
X182118204Y-51404365D01*
X182118000Y-51419730D01*
X182104887Y-51479071D01*
X182079900Y-51498500D01*
X182057810Y-51507872D01*
X182079900Y-51536600D01*
X182115622Y-51611838D01*
X182109993Y-51703207D01*
X182066578Y-51781957D01*
X182047435Y-51798325D01*
X181932205Y-51842562D01*
X181860775Y-51837816D01*
X181860775Y-51657250D01*
X181952805Y-51640816D01*
X181992154Y-51594969D01*
X181975050Y-51524896D01*
X181966701Y-51511602D01*
X181924425Y-51486601D01*
X181840954Y-51459514D01*
X181774131Y-51444228D01*
X181671913Y-51427742D01*
X181615662Y-51429430D01*
X181590249Y-51450161D01*
X181588172Y-51454939D01*
X181586942Y-51532286D01*
X181638844Y-51596806D01*
X181733734Y-51640971D01*
X181860775Y-51657250D01*
X181860775Y-51837816D01*
X181787858Y-51832971D01*
X181672922Y-51796190D01*
X181555301Y-51722414D01*
X181480722Y-51619376D01*
X181458102Y-51501061D01*
X181462480Y-51466162D01*
X181468101Y-51409441D01*
X181444558Y-51380023D01*
X181376505Y-51362695D01*
X181354444Y-51359059D01*
X181273160Y-51340813D01*
X181237326Y-51310700D01*
X181229014Y-51252904D01*
X181229000Y-51248369D01*
X181229000Y-51157737D01*
X181602062Y-51232486D01*
X181602062Y-51232486D01*
G37*
X181602062Y-51232486D02*
X181792111Y-51270537D01*
X181928773Y-51298784D01*
X182020816Y-51320411D01*
X182077011Y-51338600D01*
X182106127Y-51356533D01*
X182116935Y-51377394D01*
X182118204Y-51404365D01*
X182118000Y-51419730D01*
X182104887Y-51479071D01*
X182079900Y-51498500D01*
X182057810Y-51507872D01*
X182079900Y-51536600D01*
X182115622Y-51611838D01*
X182109993Y-51703207D01*
X182066578Y-51781957D01*
X182047435Y-51798325D01*
X181932205Y-51842562D01*
X181860775Y-51837816D01*
X181860775Y-51657250D01*
X181952805Y-51640816D01*
X181992154Y-51594969D01*
X181975050Y-51524896D01*
X181966701Y-51511602D01*
X181924425Y-51486601D01*
X181840954Y-51459514D01*
X181774131Y-51444228D01*
X181671913Y-51427742D01*
X181615662Y-51429430D01*
X181590249Y-51450161D01*
X181588172Y-51454939D01*
X181586942Y-51532286D01*
X181638844Y-51596806D01*
X181733734Y-51640971D01*
X181860775Y-51657250D01*
X181860775Y-51837816D01*
X181787858Y-51832971D01*
X181672922Y-51796190D01*
X181555301Y-51722414D01*
X181480722Y-51619376D01*
X181458102Y-51501061D01*
X181462480Y-51466162D01*
X181468101Y-51409441D01*
X181444558Y-51380023D01*
X181376505Y-51362695D01*
X181354444Y-51359059D01*
X181273160Y-51340813D01*
X181237326Y-51310700D01*
X181229014Y-51252904D01*
X181229000Y-51248369D01*
X181229000Y-51157737D01*
X181602062Y-51232486D01*
G36*
X181298850Y-50062375D02*
X181312888Y-50038000D01*
X181346856Y-50052115D01*
X181426069Y-50090860D01*
X181539822Y-50148835D01*
X181677410Y-50220643D01*
X181725638Y-50246147D01*
X181881610Y-50329733D01*
X181989768Y-50391035D01*
X182058799Y-50436754D01*
X182097390Y-50473589D01*
X182114227Y-50508240D01*
X182117997Y-50547406D01*
X182118000Y-50548768D01*
X182106108Y-50619840D01*
X182078312Y-50655919D01*
X182028858Y-50665143D01*
X181933287Y-50678320D01*
X181808713Y-50693536D01*
X181672247Y-50708874D01*
X181541001Y-50722418D01*
X181432088Y-50732253D01*
X181362619Y-50736463D01*
X181358526Y-50736500D01*
X181309515Y-50721640D01*
X181292978Y-50666050D01*
X181292500Y-50646070D01*
X181294600Y-50602653D01*
X181309098Y-50574483D01*
X181348284Y-50556259D01*
X181424450Y-50542682D01*
X181549890Y-50528452D01*
X181570312Y-50526294D01*
X181848125Y-50496949D01*
X181570312Y-50355649D01*
X181441411Y-50288322D01*
X181359627Y-50239221D01*
X181314529Y-50199730D01*
X181295684Y-50161231D01*
X181292500Y-50126175D01*
X181298850Y-50062375D01*
X181298850Y-50062375D01*
G37*
X181298850Y-50062375D02*
X181312888Y-50038000D01*
X181346856Y-50052115D01*
X181426069Y-50090860D01*
X181539822Y-50148835D01*
X181677410Y-50220643D01*
X181725638Y-50246147D01*
X181881610Y-50329733D01*
X181989768Y-50391035D01*
X182058799Y-50436754D01*
X182097390Y-50473589D01*
X182114227Y-50508240D01*
X182117997Y-50547406D01*
X182118000Y-50548768D01*
X182106108Y-50619840D01*
X182078312Y-50655919D01*
X182028858Y-50665143D01*
X181933287Y-50678320D01*
X181808713Y-50693536D01*
X181672247Y-50708874D01*
X181541001Y-50722418D01*
X181432088Y-50732253D01*
X181362619Y-50736463D01*
X181358526Y-50736500D01*
X181309515Y-50721640D01*
X181292978Y-50666050D01*
X181292500Y-50646070D01*
X181294600Y-50602653D01*
X181309098Y-50574483D01*
X181348284Y-50556259D01*
X181424450Y-50542682D01*
X181549890Y-50528452D01*
X181570312Y-50526294D01*
X181848125Y-50496949D01*
X181570312Y-50355649D01*
X181441411Y-50288322D01*
X181359627Y-50239221D01*
X181314529Y-50199730D01*
X181295684Y-50161231D01*
X181292500Y-50126175D01*
X181298850Y-50062375D01*
G36*
X181484548Y-49855120D02*
X181496318Y-49830717D01*
X181528994Y-49821148D01*
X181593259Y-49825639D01*
X181699798Y-49843420D01*
X181837448Y-49869532D01*
X181970388Y-49895901D01*
X182052894Y-49916933D01*
X182096984Y-49938775D01*
X182114678Y-49967573D01*
X182117995Y-50009475D01*
X182118000Y-50013011D01*
X182110576Y-50075759D01*
X182078130Y-50091385D01*
X182046562Y-50086134D01*
X181973353Y-50069997D01*
X181869745Y-50048168D01*
X181753241Y-50024202D01*
X181641348Y-50001652D01*
X181551568Y-49984075D01*
X181501408Y-49975023D01*
X181496799Y-49974500D01*
X181486413Y-49947250D01*
X181483000Y-49895125D01*
X181484548Y-49855120D01*
X181484548Y-49855120D01*
G37*
X181484548Y-49855120D02*
X181496318Y-49830717D01*
X181528994Y-49821148D01*
X181593259Y-49825639D01*
X181699798Y-49843420D01*
X181837448Y-49869532D01*
X181970388Y-49895901D01*
X182052894Y-49916933D01*
X182096984Y-49938775D01*
X182114678Y-49967573D01*
X182117995Y-50009475D01*
X182118000Y-50013011D01*
X182110576Y-50075759D01*
X182078130Y-50091385D01*
X182046562Y-50086134D01*
X181973353Y-50069997D01*
X181869745Y-50048168D01*
X181753241Y-50024202D01*
X181641348Y-50001652D01*
X181551568Y-49984075D01*
X181501408Y-49975023D01*
X181496799Y-49974500D01*
X181486413Y-49947250D01*
X181483000Y-49895125D01*
X181484548Y-49855120D01*
G36*
X181466579Y-49310233D02*
X181500596Y-49232905D01*
X181543731Y-49212500D01*
X181604511Y-49223401D01*
X181620742Y-49264113D01*
X181599282Y-49342148D01*
X181580509Y-49439033D01*
X181595949Y-49487463D01*
X181642152Y-49531051D01*
X181684511Y-49511929D01*
X181717330Y-49442688D01*
X181775169Y-49321506D01*
X181850261Y-49258171D01*
X181938539Y-49254569D01*
X182022379Y-49301066D01*
X182071987Y-49375184D01*
X182102128Y-49488979D01*
X182108819Y-49620543D01*
X182097186Y-49712563D01*
X182064589Y-49771595D01*
X181998918Y-49780503D01*
X181947165Y-49765187D01*
X181915898Y-49745505D01*
X181923125Y-49710684D01*
X181947017Y-49671772D01*
X181979934Y-49589749D01*
X181981626Y-49508725D01*
X181953217Y-49452362D01*
X181936144Y-49442765D01*
X181901413Y-49461480D01*
X181860472Y-49525391D01*
X181845269Y-49559630D01*
X181783361Y-49661741D01*
X181708448Y-49710339D01*
X181629650Y-49711432D01*
X181556088Y-49671026D01*
X181496885Y-49595129D01*
X181461160Y-49489748D01*
X181458037Y-49360890D01*
X181466579Y-49310233D01*
X181466579Y-49310233D01*
G37*
X181466579Y-49310233D02*
X181500596Y-49232905D01*
X181543731Y-49212500D01*
X181604511Y-49223401D01*
X181620742Y-49264113D01*
X181599282Y-49342148D01*
X181580509Y-49439033D01*
X181595949Y-49487463D01*
X181642152Y-49531051D01*
X181684511Y-49511929D01*
X181717330Y-49442688D01*
X181775169Y-49321506D01*
X181850261Y-49258171D01*
X181938539Y-49254569D01*
X182022379Y-49301066D01*
X182071987Y-49375184D01*
X182102128Y-49488979D01*
X182108819Y-49620543D01*
X182097186Y-49712563D01*
X182064589Y-49771595D01*
X181998918Y-49780503D01*
X181947165Y-49765187D01*
X181915898Y-49745505D01*
X181923125Y-49710684D01*
X181947017Y-49671772D01*
X181979934Y-49589749D01*
X181981626Y-49508725D01*
X181953217Y-49452362D01*
X181936144Y-49442765D01*
X181901413Y-49461480D01*
X181860472Y-49525391D01*
X181845269Y-49559630D01*
X181783361Y-49661741D01*
X181708448Y-49710339D01*
X181629650Y-49711432D01*
X181556088Y-49671026D01*
X181496885Y-49595129D01*
X181461160Y-49489748D01*
X181458037Y-49360890D01*
X181466579Y-49310233D01*
G36*
X181490318Y-48540409D02*
X181522192Y-48523399D01*
X181554437Y-48528021D01*
X181624158Y-48542006D01*
X181729820Y-48562261D01*
X181816375Y-48578437D01*
X181955458Y-48605118D01*
X182043556Y-48626630D01*
X182092270Y-48648516D01*
X182113205Y-48676319D01*
X182117964Y-48715582D01*
X182118000Y-48722515D01*
X182104651Y-48781113D01*
X182079900Y-48799750D01*
X182057810Y-48809122D01*
X182079900Y-48837850D01*
X182112688Y-48908953D01*
X182112580Y-49001538D01*
X182081018Y-49083673D01*
X182068107Y-49099108D01*
X182037177Y-49126010D01*
X182001730Y-49141603D01*
X181950763Y-49145238D01*
X181873271Y-49136264D01*
X181758252Y-49114032D01*
X181594701Y-49077891D01*
X181554437Y-49068764D01*
X181497502Y-49034625D01*
X181483000Y-48969802D01*
X181488843Y-48914724D01*
X181519056Y-48898517D01*
X181586187Y-48908532D01*
X181683602Y-48926012D01*
X181802446Y-48943764D01*
X181840187Y-48948673D01*
X181933110Y-48956471D01*
X181978527Y-48947794D01*
X181990981Y-48919675D01*
X181991000Y-48917895D01*
X181982552Y-48847813D01*
X181949350Y-48800279D01*
X181879607Y-48767329D01*
X181761535Y-48741001D01*
X181718447Y-48733770D01*
X181598675Y-48713268D01*
X181528467Y-48694975D01*
X181494601Y-48671619D01*
X181483853Y-48635928D01*
X181483000Y-48604290D01*
X181490318Y-48540409D01*
X181490318Y-48540409D01*
G37*
X181490318Y-48540409D02*
X181522192Y-48523399D01*
X181554437Y-48528021D01*
X181624158Y-48542006D01*
X181729820Y-48562261D01*
X181816375Y-48578437D01*
X181955458Y-48605118D01*
X182043556Y-48626630D01*
X182092270Y-48648516D01*
X182113205Y-48676319D01*
X182117964Y-48715582D01*
X182118000Y-48722515D01*
X182104651Y-48781113D01*
X182079900Y-48799750D01*
X182057810Y-48809122D01*
X182079900Y-48837850D01*
X182112688Y-48908953D01*
X182112580Y-49001538D01*
X182081018Y-49083673D01*
X182068107Y-49099108D01*
X182037177Y-49126010D01*
X182001730Y-49141603D01*
X181950763Y-49145238D01*
X181873271Y-49136264D01*
X181758252Y-49114032D01*
X181594701Y-49077891D01*
X181554437Y-49068764D01*
X181497502Y-49034625D01*
X181483000Y-48969802D01*
X181488843Y-48914724D01*
X181519056Y-48898517D01*
X181586187Y-48908532D01*
X181683602Y-48926012D01*
X181802446Y-48943764D01*
X181840187Y-48948673D01*
X181933110Y-48956471D01*
X181978527Y-48947794D01*
X181990981Y-48919675D01*
X181991000Y-48917895D01*
X181982552Y-48847813D01*
X181949350Y-48800279D01*
X181879607Y-48767329D01*
X181761535Y-48741001D01*
X181718447Y-48733770D01*
X181598675Y-48713268D01*
X181528467Y-48694975D01*
X181494601Y-48671619D01*
X181483853Y-48635928D01*
X181483000Y-48604290D01*
X181490318Y-48540409D01*
G36*
X181464240Y-48057911D02*
X181464982Y-48053881D01*
X181488570Y-47981286D01*
X181533196Y-47937677D01*
X181609172Y-47920347D01*
X181726813Y-47926587D01*
X181866928Y-47948340D01*
X181987187Y-47971390D01*
X182058446Y-47992086D01*
X182094474Y-48017681D01*
X182109040Y-48055429D01*
X182112171Y-48077525D01*
X182108626Y-48140831D01*
X182087241Y-48164750D01*
X182068271Y-48182349D01*
X182085132Y-48226163D01*
X182116255Y-48335506D01*
X182087071Y-48430102D01*
X182056632Y-48464446D01*
X181982627Y-48503349D01*
X181923388Y-48499904D01*
X181923388Y-48317280D01*
X181938783Y-48313781D01*
X181985419Y-48268891D01*
X181979494Y-48200193D01*
X181966701Y-48176967D01*
X181919785Y-48139930D01*
X181871937Y-48119265D01*
X181817345Y-48112512D01*
X181800725Y-48147236D01*
X181800500Y-48156543D01*
X181819643Y-48236476D01*
X181866095Y-48296297D01*
X181923388Y-48317280D01*
X181923388Y-48499904D01*
X181896806Y-48498358D01*
X181800562Y-48453916D01*
X181734445Y-48365142D01*
X181693046Y-48224329D01*
X181689360Y-48202814D01*
X181665282Y-48111287D01*
X181637193Y-48079486D01*
X181612217Y-48104619D01*
X181597479Y-48183895D01*
X181596120Y-48239337D01*
X181592982Y-48331527D01*
X181576618Y-48375733D01*
X181541996Y-48387000D01*
X181497085Y-48358392D01*
X181466677Y-48283287D01*
X181454489Y-48177766D01*
X181464240Y-48057911D01*
X181464240Y-48057911D01*
G37*
X181464240Y-48057911D02*
X181464982Y-48053881D01*
X181488570Y-47981286D01*
X181533196Y-47937677D01*
X181609172Y-47920347D01*
X181726813Y-47926587D01*
X181866928Y-47948340D01*
X181987187Y-47971390D01*
X182058446Y-47992086D01*
X182094474Y-48017681D01*
X182109040Y-48055429D01*
X182112171Y-48077525D01*
X182108626Y-48140831D01*
X182087241Y-48164750D01*
X182068271Y-48182349D01*
X182085132Y-48226163D01*
X182116255Y-48335506D01*
X182087071Y-48430102D01*
X182056632Y-48464446D01*
X181982627Y-48503349D01*
X181923388Y-48499904D01*
X181923388Y-48317280D01*
X181938783Y-48313781D01*
X181985419Y-48268891D01*
X181979494Y-48200193D01*
X181966701Y-48176967D01*
X181919785Y-48139930D01*
X181871937Y-48119265D01*
X181817345Y-48112512D01*
X181800725Y-48147236D01*
X181800500Y-48156543D01*
X181819643Y-48236476D01*
X181866095Y-48296297D01*
X181923388Y-48317280D01*
X181923388Y-48499904D01*
X181896806Y-48498358D01*
X181800562Y-48453916D01*
X181734445Y-48365142D01*
X181693046Y-48224329D01*
X181689360Y-48202814D01*
X181665282Y-48111287D01*
X181637193Y-48079486D01*
X181612217Y-48104619D01*
X181597479Y-48183895D01*
X181596120Y-48239337D01*
X181592982Y-48331527D01*
X181576618Y-48375733D01*
X181541996Y-48387000D01*
X181497085Y-48358392D01*
X181466677Y-48283287D01*
X181454489Y-48177766D01*
X181464240Y-48057911D01*
G36*
X181259641Y-47501075D02*
X181297935Y-47507771D01*
X181357593Y-47520728D01*
X181464148Y-47542478D01*
X181602125Y-47569908D01*
X181744937Y-47597755D01*
X181902325Y-47628651D01*
X182007748Y-47652121D01*
X182071615Y-47672630D01*
X182104339Y-47694643D01*
X182116330Y-47722625D01*
X182118000Y-47757746D01*
X182112565Y-47816455D01*
X182083475Y-47834405D01*
X182014812Y-47824705D01*
X181940368Y-47809672D01*
X181822220Y-47785911D01*
X181678929Y-47757152D01*
X181578250Y-47736974D01*
X181430800Y-47706715D01*
X181334350Y-47683279D01*
X181277543Y-47661483D01*
X181249025Y-47636143D01*
X181237440Y-47602077D01*
X181234435Y-47580031D01*
X181233175Y-47517415D01*
X181259641Y-47501075D01*
X181259641Y-47501075D01*
G37*
X181259641Y-47501075D02*
X181297935Y-47507771D01*
X181357593Y-47520728D01*
X181464148Y-47542478D01*
X181602125Y-47569908D01*
X181744937Y-47597755D01*
X181902325Y-47628651D01*
X182007748Y-47652121D01*
X182071615Y-47672630D01*
X182104339Y-47694643D01*
X182116330Y-47722625D01*
X182118000Y-47757746D01*
X182112565Y-47816455D01*
X182083475Y-47834405D01*
X182014812Y-47824705D01*
X181940368Y-47809672D01*
X181822220Y-47785911D01*
X181678929Y-47757152D01*
X181578250Y-47736974D01*
X181430800Y-47706715D01*
X181334350Y-47683279D01*
X181277543Y-47661483D01*
X181249025Y-47636143D01*
X181237440Y-47602077D01*
X181234435Y-47580031D01*
X181233175Y-47517415D01*
X181259641Y-47501075D01*
G36*
X181293345Y-46610027D02*
X181298582Y-46534597D01*
X181312258Y-46496753D01*
X181338423Y-46483542D01*
X181371875Y-46482000D01*
X181417671Y-46486654D01*
X181441313Y-46511069D01*
X181450073Y-46570929D01*
X181451250Y-46653229D01*
X181457063Y-46763687D01*
X181476711Y-46824096D01*
X181501471Y-46843729D01*
X181563018Y-46859801D01*
X181595843Y-46840462D01*
X181608511Y-46775055D01*
X181610000Y-46708653D01*
X181612198Y-46616849D01*
X181624431Y-46573697D01*
X181655156Y-46564368D01*
X181689375Y-46569480D01*
X181737661Y-46585478D01*
X181761091Y-46621375D01*
X181768390Y-46695510D01*
X181768750Y-46736305D01*
X181776467Y-46841750D01*
X181801804Y-46896489D01*
X181818971Y-46907229D01*
X181895664Y-46927708D01*
X181938570Y-46909120D01*
X181956618Y-46842587D01*
X181959250Y-46767750D01*
X181963691Y-46667642D01*
X181982549Y-46620073D01*
X182024122Y-46614375D01*
X182067778Y-46628272D01*
X182094083Y-46651590D01*
X182109651Y-46704901D01*
X182116787Y-46800591D01*
X182118000Y-46898147D01*
X182116657Y-47015240D01*
X182113094Y-47103093D01*
X182108004Y-47146578D01*
X182106491Y-47148750D01*
X182072794Y-47142777D01*
X181989122Y-47126471D01*
X181867706Y-47102251D01*
X181720778Y-47072536D01*
X181705250Y-47069375D01*
X181556454Y-47039247D01*
X181431955Y-47014373D01*
X181343985Y-46997172D01*
X181304774Y-46990063D01*
X181304008Y-46990000D01*
X181298663Y-46960757D01*
X181294638Y-46883043D01*
X181292615Y-46771888D01*
X181292500Y-46736000D01*
X181293345Y-46610027D01*
X181293345Y-46610027D01*
G37*
X181293345Y-46610027D02*
X181298582Y-46534597D01*
X181312258Y-46496753D01*
X181338423Y-46483542D01*
X181371875Y-46482000D01*
X181417671Y-46486654D01*
X181441313Y-46511069D01*
X181450073Y-46570929D01*
X181451250Y-46653229D01*
X181457063Y-46763687D01*
X181476711Y-46824096D01*
X181501471Y-46843729D01*
X181563018Y-46859801D01*
X181595843Y-46840462D01*
X181608511Y-46775055D01*
X181610000Y-46708653D01*
X181612198Y-46616849D01*
X181624431Y-46573697D01*
X181655156Y-46564368D01*
X181689375Y-46569480D01*
X181737661Y-46585478D01*
X181761091Y-46621375D01*
X181768390Y-46695510D01*
X181768750Y-46736305D01*
X181776467Y-46841750D01*
X181801804Y-46896489D01*
X181818971Y-46907229D01*
X181895664Y-46927708D01*
X181938570Y-46909120D01*
X181956618Y-46842587D01*
X181959250Y-46767750D01*
X181963691Y-46667642D01*
X181982549Y-46620073D01*
X182024122Y-46614375D01*
X182067778Y-46628272D01*
X182094083Y-46651590D01*
X182109651Y-46704901D01*
X182116787Y-46800591D01*
X182118000Y-46898147D01*
X182116657Y-47015240D01*
X182113094Y-47103093D01*
X182108004Y-47146578D01*
X182106491Y-47148750D01*
X182072794Y-47142777D01*
X181989122Y-47126471D01*
X181867706Y-47102251D01*
X181720778Y-47072536D01*
X181705250Y-47069375D01*
X181556454Y-47039247D01*
X181431955Y-47014373D01*
X181343985Y-46997172D01*
X181304774Y-46990063D01*
X181304008Y-46990000D01*
X181298663Y-46960757D01*
X181294638Y-46883043D01*
X181292615Y-46771888D01*
X181292500Y-46736000D01*
X181293345Y-46610027D01*
G36*
X181243974Y-46182462D02*
X181272258Y-46164500D01*
X181318645Y-46170576D01*
X181413638Y-46187148D01*
X181543685Y-46211730D01*
X181695232Y-46241838D01*
X181705250Y-46243875D01*
X181854045Y-46274004D01*
X181978544Y-46298878D01*
X182066514Y-46316079D01*
X182105725Y-46323188D01*
X182106491Y-46323250D01*
X182115153Y-46350507D01*
X182118000Y-46402625D01*
X182103025Y-46464039D01*
X182074741Y-46482000D01*
X182028354Y-46475925D01*
X181933361Y-46459353D01*
X181803314Y-46434771D01*
X181651767Y-46404663D01*
X181641750Y-46402625D01*
X181492954Y-46372497D01*
X181368455Y-46347623D01*
X181280485Y-46330422D01*
X181241274Y-46323313D01*
X181240508Y-46323250D01*
X181231846Y-46295994D01*
X181229000Y-46243875D01*
X181243974Y-46182462D01*
X181243974Y-46182462D01*
G37*
X181243974Y-46182462D02*
X181272258Y-46164500D01*
X181318645Y-46170576D01*
X181413638Y-46187148D01*
X181543685Y-46211730D01*
X181695232Y-46241838D01*
X181705250Y-46243875D01*
X181854045Y-46274004D01*
X181978544Y-46298878D01*
X182066514Y-46316079D01*
X182105725Y-46323188D01*
X182106491Y-46323250D01*
X182115153Y-46350507D01*
X182118000Y-46402625D01*
X182103025Y-46464039D01*
X182074741Y-46482000D01*
X182028354Y-46475925D01*
X181933361Y-46459353D01*
X181803314Y-46434771D01*
X181651767Y-46404663D01*
X181641750Y-46402625D01*
X181492954Y-46372497D01*
X181368455Y-46347623D01*
X181280485Y-46330422D01*
X181241274Y-46323313D01*
X181240508Y-46323250D01*
X181231846Y-46295994D01*
X181229000Y-46243875D01*
X181243974Y-46182462D01*
G36*
X181462051Y-45708152D02*
X181510226Y-45617940D01*
X181605925Y-45569737D01*
X181690106Y-45561250D01*
X181832250Y-45561250D01*
X181832250Y-45767625D01*
X181836577Y-45889234D01*
X181850573Y-45955459D01*
X181873525Y-45974000D01*
X181942303Y-45947889D01*
X181981085Y-45880923D01*
X181985930Y-45790156D01*
X181952898Y-45692642D01*
X181942498Y-45675494D01*
X181912084Y-45623350D01*
X181925846Y-45609568D01*
X181976613Y-45617264D01*
X182052005Y-45660916D01*
X182100745Y-45746964D01*
X182116964Y-45857802D01*
X182095475Y-45974000D01*
X182039505Y-46068239D01*
X181950720Y-46118763D01*
X181827830Y-46132750D01*
X181676009Y-46106213D01*
X181667830Y-46101023D01*
X181667830Y-45935069D01*
X181694903Y-45916635D01*
X181705202Y-45841228D01*
X181705250Y-45833771D01*
X181695756Y-45751215D01*
X181664720Y-45720668D01*
X181656628Y-45720000D01*
X181604632Y-45743364D01*
X181584920Y-45798921D01*
X181596357Y-45864870D01*
X181637808Y-45919410D01*
X181667830Y-45935069D01*
X181667830Y-46101023D01*
X181557826Y-46031208D01*
X181481911Y-45914650D01*
X181461967Y-45839678D01*
X181462051Y-45708152D01*
X181462051Y-45708152D01*
G37*
X181462051Y-45708152D02*
X181510226Y-45617940D01*
X181605925Y-45569737D01*
X181690106Y-45561250D01*
X181832250Y-45561250D01*
X181832250Y-45767625D01*
X181836577Y-45889234D01*
X181850573Y-45955459D01*
X181873525Y-45974000D01*
X181942303Y-45947889D01*
X181981085Y-45880923D01*
X181985930Y-45790156D01*
X181952898Y-45692642D01*
X181942498Y-45675494D01*
X181912084Y-45623350D01*
X181925846Y-45609568D01*
X181976613Y-45617264D01*
X182052005Y-45660916D01*
X182100745Y-45746964D01*
X182116964Y-45857802D01*
X182095475Y-45974000D01*
X182039505Y-46068239D01*
X181950720Y-46118763D01*
X181827830Y-46132750D01*
X181676009Y-46106213D01*
X181667830Y-46101023D01*
X181667830Y-45935069D01*
X181694903Y-45916635D01*
X181705202Y-45841228D01*
X181705250Y-45833771D01*
X181695756Y-45751215D01*
X181664720Y-45720668D01*
X181656628Y-45720000D01*
X181604632Y-45743364D01*
X181584920Y-45798921D01*
X181596357Y-45864870D01*
X181637808Y-45919410D01*
X181667830Y-45935069D01*
X181667830Y-46101023D01*
X181557826Y-46031208D01*
X181481911Y-45914650D01*
X181461967Y-45839678D01*
X181462051Y-45708152D01*
G36*
X181463390Y-45066400D02*
X181493780Y-44991166D01*
X181550595Y-44958372D01*
X181558522Y-44958000D01*
X181635805Y-44970018D01*
X181654320Y-45006039D01*
X181622181Y-45057332D01*
X181582174Y-45138325D01*
X181599450Y-45217484D01*
X181668651Y-45282565D01*
X181732626Y-45309691D01*
X181854900Y-45327551D01*
X181940939Y-45303390D01*
X181983808Y-45244706D01*
X181976573Y-45158998D01*
X181938265Y-45087341D01*
X181904769Y-45035317D01*
X181915393Y-45021870D01*
X181977888Y-45035232D01*
X182046961Y-45054099D01*
X182081522Y-45078302D01*
X182097525Y-45128251D01*
X182107817Y-45201441D01*
X182108023Y-45306945D01*
X182068672Y-45392515D01*
X182055218Y-45410438D01*
X181965102Y-45478614D01*
X181850507Y-45501873D01*
X181727821Y-45483902D01*
X181613430Y-45428387D01*
X181523721Y-45339015D01*
X181493803Y-45284134D01*
X181462405Y-45169061D01*
X181463390Y-45066400D01*
X181463390Y-45066400D01*
G37*
X181463390Y-45066400D02*
X181493780Y-44991166D01*
X181550595Y-44958372D01*
X181558522Y-44958000D01*
X181635805Y-44970018D01*
X181654320Y-45006039D01*
X181622181Y-45057332D01*
X181582174Y-45138325D01*
X181599450Y-45217484D01*
X181668651Y-45282565D01*
X181732626Y-45309691D01*
X181854900Y-45327551D01*
X181940939Y-45303390D01*
X181983808Y-45244706D01*
X181976573Y-45158998D01*
X181938265Y-45087341D01*
X181904769Y-45035317D01*
X181915393Y-45021870D01*
X181977888Y-45035232D01*
X182046961Y-45054099D01*
X182081522Y-45078302D01*
X182097525Y-45128251D01*
X182107817Y-45201441D01*
X182108023Y-45306945D01*
X182068672Y-45392515D01*
X182055218Y-45410438D01*
X181965102Y-45478614D01*
X181850507Y-45501873D01*
X181727821Y-45483902D01*
X181613430Y-45428387D01*
X181523721Y-45339015D01*
X181493803Y-45284134D01*
X181462405Y-45169061D01*
X181463390Y-45066400D01*
G36*
X181299101Y-44627496D02*
X181331926Y-44611804D01*
X181387750Y-44619863D01*
X181454373Y-44627233D01*
X181479616Y-44603809D01*
X181483000Y-44560332D01*
X181498202Y-44498490D01*
X181546500Y-44481750D01*
X181593789Y-44497555D01*
X181609640Y-44555419D01*
X181610000Y-44572846D01*
X181617799Y-44634335D01*
X181653407Y-44665911D01*
X181729062Y-44683622D01*
X181862117Y-44702000D01*
X181942741Y-44702437D01*
X181979863Y-44683340D01*
X181982413Y-44643116D01*
X181981307Y-44638617D01*
X181979511Y-44590014D01*
X182021284Y-44581580D01*
X182033167Y-44583055D01*
X182082855Y-44605249D01*
X182106592Y-44664739D01*
X182111667Y-44706718D01*
X182102444Y-44813904D01*
X182070290Y-44862820D01*
X182028120Y-44884801D01*
X181964762Y-44888951D01*
X181862788Y-44875669D01*
X181822622Y-44868449D01*
X181699425Y-44850732D01*
X181629572Y-44852919D01*
X181615291Y-44863159D01*
X181580565Y-44890782D01*
X181526974Y-44890940D01*
X181487473Y-44866699D01*
X181483000Y-44850844D01*
X181455462Y-44814709D01*
X181389094Y-44788411D01*
X181387750Y-44788138D01*
X181318442Y-44762918D01*
X181293929Y-44713023D01*
X181292500Y-44684950D01*
X181299101Y-44627496D01*
X181299101Y-44627496D01*
G37*
X181299101Y-44627496D02*
X181331926Y-44611804D01*
X181387750Y-44619863D01*
X181454373Y-44627233D01*
X181479616Y-44603809D01*
X181483000Y-44560332D01*
X181498202Y-44498490D01*
X181546500Y-44481750D01*
X181593789Y-44497555D01*
X181609640Y-44555419D01*
X181610000Y-44572846D01*
X181617799Y-44634335D01*
X181653407Y-44665911D01*
X181729062Y-44683622D01*
X181862117Y-44702000D01*
X181942741Y-44702437D01*
X181979863Y-44683340D01*
X181982413Y-44643116D01*
X181981307Y-44638617D01*
X181979511Y-44590014D01*
X182021284Y-44581580D01*
X182033167Y-44583055D01*
X182082855Y-44605249D01*
X182106592Y-44664739D01*
X182111667Y-44706718D01*
X182102444Y-44813904D01*
X182070290Y-44862820D01*
X182028120Y-44884801D01*
X181964762Y-44888951D01*
X181862788Y-44875669D01*
X181822622Y-44868449D01*
X181699425Y-44850732D01*
X181629572Y-44852919D01*
X181615291Y-44863159D01*
X181580565Y-44890782D01*
X181526974Y-44890940D01*
X181487473Y-44866699D01*
X181483000Y-44850844D01*
X181455462Y-44814709D01*
X181389094Y-44788411D01*
X181387750Y-44788138D01*
X181318442Y-44762918D01*
X181293929Y-44713023D01*
X181292500Y-44684950D01*
X181299101Y-44627496D01*
G36*
X181498002Y-43990711D02*
X181560253Y-43991516D01*
X181586187Y-43996131D01*
X181647176Y-44017935D01*
X181670678Y-44065683D01*
X181673500Y-44118187D01*
X181677244Y-44179211D01*
X181697512Y-44217659D01*
X181747853Y-44243115D01*
X181841815Y-44265161D01*
X181895750Y-44275375D01*
X182011944Y-44299182D01*
X182078728Y-44322030D01*
X182109550Y-44351972D01*
X182117857Y-44397062D01*
X182118000Y-44408484D01*
X182111916Y-44462558D01*
X182081000Y-44478422D01*
X182014812Y-44468942D01*
X181928861Y-44452791D01*
X181808395Y-44431514D01*
X181697312Y-44412695D01*
X181584201Y-44392440D01*
X181520054Y-44373357D01*
X181491022Y-44347297D01*
X181483256Y-44306113D01*
X181483000Y-44286598D01*
X181491797Y-44221746D01*
X181511992Y-44196000D01*
X181522232Y-44170581D01*
X181507870Y-44108452D01*
X181505488Y-44101962D01*
X181482543Y-44023858D01*
X181498002Y-43990711D01*
X181498002Y-43990711D01*
G37*
X181498002Y-43990711D02*
X181560253Y-43991516D01*
X181586187Y-43996131D01*
X181647176Y-44017935D01*
X181670678Y-44065683D01*
X181673500Y-44118187D01*
X181677244Y-44179211D01*
X181697512Y-44217659D01*
X181747853Y-44243115D01*
X181841815Y-44265161D01*
X181895750Y-44275375D01*
X182011944Y-44299182D01*
X182078728Y-44322030D01*
X182109550Y-44351972D01*
X182117857Y-44397062D01*
X182118000Y-44408484D01*
X182111916Y-44462558D01*
X182081000Y-44478422D01*
X182014812Y-44468942D01*
X181928861Y-44452791D01*
X181808395Y-44431514D01*
X181697312Y-44412695D01*
X181584201Y-44392440D01*
X181520054Y-44373357D01*
X181491022Y-44347297D01*
X181483256Y-44306113D01*
X181483000Y-44286598D01*
X181491797Y-44221746D01*
X181511992Y-44196000D01*
X181522232Y-44170581D01*
X181507870Y-44108452D01*
X181505488Y-44101962D01*
X181482543Y-44023858D01*
X181498002Y-43990711D01*
G36*
X181487753Y-43519226D02*
X181535224Y-43449353D01*
X181596569Y-43414338D01*
X181693825Y-43403193D01*
X181721125Y-43402855D01*
X181862450Y-43425561D01*
X181979137Y-43487147D01*
X182064432Y-43576500D01*
X182111581Y-43682511D01*
X182113829Y-43794067D01*
X182064423Y-43900057D01*
X182040068Y-43927569D01*
X181933597Y-43992640D01*
X181834022Y-43997653D01*
X181834022Y-43815000D01*
X181939290Y-43801269D01*
X181990561Y-43763449D01*
X181984733Y-43706599D01*
X181935437Y-43649561D01*
X181849518Y-43599359D01*
X181753262Y-43578177D01*
X181664271Y-43584935D01*
X181600149Y-43618554D01*
X181578250Y-43671442D01*
X181606867Y-43730566D01*
X181680214Y-43780467D01*
X181779536Y-43810619D01*
X181834022Y-43815000D01*
X181834022Y-43997653D01*
X181803733Y-43999178D01*
X181651840Y-43947125D01*
X181646741Y-43944547D01*
X181531836Y-43857118D01*
X181466487Y-43744193D01*
X181455432Y-43618445D01*
X181487753Y-43519226D01*
X181487753Y-43519226D01*
G37*
X181487753Y-43519226D02*
X181535224Y-43449353D01*
X181596569Y-43414338D01*
X181693825Y-43403193D01*
X181721125Y-43402855D01*
X181862450Y-43425561D01*
X181979137Y-43487147D01*
X182064432Y-43576500D01*
X182111581Y-43682511D01*
X182113829Y-43794067D01*
X182064423Y-43900057D01*
X182040068Y-43927569D01*
X181933597Y-43992640D01*
X181834022Y-43997653D01*
X181834022Y-43815000D01*
X181939290Y-43801269D01*
X181990561Y-43763449D01*
X181984733Y-43706599D01*
X181935437Y-43649561D01*
X181849518Y-43599359D01*
X181753262Y-43578177D01*
X181664271Y-43584935D01*
X181600149Y-43618554D01*
X181578250Y-43671442D01*
X181606867Y-43730566D01*
X181680214Y-43780467D01*
X181779536Y-43810619D01*
X181834022Y-43815000D01*
X181834022Y-43997653D01*
X181803733Y-43999178D01*
X181651840Y-43947125D01*
X181646741Y-43944547D01*
X181531836Y-43857118D01*
X181466487Y-43744193D01*
X181455432Y-43618445D01*
X181487753Y-43519226D01*
G36*
X181455304Y-42852179D02*
X181479269Y-42785975D01*
X181489349Y-42773600D01*
X181545843Y-42745081D01*
X181642193Y-42737623D01*
X181785865Y-42751210D01*
X181915901Y-42772739D01*
X182024921Y-42794593D01*
X182085463Y-42815354D01*
X182111728Y-42844096D01*
X182117920Y-42889895D01*
X182118000Y-42901878D01*
X182109886Y-42966188D01*
X182079169Y-42981448D01*
X182062437Y-42977952D01*
X182001921Y-42963328D01*
X181903657Y-42942088D01*
X181820918Y-42925231D01*
X181691064Y-42906967D01*
X181613931Y-42916327D01*
X181584066Y-42955479D01*
X181592496Y-43016120D01*
X181624027Y-43059878D01*
X181694829Y-43092933D01*
X181794088Y-43117221D01*
X181938728Y-43146681D01*
X182032262Y-43168584D01*
X182085831Y-43187936D01*
X182110572Y-43209745D01*
X182117624Y-43239018D01*
X182118000Y-43262817D01*
X182104849Y-43320787D01*
X182081051Y-43338750D01*
X182034982Y-43333063D01*
X181942932Y-43317844D01*
X181821217Y-43295863D01*
X181760280Y-43284342D01*
X181476458Y-43229934D01*
X181492582Y-43109724D01*
X181496165Y-43028007D01*
X181484766Y-42976736D01*
X181479977Y-42971758D01*
X181455036Y-42924772D01*
X181455304Y-42852179D01*
X181455304Y-42852179D01*
G37*
X181455304Y-42852179D02*
X181479269Y-42785975D01*
X181489349Y-42773600D01*
X181545843Y-42745081D01*
X181642193Y-42737623D01*
X181785865Y-42751210D01*
X181915901Y-42772739D01*
X182024921Y-42794593D01*
X182085463Y-42815354D01*
X182111728Y-42844096D01*
X182117920Y-42889895D01*
X182118000Y-42901878D01*
X182109886Y-42966188D01*
X182079169Y-42981448D01*
X182062437Y-42977952D01*
X182001921Y-42963328D01*
X181903657Y-42942088D01*
X181820918Y-42925231D01*
X181691064Y-42906967D01*
X181613931Y-42916327D01*
X181584066Y-42955479D01*
X181592496Y-43016120D01*
X181624027Y-43059878D01*
X181694829Y-43092933D01*
X181794088Y-43117221D01*
X181938728Y-43146681D01*
X182032262Y-43168584D01*
X182085831Y-43187936D01*
X182110572Y-43209745D01*
X182117624Y-43239018D01*
X182118000Y-43262817D01*
X182104849Y-43320787D01*
X182081051Y-43338750D01*
X182034982Y-43333063D01*
X181942932Y-43317844D01*
X181821217Y-43295863D01*
X181760280Y-43284342D01*
X181476458Y-43229934D01*
X181492582Y-43109724D01*
X181496165Y-43028007D01*
X181484766Y-42976736D01*
X181479977Y-42971758D01*
X181455036Y-42924772D01*
X181455304Y-42852179D01*
G36*
X181490454Y-42380526D02*
X181522831Y-42363921D01*
X181554437Y-42368521D01*
X181624158Y-42382506D01*
X181729820Y-42402761D01*
X181816375Y-42418937D01*
X181955458Y-42445618D01*
X182043556Y-42467130D01*
X182092270Y-42489016D01*
X182113205Y-42516819D01*
X182117964Y-42556082D01*
X182118000Y-42563015D01*
X182110269Y-42621698D01*
X182096014Y-42640250D01*
X182057035Y-42634992D01*
X181970558Y-42620876D01*
X181851563Y-42600394D01*
X181778514Y-42587466D01*
X181641298Y-42562225D01*
X181554891Y-42542190D01*
X181507546Y-42521658D01*
X181487518Y-42494926D01*
X181483058Y-42456291D01*
X181483000Y-42443987D01*
X181490454Y-42380526D01*
X181490454Y-42380526D01*
G37*
X181490454Y-42380526D02*
X181522831Y-42363921D01*
X181554437Y-42368521D01*
X181624158Y-42382506D01*
X181729820Y-42402761D01*
X181816375Y-42418937D01*
X181955458Y-42445618D01*
X182043556Y-42467130D01*
X182092270Y-42489016D01*
X182113205Y-42516819D01*
X182117964Y-42556082D01*
X182118000Y-42563015D01*
X182110269Y-42621698D01*
X182096014Y-42640250D01*
X182057035Y-42634992D01*
X181970558Y-42620876D01*
X181851563Y-42600394D01*
X181778514Y-42587466D01*
X181641298Y-42562225D01*
X181554891Y-42542190D01*
X181507546Y-42521658D01*
X181487518Y-42494926D01*
X181483058Y-42456291D01*
X181483000Y-42443987D01*
X181490454Y-42380526D01*
G36*
X181463390Y-41859650D02*
X181493780Y-41784416D01*
X181550595Y-41751622D01*
X181558522Y-41751250D01*
X181635805Y-41763268D01*
X181654320Y-41799289D01*
X181622181Y-41850582D01*
X181582174Y-41931575D01*
X181599450Y-42010734D01*
X181668651Y-42075815D01*
X181732626Y-42102941D01*
X181854900Y-42120801D01*
X181940939Y-42096640D01*
X181983808Y-42037956D01*
X181976573Y-41952248D01*
X181938265Y-41880591D01*
X181904769Y-41828567D01*
X181915393Y-41815120D01*
X181977888Y-41828482D01*
X182046961Y-41847349D01*
X182081522Y-41871552D01*
X182097525Y-41921501D01*
X182107817Y-41994691D01*
X182108023Y-42100195D01*
X182068672Y-42185765D01*
X182055218Y-42203688D01*
X181965102Y-42271864D01*
X181850507Y-42295123D01*
X181727821Y-42277152D01*
X181613430Y-42221637D01*
X181523721Y-42132265D01*
X181493803Y-42077384D01*
X181462405Y-41962311D01*
X181463390Y-41859650D01*
X181463390Y-41859650D01*
G37*
X181463390Y-41859650D02*
X181493780Y-41784416D01*
X181550595Y-41751622D01*
X181558522Y-41751250D01*
X181635805Y-41763268D01*
X181654320Y-41799289D01*
X181622181Y-41850582D01*
X181582174Y-41931575D01*
X181599450Y-42010734D01*
X181668651Y-42075815D01*
X181732626Y-42102941D01*
X181854900Y-42120801D01*
X181940939Y-42096640D01*
X181983808Y-42037956D01*
X181976573Y-41952248D01*
X181938265Y-41880591D01*
X181904769Y-41828567D01*
X181915393Y-41815120D01*
X181977888Y-41828482D01*
X182046961Y-41847349D01*
X182081522Y-41871552D01*
X182097525Y-41921501D01*
X182107817Y-41994691D01*
X182108023Y-42100195D01*
X182068672Y-42185765D01*
X182055218Y-42203688D01*
X181965102Y-42271864D01*
X181850507Y-42295123D01*
X181727821Y-42277152D01*
X181613430Y-42221637D01*
X181523721Y-42132265D01*
X181493803Y-42077384D01*
X181462405Y-41962311D01*
X181463390Y-41859650D01*
G36*
X181464485Y-41323270D02*
X181466543Y-41310193D01*
X181484749Y-41232149D01*
X181512606Y-41201948D01*
X181563574Y-41203959D01*
X181616630Y-41222688D01*
X181617130Y-41259865D01*
X181607258Y-41280122D01*
X181585086Y-41355441D01*
X181586547Y-41434796D01*
X181608442Y-41494790D01*
X181639104Y-41513125D01*
X181679168Y-41486052D01*
X181713895Y-41420636D01*
X181714804Y-41417875D01*
X181746544Y-41337159D01*
X181776900Y-41282938D01*
X181839625Y-41248509D01*
X181926250Y-41248766D01*
X182009123Y-41281319D01*
X182037459Y-41305462D01*
X182075563Y-41379886D01*
X182100843Y-41489378D01*
X182108998Y-41606077D01*
X182097726Y-41695688D01*
X182053757Y-41740852D01*
X181985020Y-41751250D01*
X181919465Y-41748258D01*
X181907734Y-41727617D01*
X181940483Y-41671832D01*
X181941655Y-41670044D01*
X181975239Y-41590693D01*
X181983801Y-41508264D01*
X181968297Y-41443684D01*
X181930145Y-41417875D01*
X181890081Y-41444949D01*
X181855354Y-41510365D01*
X181854445Y-41513125D01*
X181811066Y-41617354D01*
X181758284Y-41671201D01*
X181682713Y-41687659D01*
X181674533Y-41687750D01*
X181574431Y-41659733D01*
X181502209Y-41582664D01*
X181463637Y-41467018D01*
X181464485Y-41323270D01*
X181464485Y-41323270D01*
G37*
X181464485Y-41323270D02*
X181466543Y-41310193D01*
X181484749Y-41232149D01*
X181512606Y-41201948D01*
X181563574Y-41203959D01*
X181616630Y-41222688D01*
X181617130Y-41259865D01*
X181607258Y-41280122D01*
X181585086Y-41355441D01*
X181586547Y-41434796D01*
X181608442Y-41494790D01*
X181639104Y-41513125D01*
X181679168Y-41486052D01*
X181713895Y-41420636D01*
X181714804Y-41417875D01*
X181746544Y-41337159D01*
X181776900Y-41282938D01*
X181839625Y-41248509D01*
X181926250Y-41248766D01*
X182009123Y-41281319D01*
X182037459Y-41305462D01*
X182075563Y-41379886D01*
X182100843Y-41489378D01*
X182108998Y-41606077D01*
X182097726Y-41695688D01*
X182053757Y-41740852D01*
X181985020Y-41751250D01*
X181919465Y-41748258D01*
X181907734Y-41727617D01*
X181940483Y-41671832D01*
X181941655Y-41670044D01*
X181975239Y-41590693D01*
X181983801Y-41508264D01*
X181968297Y-41443684D01*
X181930145Y-41417875D01*
X181890081Y-41444949D01*
X181855354Y-41510365D01*
X181854445Y-41513125D01*
X181811066Y-41617354D01*
X181758284Y-41671201D01*
X181682713Y-41687659D01*
X181674533Y-41687750D01*
X181574431Y-41659733D01*
X181502209Y-41582664D01*
X181463637Y-41467018D01*
X181464485Y-41323270D01*
G36*
X181236076Y-49777641D02*
X181266446Y-49756005D01*
X181300437Y-49757980D01*
X181359626Y-49788443D01*
X181381921Y-49855438D01*
X181380669Y-49918775D01*
X181345318Y-49940940D01*
X181310483Y-49942750D01*
X181252817Y-49933212D01*
X181231300Y-49891675D01*
X181229000Y-49845292D01*
X181236076Y-49777641D01*
X181236076Y-49777641D01*
G37*
X181236076Y-49777641D02*
X181266446Y-49756005D01*
X181300437Y-49757980D01*
X181359626Y-49788443D01*
X181381921Y-49855438D01*
X181380669Y-49918775D01*
X181345318Y-49940940D01*
X181310483Y-49942750D01*
X181252817Y-49933212D01*
X181231300Y-49891675D01*
X181229000Y-49845292D01*
X181236076Y-49777641D01*
G36*
X181236824Y-42325500D02*
X181272344Y-42310055D01*
X181308375Y-42314980D01*
X181367580Y-42340851D01*
X181387169Y-42400530D01*
X181387750Y-42421702D01*
X181378988Y-42486974D01*
X181358596Y-42513250D01*
X181273499Y-42488943D01*
X181232037Y-42420106D01*
X181229000Y-42387256D01*
X181236824Y-42325500D01*
X181236824Y-42325500D01*
G37*
X181236824Y-42325500D02*
X181272344Y-42310055D01*
X181308375Y-42314980D01*
X181367580Y-42340851D01*
X181387169Y-42400530D01*
X181387750Y-42421702D01*
X181378988Y-42486974D01*
X181358596Y-42513250D01*
X181273499Y-42488943D01*
X181232037Y-42420106D01*
X181229000Y-42387256D01*
X181236824Y-42325500D01*
G36*
X178220275Y-52222245D02*
X178223025Y-51872933D01*
X178227816Y-51554458D01*
X178234724Y-51276253D01*
X178241976Y-51085750D01*
X178271230Y-50538018D01*
X178305641Y-50042745D01*
X178344999Y-49601826D01*
X178389092Y-49217155D01*
X178437709Y-48890628D01*
X178490641Y-48624138D01*
X178533773Y-48462441D01*
X178589906Y-48313900D01*
X178646709Y-48227914D01*
X178703698Y-48203549D01*
X178760392Y-48239871D01*
X178816307Y-48335944D01*
X178870959Y-48490836D01*
X178923866Y-48703611D01*
X178974545Y-48973335D01*
X179022513Y-49299074D01*
X179040573Y-49442688D01*
X179058538Y-49584507D01*
X179073965Y-49674778D01*
X179091075Y-49725091D01*
X179114087Y-49747036D01*
X179147223Y-49752206D01*
X179153295Y-49752250D01*
X179228750Y-49752250D01*
X179228750Y-50852594D01*
X179389922Y-50889797D01*
X179483760Y-50911993D01*
X179550897Y-50923014D01*
X179595778Y-50914761D01*
X179622848Y-50879137D01*
X179636551Y-50808045D01*
X179641333Y-50693387D01*
X179641638Y-50527065D01*
X179641499Y-50431479D01*
X179642573Y-50237432D01*
X179646203Y-50099591D01*
X179653003Y-50010687D01*
X179663585Y-49963455D01*
X179678563Y-49950629D01*
X179682002Y-49951499D01*
X179733770Y-49966140D01*
X179825048Y-49987680D01*
X179904252Y-50004772D01*
X180086000Y-50042503D01*
X180086000Y-51048911D01*
X180316187Y-51100384D01*
X180436730Y-51127897D01*
X180537978Y-51152009D01*
X180599381Y-51167815D01*
X180601937Y-51168568D01*
X180622125Y-51170404D01*
X180636748Y-51156286D01*
X180646695Y-51117768D01*
X180652852Y-51046402D01*
X180656108Y-50933741D01*
X180657351Y-50771340D01*
X180657500Y-50639993D01*
X180658456Y-50435093D01*
X180661682Y-50286656D01*
X180667716Y-50187665D01*
X180677092Y-50131108D01*
X180690347Y-50109970D01*
X180698002Y-50110249D01*
X180749770Y-50124890D01*
X180841048Y-50146430D01*
X180920252Y-50163522D01*
X181102000Y-50201253D01*
X181102000Y-51040377D01*
X181101345Y-51304738D01*
X181099202Y-51511291D01*
X181095302Y-51665717D01*
X181089376Y-51773695D01*
X181081153Y-51840905D01*
X181070366Y-51873028D01*
X181062312Y-51877817D01*
X181022365Y-51870417D01*
X180928623Y-51850303D01*
X180789112Y-51819281D01*
X180611854Y-51779158D01*
X180404872Y-51731741D01*
X180176191Y-51678836D01*
X180101875Y-51661541D01*
X179181125Y-51446949D01*
X179171009Y-51575197D01*
X179164590Y-51652891D01*
X179162218Y-51717548D01*
X179168927Y-51773763D01*
X179189752Y-51826130D01*
X179229727Y-51879246D01*
X179293889Y-51937703D01*
X179387270Y-52006098D01*
X179514907Y-52089024D01*
X179681834Y-52191076D01*
X179893086Y-52316850D01*
X180150454Y-52469019D01*
X181101999Y-53031950D01*
X181102000Y-53376475D01*
X181099954Y-53515813D01*
X181094411Y-53628165D01*
X181086263Y-53700621D01*
X181078187Y-53721208D01*
X181036551Y-53725436D01*
X180943054Y-53737039D01*
X180807104Y-53754722D01*
X180638109Y-53777194D01*
X180445476Y-53803160D01*
X180238614Y-53831328D01*
X180026930Y-53860403D01*
X179819832Y-53889094D01*
X179626727Y-53916105D01*
X179457025Y-53940145D01*
X179320132Y-53959920D01*
X179246554Y-53970968D01*
X179246554Y-53335475D01*
X179332020Y-53331306D01*
X179455657Y-53322245D01*
X179605010Y-53309495D01*
X179767627Y-53294260D01*
X179931053Y-53277745D01*
X180082833Y-53261152D01*
X180210515Y-53245686D01*
X180301644Y-53232551D01*
X180340000Y-53224484D01*
X180366022Y-53206884D01*
X180337428Y-53180544D01*
X180324125Y-53172770D01*
X180277029Y-53146321D01*
X180184456Y-53094511D01*
X180056380Y-53022915D01*
X179902776Y-52937111D01*
X179736750Y-52844421D01*
X179212875Y-52552032D01*
X179203925Y-52934421D01*
X179201774Y-53083739D01*
X179202507Y-53208658D01*
X179205874Y-53296215D01*
X179211620Y-53333448D01*
X179211714Y-53333548D01*
X179246554Y-53335475D01*
X179246554Y-53970968D01*
X179225456Y-53974136D01*
X179182406Y-53981500D01*
X179180814Y-53982042D01*
X179177035Y-54015203D01*
X179171786Y-54100066D01*
X179165681Y-54224864D01*
X179159338Y-54377832D01*
X179157481Y-54427438D01*
X179151782Y-54602489D01*
X179150200Y-54723760D01*
X179153544Y-54800885D01*
X179162619Y-54843496D01*
X179178234Y-54861229D01*
X179194053Y-54864000D01*
X179237981Y-54859781D01*
X179336403Y-54847855D01*
X179480929Y-54829319D01*
X179663165Y-54805271D01*
X179874720Y-54776808D01*
X180107203Y-54745027D01*
X180165374Y-54737000D01*
X180399022Y-54704746D01*
X180611382Y-54675507D01*
X180794564Y-54650366D01*
X180940676Y-54630401D01*
X181041828Y-54616693D01*
X181090128Y-54610322D01*
X181093093Y-54610000D01*
X181096867Y-54639486D01*
X181099848Y-54718890D01*
X181101648Y-54834630D01*
X181102000Y-54921011D01*
X181102000Y-55232022D01*
X180982937Y-55238569D01*
X180864308Y-55248629D01*
X180744978Y-55263709D01*
X180743911Y-55263876D01*
X180623947Y-55282636D01*
X180632786Y-55699909D01*
X180641625Y-56117181D01*
X181100793Y-56372125D01*
X181101396Y-56695423D01*
X181102000Y-57018721D01*
X180193331Y-56475427D01*
X180193331Y-55848250D01*
X180202309Y-55818962D01*
X180209137Y-55740921D01*
X180212717Y-55628869D01*
X180213000Y-55584313D01*
X180213000Y-55320375D01*
X179839937Y-55362514D01*
X179692159Y-55379600D01*
X179567996Y-55394695D01*
X179480761Y-55406130D01*
X179444041Y-55412140D01*
X179462177Y-55428903D01*
X179524068Y-55469592D01*
X179617929Y-55527348D01*
X179731976Y-55595313D01*
X179854425Y-55666626D01*
X179973492Y-55734431D01*
X180077392Y-55791867D01*
X180154342Y-55832076D01*
X180192556Y-55848199D01*
X180193331Y-55848250D01*
X180193331Y-56475427D01*
X180094385Y-56416267D01*
X179866087Y-56280531D01*
X179655535Y-56156816D01*
X179468760Y-56048553D01*
X179311790Y-55959174D01*
X179190656Y-55892108D01*
X179111387Y-55850786D01*
X179080012Y-55838639D01*
X179079766Y-55838969D01*
X179073305Y-55878461D01*
X179060739Y-55968054D01*
X179043823Y-56094840D01*
X179024310Y-56245908D01*
X179022393Y-56260998D01*
X178976851Y-56586458D01*
X178930420Y-56851014D01*
X178882548Y-57057257D01*
X178832685Y-57207783D01*
X178811733Y-57253614D01*
X178751825Y-57340329D01*
X178716578Y-57354883D01*
X178716578Y-56596440D01*
X178721239Y-56594073D01*
X178752244Y-56545335D01*
X178787000Y-56437458D01*
X178824410Y-56274620D01*
X178863379Y-56060997D01*
X178867034Y-56038750D01*
X178891057Y-55889018D01*
X178904342Y-55790252D01*
X178906267Y-55730729D01*
X178896216Y-55698727D01*
X178873568Y-55682524D01*
X178847750Y-55673625D01*
X178820167Y-55660128D01*
X178801952Y-55632881D01*
X178791186Y-55580423D01*
X178785949Y-55491289D01*
X178784322Y-55354018D01*
X178784250Y-55294455D01*
X178784250Y-54935438D01*
X178874692Y-54917349D01*
X178920495Y-54905017D01*
X178948992Y-54881164D01*
X178966169Y-54831634D01*
X178978013Y-54742271D01*
X178985817Y-54654590D01*
X178996494Y-54498650D01*
X179003964Y-54332943D01*
X179006500Y-54204861D01*
X179006500Y-53999803D01*
X178895375Y-54012776D01*
X178784250Y-54025750D01*
X178784250Y-53409082D01*
X178911250Y-53387625D01*
X179038250Y-53366169D01*
X179038250Y-52452291D01*
X178911250Y-52387500D01*
X178784250Y-52322710D01*
X178784250Y-51659392D01*
X178895375Y-51724957D01*
X179006500Y-51790523D01*
X179006500Y-51406128D01*
X178784250Y-51364434D01*
X178784250Y-50526592D01*
X178784578Y-50272738D01*
X178785847Y-50075418D01*
X178788483Y-49927670D01*
X178792912Y-49822530D01*
X178799561Y-49753034D01*
X178808855Y-49712220D01*
X178821221Y-49693124D01*
X178835533Y-49688750D01*
X178863621Y-49680065D01*
X178874803Y-49644606D01*
X178871296Y-49568266D01*
X178864211Y-49506188D01*
X178840507Y-49365232D01*
X178806889Y-49228916D01*
X178768235Y-49112213D01*
X178729422Y-49030097D01*
X178698771Y-48998260D01*
X178663350Y-49018384D01*
X178626992Y-49098854D01*
X178590244Y-49236534D01*
X178553652Y-49428289D01*
X178517761Y-49670981D01*
X178483118Y-49961474D01*
X178450267Y-50296632D01*
X178429424Y-50546000D01*
X178418806Y-50721564D01*
X178409723Y-50952063D01*
X178402174Y-51228951D01*
X178396161Y-51543682D01*
X178391684Y-51887710D01*
X178388747Y-52252489D01*
X178387348Y-52629473D01*
X178387491Y-53010115D01*
X178389175Y-53385870D01*
X178392402Y-53748191D01*
X178397173Y-54088532D01*
X178403489Y-54398347D01*
X178411352Y-54669090D01*
X178420763Y-54892214D01*
X178428806Y-55022750D01*
X178458114Y-55373441D01*
X178490740Y-55687739D01*
X178525978Y-55961842D01*
X178563119Y-56191952D01*
X178601457Y-56374267D01*
X178640285Y-56504987D01*
X178678894Y-56580311D01*
X178716578Y-56596440D01*
X178716578Y-57354883D01*
X178692978Y-57364628D01*
X178635472Y-57327588D01*
X178579590Y-57230288D01*
X178525612Y-57073804D01*
X178473820Y-56859217D01*
X178424496Y-56587603D01*
X178377921Y-56260042D01*
X178334377Y-55877610D01*
X178294144Y-55441387D01*
X178274904Y-55197375D01*
X178262685Y-54994988D01*
X178251827Y-54738546D01*
X178242405Y-54437481D01*
X178234496Y-54101227D01*
X178228174Y-53739216D01*
X178223516Y-53360879D01*
X178220596Y-52975650D01*
X178219491Y-52592962D01*
X178220275Y-52222245D01*
X178220275Y-52222245D01*
G37*
X178220275Y-52222245D02*
X178223025Y-51872933D01*
X178227816Y-51554458D01*
X178234724Y-51276253D01*
X178241976Y-51085750D01*
X178271230Y-50538018D01*
X178305641Y-50042745D01*
X178344999Y-49601826D01*
X178389092Y-49217155D01*
X178437709Y-48890628D01*
X178490641Y-48624138D01*
X178533773Y-48462441D01*
X178589906Y-48313900D01*
X178646709Y-48227914D01*
X178703698Y-48203549D01*
X178760392Y-48239871D01*
X178816307Y-48335944D01*
X178870959Y-48490836D01*
X178923866Y-48703611D01*
X178974545Y-48973335D01*
X179022513Y-49299074D01*
X179040573Y-49442688D01*
X179058538Y-49584507D01*
X179073965Y-49674778D01*
X179091075Y-49725091D01*
X179114087Y-49747036D01*
X179147223Y-49752206D01*
X179153295Y-49752250D01*
X179228750Y-49752250D01*
X179228750Y-50852594D01*
X179389922Y-50889797D01*
X179483760Y-50911993D01*
X179550897Y-50923014D01*
X179595778Y-50914761D01*
X179622848Y-50879137D01*
X179636551Y-50808045D01*
X179641333Y-50693387D01*
X179641638Y-50527065D01*
X179641499Y-50431479D01*
X179642573Y-50237432D01*
X179646203Y-50099591D01*
X179653003Y-50010687D01*
X179663585Y-49963455D01*
X179678563Y-49950629D01*
X179682002Y-49951499D01*
X179733770Y-49966140D01*
X179825048Y-49987680D01*
X179904252Y-50004772D01*
X180086000Y-50042503D01*
X180086000Y-51048911D01*
X180316187Y-51100384D01*
X180436730Y-51127897D01*
X180537978Y-51152009D01*
X180599381Y-51167815D01*
X180601937Y-51168568D01*
X180622125Y-51170404D01*
X180636748Y-51156286D01*
X180646695Y-51117768D01*
X180652852Y-51046402D01*
X180656108Y-50933741D01*
X180657351Y-50771340D01*
X180657500Y-50639993D01*
X180658456Y-50435093D01*
X180661682Y-50286656D01*
X180667716Y-50187665D01*
X180677092Y-50131108D01*
X180690347Y-50109970D01*
X180698002Y-50110249D01*
X180749770Y-50124890D01*
X180841048Y-50146430D01*
X180920252Y-50163522D01*
X181102000Y-50201253D01*
X181102000Y-51040377D01*
X181101345Y-51304738D01*
X181099202Y-51511291D01*
X181095302Y-51665717D01*
X181089376Y-51773695D01*
X181081153Y-51840905D01*
X181070366Y-51873028D01*
X181062312Y-51877817D01*
X181022365Y-51870417D01*
X180928623Y-51850303D01*
X180789112Y-51819281D01*
X180611854Y-51779158D01*
X180404872Y-51731741D01*
X180176191Y-51678836D01*
X180101875Y-51661541D01*
X179181125Y-51446949D01*
X179171009Y-51575197D01*
X179164590Y-51652891D01*
X179162218Y-51717548D01*
X179168927Y-51773763D01*
X179189752Y-51826130D01*
X179229727Y-51879246D01*
X179293889Y-51937703D01*
X179387270Y-52006098D01*
X179514907Y-52089024D01*
X179681834Y-52191076D01*
X179893086Y-52316850D01*
X180150454Y-52469019D01*
X181101999Y-53031950D01*
X181102000Y-53376475D01*
X181099954Y-53515813D01*
X181094411Y-53628165D01*
X181086263Y-53700621D01*
X181078187Y-53721208D01*
X181036551Y-53725436D01*
X180943054Y-53737039D01*
X180807104Y-53754722D01*
X180638109Y-53777194D01*
X180445476Y-53803160D01*
X180238614Y-53831328D01*
X180026930Y-53860403D01*
X179819832Y-53889094D01*
X179626727Y-53916105D01*
X179457025Y-53940145D01*
X179320132Y-53959920D01*
X179246554Y-53970968D01*
X179246554Y-53335475D01*
X179332020Y-53331306D01*
X179455657Y-53322245D01*
X179605010Y-53309495D01*
X179767627Y-53294260D01*
X179931053Y-53277745D01*
X180082833Y-53261152D01*
X180210515Y-53245686D01*
X180301644Y-53232551D01*
X180340000Y-53224484D01*
X180366022Y-53206884D01*
X180337428Y-53180544D01*
X180324125Y-53172770D01*
X180277029Y-53146321D01*
X180184456Y-53094511D01*
X180056380Y-53022915D01*
X179902776Y-52937111D01*
X179736750Y-52844421D01*
X179212875Y-52552032D01*
X179203925Y-52934421D01*
X179201774Y-53083739D01*
X179202507Y-53208658D01*
X179205874Y-53296215D01*
X179211620Y-53333448D01*
X179211714Y-53333548D01*
X179246554Y-53335475D01*
X179246554Y-53970968D01*
X179225456Y-53974136D01*
X179182406Y-53981500D01*
X179180814Y-53982042D01*
X179177035Y-54015203D01*
X179171786Y-54100066D01*
X179165681Y-54224864D01*
X179159338Y-54377832D01*
X179157481Y-54427438D01*
X179151782Y-54602489D01*
X179150200Y-54723760D01*
X179153544Y-54800885D01*
X179162619Y-54843496D01*
X179178234Y-54861229D01*
X179194053Y-54864000D01*
X179237981Y-54859781D01*
X179336403Y-54847855D01*
X179480929Y-54829319D01*
X179663165Y-54805271D01*
X179874720Y-54776808D01*
X180107203Y-54745027D01*
X180165374Y-54737000D01*
X180399022Y-54704746D01*
X180611382Y-54675507D01*
X180794564Y-54650366D01*
X180940676Y-54630401D01*
X181041828Y-54616693D01*
X181090128Y-54610322D01*
X181093093Y-54610000D01*
X181096867Y-54639486D01*
X181099848Y-54718890D01*
X181101648Y-54834630D01*
X181102000Y-54921011D01*
X181102000Y-55232022D01*
X180982937Y-55238569D01*
X180864308Y-55248629D01*
X180744978Y-55263709D01*
X180743911Y-55263876D01*
X180623947Y-55282636D01*
X180632786Y-55699909D01*
X180641625Y-56117181D01*
X181100793Y-56372125D01*
X181101396Y-56695423D01*
X181102000Y-57018721D01*
X180193331Y-56475427D01*
X180193331Y-55848250D01*
X180202309Y-55818962D01*
X180209137Y-55740921D01*
X180212717Y-55628869D01*
X180213000Y-55584313D01*
X180213000Y-55320375D01*
X179839937Y-55362514D01*
X179692159Y-55379600D01*
X179567996Y-55394695D01*
X179480761Y-55406130D01*
X179444041Y-55412140D01*
X179462177Y-55428903D01*
X179524068Y-55469592D01*
X179617929Y-55527348D01*
X179731976Y-55595313D01*
X179854425Y-55666626D01*
X179973492Y-55734431D01*
X180077392Y-55791867D01*
X180154342Y-55832076D01*
X180192556Y-55848199D01*
X180193331Y-55848250D01*
X180193331Y-56475427D01*
X180094385Y-56416267D01*
X179866087Y-56280531D01*
X179655535Y-56156816D01*
X179468760Y-56048553D01*
X179311790Y-55959174D01*
X179190656Y-55892108D01*
X179111387Y-55850786D01*
X179080012Y-55838639D01*
X179079766Y-55838969D01*
X179073305Y-55878461D01*
X179060739Y-55968054D01*
X179043823Y-56094840D01*
X179024310Y-56245908D01*
X179022393Y-56260998D01*
X178976851Y-56586458D01*
X178930420Y-56851014D01*
X178882548Y-57057257D01*
X178832685Y-57207783D01*
X178811733Y-57253614D01*
X178751825Y-57340329D01*
X178716578Y-57354883D01*
X178716578Y-56596440D01*
X178721239Y-56594073D01*
X178752244Y-56545335D01*
X178787000Y-56437458D01*
X178824410Y-56274620D01*
X178863379Y-56060997D01*
X178867034Y-56038750D01*
X178891057Y-55889018D01*
X178904342Y-55790252D01*
X178906267Y-55730729D01*
X178896216Y-55698727D01*
X178873568Y-55682524D01*
X178847750Y-55673625D01*
X178820167Y-55660128D01*
X178801952Y-55632881D01*
X178791186Y-55580423D01*
X178785949Y-55491289D01*
X178784322Y-55354018D01*
X178784250Y-55294455D01*
X178784250Y-54935438D01*
X178874692Y-54917349D01*
X178920495Y-54905017D01*
X178948992Y-54881164D01*
X178966169Y-54831634D01*
X178978013Y-54742271D01*
X178985817Y-54654590D01*
X178996494Y-54498650D01*
X179003964Y-54332943D01*
X179006500Y-54204861D01*
X179006500Y-53999803D01*
X178895375Y-54012776D01*
X178784250Y-54025750D01*
X178784250Y-53409082D01*
X178911250Y-53387625D01*
X179038250Y-53366169D01*
X179038250Y-52452291D01*
X178911250Y-52387500D01*
X178784250Y-52322710D01*
X178784250Y-51659392D01*
X178895375Y-51724957D01*
X179006500Y-51790523D01*
X179006500Y-51406128D01*
X178784250Y-51364434D01*
X178784250Y-50526592D01*
X178784578Y-50272738D01*
X178785847Y-50075418D01*
X178788483Y-49927670D01*
X178792912Y-49822530D01*
X178799561Y-49753034D01*
X178808855Y-49712220D01*
X178821221Y-49693124D01*
X178835533Y-49688750D01*
X178863621Y-49680065D01*
X178874803Y-49644606D01*
X178871296Y-49568266D01*
X178864211Y-49506188D01*
X178840507Y-49365232D01*
X178806889Y-49228916D01*
X178768235Y-49112213D01*
X178729422Y-49030097D01*
X178698771Y-48998260D01*
X178663350Y-49018384D01*
X178626992Y-49098854D01*
X178590244Y-49236534D01*
X178553652Y-49428289D01*
X178517761Y-49670981D01*
X178483118Y-49961474D01*
X178450267Y-50296632D01*
X178429424Y-50546000D01*
X178418806Y-50721564D01*
X178409723Y-50952063D01*
X178402174Y-51228951D01*
X178396161Y-51543682D01*
X178391684Y-51887710D01*
X178388747Y-52252489D01*
X178387348Y-52629473D01*
X178387491Y-53010115D01*
X178389175Y-53385870D01*
X178392402Y-53748191D01*
X178397173Y-54088532D01*
X178403489Y-54398347D01*
X178411352Y-54669090D01*
X178420763Y-54892214D01*
X178428806Y-55022750D01*
X178458114Y-55373441D01*
X178490740Y-55687739D01*
X178525978Y-55961842D01*
X178563119Y-56191952D01*
X178601457Y-56374267D01*
X178640285Y-56504987D01*
X178678894Y-56580311D01*
X178716578Y-56596440D01*
X178716578Y-57354883D01*
X178692978Y-57364628D01*
X178635472Y-57327588D01*
X178579590Y-57230288D01*
X178525612Y-57073804D01*
X178473820Y-56859217D01*
X178424496Y-56587603D01*
X178377921Y-56260042D01*
X178334377Y-55877610D01*
X178294144Y-55441387D01*
X178274904Y-55197375D01*
X178262685Y-54994988D01*
X178251827Y-54738546D01*
X178242405Y-54437481D01*
X178234496Y-54101227D01*
X178228174Y-53739216D01*
X178223516Y-53360879D01*
X178220596Y-52975650D01*
X178219491Y-52592962D01*
X178220275Y-52222245D01*
D15*
X119042381Y-67317714D02*
X119756667Y-67317714D01*
X119899524Y-67365334D01*
X119994762Y-67460572D01*
X120042381Y-67603429D01*
X120042381Y-67698667D01*
X120042381Y-66841524D02*
X119042381Y-66841524D01*
X119042381Y-66460571D01*
X119090000Y-66365333D01*
X119137619Y-66317714D01*
X119232857Y-66270095D01*
X119375714Y-66270095D01*
X119470952Y-66317714D01*
X119518571Y-66365333D01*
X119566190Y-66460571D01*
X119566190Y-66841524D01*
X119042381Y-65936762D02*
X119042381Y-65317714D01*
X119423333Y-65651048D01*
X119423333Y-65508190D01*
X119470952Y-65412952D01*
X119518571Y-65365333D01*
X119613810Y-65317714D01*
X119851905Y-65317714D01*
X119947143Y-65365333D01*
X119994762Y-65412952D01*
X120042381Y-65508190D01*
X120042381Y-65793905D01*
X119994762Y-65889143D01*
X119947143Y-65936762D01*
X119042381Y-64698667D02*
X119042381Y-64603428D01*
X119090000Y-64508190D01*
X119137619Y-64460571D01*
X119232857Y-64412952D01*
X119423333Y-64365333D01*
X119661429Y-64365333D01*
X119851905Y-64412952D01*
X119947143Y-64460571D01*
X119994762Y-64508190D01*
X120042381Y-64603428D01*
X120042381Y-64698667D01*
X119994762Y-64793905D01*
X119947143Y-64841524D01*
X119851905Y-64889143D01*
X119661429Y-64936762D01*
X119423333Y-64936762D01*
X119232857Y-64889143D01*
X119137619Y-64841524D01*
X119090000Y-64793905D01*
X119042381Y-64698667D01*
X120042381Y-63412952D02*
X120042381Y-63984381D01*
X120042381Y-63698667D02*
X119042381Y-63698667D01*
X119185238Y-63793905D01*
X119280476Y-63889143D01*
X119328095Y-63984381D01*
X119626951Y-63444381D02*
X119626951Y-62444381D01*
X119960285Y-63158667D01*
X120293618Y-62444381D01*
X120293618Y-63444381D01*
X120912665Y-63444381D02*
X120817427Y-63396762D01*
X120769808Y-63349143D01*
X120722189Y-63253905D01*
X120722189Y-62968190D01*
X120769808Y-62872952D01*
X120817427Y-62825333D01*
X120912665Y-62777714D01*
X121055523Y-62777714D01*
X121150761Y-62825333D01*
X121198380Y-62872952D01*
X121245999Y-62968190D01*
X121245999Y-63253905D01*
X121198380Y-63349143D01*
X121150761Y-63396762D01*
X121055523Y-63444381D01*
X120912665Y-63444381D01*
X121531713Y-62777714D02*
X121912665Y-62777714D01*
X121674570Y-62444381D02*
X121674570Y-63301524D01*
X121722189Y-63396762D01*
X121817427Y-63444381D01*
X121912665Y-63444381D01*
X122388856Y-63444381D02*
X122293618Y-63396762D01*
X122245999Y-63349143D01*
X122198380Y-63253905D01*
X122198380Y-62968190D01*
X122245999Y-62872952D01*
X122293618Y-62825333D01*
X122388856Y-62777714D01*
X122531714Y-62777714D01*
X122626952Y-62825333D01*
X122674571Y-62872952D01*
X122722190Y-62968190D01*
X122722190Y-63253905D01*
X122674571Y-63349143D01*
X122626952Y-63396762D01*
X122531714Y-63444381D01*
X122388856Y-63444381D01*
X123150761Y-63444381D02*
X123150761Y-62777714D01*
X123150761Y-62968190D02*
X123198380Y-62872952D01*
X123245999Y-62825333D01*
X123341237Y-62777714D01*
X123436476Y-62777714D01*
X124531714Y-63444381D02*
X124531714Y-62444381D01*
X124912667Y-62444381D01*
X125007905Y-62492000D01*
X125055524Y-62539619D01*
X125103143Y-62634857D01*
X125103143Y-62777714D01*
X125055524Y-62872952D01*
X125007905Y-62920571D01*
X124912667Y-62968190D01*
X124531714Y-62968190D01*
X125674571Y-63444381D02*
X125579333Y-63396762D01*
X125531714Y-63349143D01*
X125484095Y-63253905D01*
X125484095Y-62968190D01*
X125531714Y-62872952D01*
X125579333Y-62825333D01*
X125674571Y-62777714D01*
X125817429Y-62777714D01*
X125912667Y-62825333D01*
X125960286Y-62872952D01*
X126007905Y-62968190D01*
X126007905Y-63253905D01*
X125960286Y-63349143D01*
X125912667Y-63396762D01*
X125817429Y-63444381D01*
X125674571Y-63444381D01*
X126341238Y-62777714D02*
X126531714Y-63444381D01*
X126722191Y-62968190D01*
X126912667Y-63444381D01*
X127103143Y-62777714D01*
X127865048Y-63396762D02*
X127769810Y-63444381D01*
X127579333Y-63444381D01*
X127484095Y-63396762D01*
X127436476Y-63301524D01*
X127436476Y-62920571D01*
X127484095Y-62825333D01*
X127579333Y-62777714D01*
X127769810Y-62777714D01*
X127865048Y-62825333D01*
X127912667Y-62920571D01*
X127912667Y-63015810D01*
X127436476Y-63111048D01*
X128341238Y-63444381D02*
X128341238Y-62777714D01*
X128341238Y-62968190D02*
X128388857Y-62872952D01*
X128436476Y-62825333D01*
X128531714Y-62777714D01*
X128626953Y-62777714D01*
X129674572Y-63396762D02*
X129817429Y-63444381D01*
X130055525Y-63444381D01*
X130150763Y-63396762D01*
X130198382Y-63349143D01*
X130246001Y-63253905D01*
X130246001Y-63158667D01*
X130198382Y-63063429D01*
X130150763Y-63015810D01*
X130055525Y-62968190D01*
X129865048Y-62920571D01*
X129769810Y-62872952D01*
X129722191Y-62825333D01*
X129674572Y-62730095D01*
X129674572Y-62634857D01*
X129722191Y-62539619D01*
X129769810Y-62492000D01*
X129865048Y-62444381D01*
X130103144Y-62444381D01*
X130246001Y-62492000D01*
X131055525Y-63396762D02*
X130960287Y-63444381D01*
X130769810Y-63444381D01*
X130674572Y-63396762D01*
X130626953Y-63301524D01*
X130626953Y-62920571D01*
X130674572Y-62825333D01*
X130769810Y-62777714D01*
X130960287Y-62777714D01*
X131055525Y-62825333D01*
X131103144Y-62920571D01*
X131103144Y-63015810D01*
X130626953Y-63111048D01*
X131674572Y-63444381D02*
X131579334Y-63396762D01*
X131531715Y-63301524D01*
X131531715Y-62444381D01*
X132436478Y-63396762D02*
X132341240Y-63444381D01*
X132150763Y-63444381D01*
X132055525Y-63396762D01*
X132007906Y-63301524D01*
X132007906Y-62920571D01*
X132055525Y-62825333D01*
X132150763Y-62777714D01*
X132341240Y-62777714D01*
X132436478Y-62825333D01*
X132484097Y-62920571D01*
X132484097Y-63015810D01*
X132007906Y-63111048D01*
X133341240Y-63396762D02*
X133246002Y-63444381D01*
X133055525Y-63444381D01*
X132960287Y-63396762D01*
X132912668Y-63349143D01*
X132865049Y-63253905D01*
X132865049Y-62968190D01*
X132912668Y-62872952D01*
X132960287Y-62825333D01*
X133055525Y-62777714D01*
X133246002Y-62777714D01*
X133341240Y-62825333D01*
X133626954Y-62777714D02*
X134007906Y-62777714D01*
X133769811Y-62444381D02*
X133769811Y-63301524D01*
X133817430Y-63396762D01*
X133912668Y-63444381D01*
X134007906Y-63444381D01*
X118578381Y-80525714D02*
X119292667Y-80525714D01*
X119435524Y-80573334D01*
X119530762Y-80668572D01*
X119578381Y-80811429D01*
X119578381Y-80906667D01*
X119578381Y-80049524D02*
X118578381Y-80049524D01*
X118578381Y-79668571D01*
X118626000Y-79573333D01*
X118673619Y-79525714D01*
X118768857Y-79478095D01*
X118911714Y-79478095D01*
X119006952Y-79525714D01*
X119054571Y-79573333D01*
X119102190Y-79668571D01*
X119102190Y-80049524D01*
X118911714Y-78620952D02*
X119578381Y-78620952D01*
X118530762Y-78859048D02*
X119245048Y-79097143D01*
X119245048Y-78478095D01*
X118578381Y-77906667D02*
X118578381Y-77811428D01*
X118626000Y-77716190D01*
X118673619Y-77668571D01*
X118768857Y-77620952D01*
X118959333Y-77573333D01*
X119197429Y-77573333D01*
X119387905Y-77620952D01*
X119483143Y-77668571D01*
X119530762Y-77716190D01*
X119578381Y-77811428D01*
X119578381Y-77906667D01*
X119530762Y-78001905D01*
X119483143Y-78049524D01*
X119387905Y-78097143D01*
X119197429Y-78144762D01*
X118959333Y-78144762D01*
X118768857Y-78097143D01*
X118673619Y-78049524D01*
X118626000Y-78001905D01*
X118578381Y-77906667D01*
X119578381Y-76620952D02*
X119578381Y-77192381D01*
X119578381Y-76906667D02*
X118578381Y-76906667D01*
X118721238Y-77001905D01*
X118816476Y-77097143D01*
X118864095Y-77192381D01*
X120142951Y-81684762D02*
X120285808Y-81732381D01*
X120523904Y-81732381D01*
X120619142Y-81684762D01*
X120666761Y-81637143D01*
X120714380Y-81541905D01*
X120714380Y-81446667D01*
X120666761Y-81351429D01*
X120619142Y-81303810D01*
X120523904Y-81256190D01*
X120333427Y-81208571D01*
X120238189Y-81160952D01*
X120190570Y-81113333D01*
X120142951Y-81018095D01*
X120142951Y-80922857D01*
X120190570Y-80827619D01*
X120238189Y-80780000D01*
X120333427Y-80732381D01*
X120571523Y-80732381D01*
X120714380Y-80780000D01*
X121523904Y-81684762D02*
X121428666Y-81732381D01*
X121238189Y-81732381D01*
X121142951Y-81684762D01*
X121095332Y-81589524D01*
X121095332Y-81208571D01*
X121142951Y-81113333D01*
X121238189Y-81065714D01*
X121428666Y-81065714D01*
X121523904Y-81113333D01*
X121571523Y-81208571D01*
X121571523Y-81303810D01*
X121095332Y-81399048D01*
X122000094Y-81065714D02*
X122000094Y-81732381D01*
X122000094Y-81160952D02*
X122047713Y-81113333D01*
X122142951Y-81065714D01*
X122285809Y-81065714D01*
X122381047Y-81113333D01*
X122428666Y-81208571D01*
X122428666Y-81732381D01*
X122857237Y-81684762D02*
X122952475Y-81732381D01*
X123142951Y-81732381D01*
X123238190Y-81684762D01*
X123285809Y-81589524D01*
X123285809Y-81541905D01*
X123238190Y-81446667D01*
X123142951Y-81399048D01*
X123000094Y-81399048D01*
X122904856Y-81351429D01*
X122857237Y-81256190D01*
X122857237Y-81208571D01*
X122904856Y-81113333D01*
X123000094Y-81065714D01*
X123142951Y-81065714D01*
X123238190Y-81113333D01*
X123857237Y-81732381D02*
X123761999Y-81684762D01*
X123714380Y-81637143D01*
X123666761Y-81541905D01*
X123666761Y-81256190D01*
X123714380Y-81160952D01*
X123761999Y-81113333D01*
X123857237Y-81065714D01*
X124000095Y-81065714D01*
X124095333Y-81113333D01*
X124142952Y-81160952D01*
X124190571Y-81256190D01*
X124190571Y-81541905D01*
X124142952Y-81637143D01*
X124095333Y-81684762D01*
X124000095Y-81732381D01*
X123857237Y-81732381D01*
X124619142Y-81732381D02*
X124619142Y-81065714D01*
X124619142Y-81256190D02*
X124666761Y-81160952D01*
X124714380Y-81113333D01*
X124809618Y-81065714D01*
X124904857Y-81065714D01*
X126000095Y-81732381D02*
X126000095Y-80732381D01*
X126381048Y-80732381D01*
X126476286Y-80780000D01*
X126523905Y-80827619D01*
X126571524Y-80922857D01*
X126571524Y-81065714D01*
X126523905Y-81160952D01*
X126476286Y-81208571D01*
X126381048Y-81256190D01*
X126000095Y-81256190D01*
X127142952Y-81732381D02*
X127047714Y-81684762D01*
X127000095Y-81637143D01*
X126952476Y-81541905D01*
X126952476Y-81256190D01*
X127000095Y-81160952D01*
X127047714Y-81113333D01*
X127142952Y-81065714D01*
X127285810Y-81065714D01*
X127381048Y-81113333D01*
X127428667Y-81160952D01*
X127476286Y-81256190D01*
X127476286Y-81541905D01*
X127428667Y-81637143D01*
X127381048Y-81684762D01*
X127285810Y-81732381D01*
X127142952Y-81732381D01*
X127809619Y-81065714D02*
X128000095Y-81732381D01*
X128190572Y-81256190D01*
X128381048Y-81732381D01*
X128571524Y-81065714D01*
X129333429Y-81684762D02*
X129238191Y-81732381D01*
X129047714Y-81732381D01*
X128952476Y-81684762D01*
X128904857Y-81589524D01*
X128904857Y-81208571D01*
X128952476Y-81113333D01*
X129047714Y-81065714D01*
X129238191Y-81065714D01*
X129333429Y-81113333D01*
X129381048Y-81208571D01*
X129381048Y-81303810D01*
X128904857Y-81399048D01*
X129809619Y-81732381D02*
X129809619Y-81065714D01*
X129809619Y-81256190D02*
X129857238Y-81160952D01*
X129904857Y-81113333D01*
X130000095Y-81065714D01*
X130095334Y-81065714D01*
X131142953Y-81684762D02*
X131285810Y-81732381D01*
X131523906Y-81732381D01*
X131619144Y-81684762D01*
X131666763Y-81637143D01*
X131714382Y-81541905D01*
X131714382Y-81446667D01*
X131666763Y-81351429D01*
X131619144Y-81303810D01*
X131523906Y-81256190D01*
X131333429Y-81208571D01*
X131238191Y-81160952D01*
X131190572Y-81113333D01*
X131142953Y-81018095D01*
X131142953Y-80922857D01*
X131190572Y-80827619D01*
X131238191Y-80780000D01*
X131333429Y-80732381D01*
X131571525Y-80732381D01*
X131714382Y-80780000D01*
X132523906Y-81684762D02*
X132428668Y-81732381D01*
X132238191Y-81732381D01*
X132142953Y-81684762D01*
X132095334Y-81589524D01*
X132095334Y-81208571D01*
X132142953Y-81113333D01*
X132238191Y-81065714D01*
X132428668Y-81065714D01*
X132523906Y-81113333D01*
X132571525Y-81208571D01*
X132571525Y-81303810D01*
X132095334Y-81399048D01*
X133142953Y-81732381D02*
X133047715Y-81684762D01*
X133000096Y-81589524D01*
X133000096Y-80732381D01*
X133904859Y-81684762D02*
X133809621Y-81732381D01*
X133619144Y-81732381D01*
X133523906Y-81684762D01*
X133476287Y-81589524D01*
X133476287Y-81208571D01*
X133523906Y-81113333D01*
X133619144Y-81065714D01*
X133809621Y-81065714D01*
X133904859Y-81113333D01*
X133952478Y-81208571D01*
X133952478Y-81303810D01*
X133476287Y-81399048D01*
X134809621Y-81684762D02*
X134714383Y-81732381D01*
X134523906Y-81732381D01*
X134428668Y-81684762D01*
X134381049Y-81637143D01*
X134333430Y-81541905D01*
X134333430Y-81256190D01*
X134381049Y-81160952D01*
X134428668Y-81113333D01*
X134523906Y-81065714D01*
X134714383Y-81065714D01*
X134809621Y-81113333D01*
X135095335Y-81065714D02*
X135476287Y-81065714D01*
X135238192Y-80732381D02*
X135238192Y-81589524D01*
X135285811Y-81684762D01*
X135381049Y-81732381D01*
X135476287Y-81732381D01*
X145232381Y-44362476D02*
X144232381Y-44362476D01*
X144232381Y-43981523D01*
X144280000Y-43886285D01*
X144327619Y-43838666D01*
X144422857Y-43791047D01*
X144565714Y-43791047D01*
X144660952Y-43838666D01*
X144708571Y-43886285D01*
X144756190Y-43981523D01*
X144756190Y-44362476D01*
X144565714Y-42933904D02*
X145232381Y-42933904D01*
X144184762Y-43172000D02*
X144899048Y-43410095D01*
X144899048Y-42791047D01*
X144232381Y-42219619D02*
X144232381Y-42124380D01*
X144280000Y-42029142D01*
X144327619Y-41981523D01*
X144422857Y-41933904D01*
X144613333Y-41886285D01*
X144851429Y-41886285D01*
X145041905Y-41933904D01*
X145137143Y-41981523D01*
X145184762Y-42029142D01*
X145232381Y-42124380D01*
X145232381Y-42219619D01*
X145184762Y-42314857D01*
X145137143Y-42362476D01*
X145041905Y-42410095D01*
X144851429Y-42457714D01*
X144613333Y-42457714D01*
X144422857Y-42410095D01*
X144327619Y-42362476D01*
X144280000Y-42314857D01*
X144232381Y-42219619D01*
X145232381Y-40933904D02*
X145232381Y-41505333D01*
X145232381Y-41219619D02*
X144232381Y-41219619D01*
X144375238Y-41314857D01*
X144470476Y-41410095D01*
X144518095Y-41505333D01*
X147209428Y-47966381D02*
X147209428Y-48775905D01*
X147257047Y-48871143D01*
X147304666Y-48918762D01*
X147399904Y-48966381D01*
X147590381Y-48966381D01*
X147685619Y-48918762D01*
X147733238Y-48871143D01*
X147780857Y-48775905D01*
X147780857Y-47966381D01*
X148399904Y-48966381D02*
X148304666Y-48918762D01*
X148257047Y-48823524D01*
X148257047Y-47966381D01*
X148638000Y-48299714D02*
X149018952Y-48299714D01*
X148780857Y-47966381D02*
X148780857Y-48823524D01*
X148828476Y-48918762D01*
X148923714Y-48966381D01*
X149018952Y-48966381D01*
X149352286Y-48966381D02*
X149352286Y-48299714D01*
X149352286Y-48490190D02*
X149399905Y-48394952D01*
X149447524Y-48347333D01*
X149542762Y-48299714D01*
X149638001Y-48299714D01*
X150399906Y-48966381D02*
X150399906Y-48442571D01*
X150352287Y-48347333D01*
X150257049Y-48299714D01*
X150066572Y-48299714D01*
X149971334Y-48347333D01*
X150399906Y-48918762D02*
X150304668Y-48966381D01*
X150066572Y-48966381D01*
X149971334Y-48918762D01*
X149923715Y-48823524D01*
X149923715Y-48728286D01*
X149971334Y-48633048D01*
X150066572Y-48585429D01*
X150304668Y-48585429D01*
X150399906Y-48537810D01*
X150828477Y-48918762D02*
X150923715Y-48966381D01*
X151114191Y-48966381D01*
X151209430Y-48918762D01*
X151257049Y-48823524D01*
X151257049Y-48775905D01*
X151209430Y-48680667D01*
X151114191Y-48633048D01*
X150971334Y-48633048D01*
X150876096Y-48585429D01*
X150828477Y-48490190D01*
X150828477Y-48442571D01*
X150876096Y-48347333D01*
X150971334Y-48299714D01*
X151114191Y-48299714D01*
X151209430Y-48347333D01*
X151828477Y-48966381D02*
X151733239Y-48918762D01*
X151685620Y-48871143D01*
X151638001Y-48775905D01*
X151638001Y-48490190D01*
X151685620Y-48394952D01*
X151733239Y-48347333D01*
X151828477Y-48299714D01*
X151971335Y-48299714D01*
X152066573Y-48347333D01*
X152114192Y-48394952D01*
X152161811Y-48490190D01*
X152161811Y-48775905D01*
X152114192Y-48871143D01*
X152066573Y-48918762D01*
X151971335Y-48966381D01*
X151828477Y-48966381D01*
X152590382Y-48299714D02*
X152590382Y-48966381D01*
X152590382Y-48394952D02*
X152638001Y-48347333D01*
X152733239Y-48299714D01*
X152876097Y-48299714D01*
X152971335Y-48347333D01*
X153018954Y-48442571D01*
X153018954Y-48966381D01*
X153495144Y-48966381D02*
X153495144Y-48299714D01*
X153495144Y-47966381D02*
X153447525Y-48014000D01*
X153495144Y-48061619D01*
X153542763Y-48014000D01*
X153495144Y-47966381D01*
X153495144Y-48061619D01*
X154399906Y-48918762D02*
X154304668Y-48966381D01*
X154114191Y-48966381D01*
X154018953Y-48918762D01*
X153971334Y-48871143D01*
X153923715Y-48775905D01*
X153923715Y-48490190D01*
X153971334Y-48394952D01*
X154018953Y-48347333D01*
X154114191Y-48299714D01*
X154304668Y-48299714D01*
X154399906Y-48347333D01*
X156114192Y-48966381D02*
X155542763Y-48966381D01*
X155828477Y-48966381D02*
X155828477Y-47966381D01*
X155733239Y-48109238D01*
X155638001Y-48204476D01*
X155542763Y-48252095D01*
X124912381Y-116244476D02*
X123912381Y-116244476D01*
X123912381Y-115863523D01*
X123960000Y-115768285D01*
X124007619Y-115720666D01*
X124102857Y-115673047D01*
X124245714Y-115673047D01*
X124340952Y-115720666D01*
X124388571Y-115768285D01*
X124436190Y-115863523D01*
X124436190Y-116244476D01*
X124245714Y-114815904D02*
X124912381Y-114815904D01*
X123864762Y-115054000D02*
X124579048Y-115292095D01*
X124579048Y-114673047D01*
X123912381Y-114101619D02*
X123912381Y-114006380D01*
X123960000Y-113911142D01*
X124007619Y-113863523D01*
X124102857Y-113815904D01*
X124293333Y-113768285D01*
X124531429Y-113768285D01*
X124721905Y-113815904D01*
X124817143Y-113863523D01*
X124864762Y-113911142D01*
X124912381Y-114006380D01*
X124912381Y-114101619D01*
X124864762Y-114196857D01*
X124817143Y-114244476D01*
X124721905Y-114292095D01*
X124531429Y-114339714D01*
X124293333Y-114339714D01*
X124102857Y-114292095D01*
X124007619Y-114244476D01*
X123960000Y-114196857D01*
X123912381Y-114101619D01*
X124007619Y-113387333D02*
X123960000Y-113339714D01*
X123912381Y-113244476D01*
X123912381Y-113006380D01*
X123960000Y-112911142D01*
X124007619Y-112863523D01*
X124102857Y-112815904D01*
X124198095Y-112815904D01*
X124340952Y-112863523D01*
X124912381Y-113434952D01*
X124912381Y-112815904D01*
X127016380Y-108672381D02*
X127016380Y-109481905D01*
X127063999Y-109577143D01*
X127111618Y-109624762D01*
X127206856Y-109672381D01*
X127397333Y-109672381D01*
X127492571Y-109624762D01*
X127540190Y-109577143D01*
X127587809Y-109481905D01*
X127587809Y-108672381D01*
X128206856Y-109672381D02*
X128111618Y-109624762D01*
X128063999Y-109529524D01*
X128063999Y-108672381D01*
X128444952Y-109005714D02*
X128825904Y-109005714D01*
X128587809Y-108672381D02*
X128587809Y-109529524D01*
X128635428Y-109624762D01*
X128730666Y-109672381D01*
X128825904Y-109672381D01*
X129159238Y-109672381D02*
X129159238Y-109005714D01*
X129159238Y-109196190D02*
X129206857Y-109100952D01*
X129254476Y-109053333D01*
X129349714Y-109005714D01*
X129444953Y-109005714D01*
X130206858Y-109672381D02*
X130206858Y-109148571D01*
X130159239Y-109053333D01*
X130064001Y-109005714D01*
X129873524Y-109005714D01*
X129778286Y-109053333D01*
X130206858Y-109624762D02*
X130111620Y-109672381D01*
X129873524Y-109672381D01*
X129778286Y-109624762D01*
X129730667Y-109529524D01*
X129730667Y-109434286D01*
X129778286Y-109339048D01*
X129873524Y-109291429D01*
X130111620Y-109291429D01*
X130206858Y-109243810D01*
X130635429Y-109624762D02*
X130730667Y-109672381D01*
X130921143Y-109672381D01*
X131016382Y-109624762D01*
X131064001Y-109529524D01*
X131064001Y-109481905D01*
X131016382Y-109386667D01*
X130921143Y-109339048D01*
X130778286Y-109339048D01*
X130683048Y-109291429D01*
X130635429Y-109196190D01*
X130635429Y-109148571D01*
X130683048Y-109053333D01*
X130778286Y-109005714D01*
X130921143Y-109005714D01*
X131016382Y-109053333D01*
X131635429Y-109672381D02*
X131540191Y-109624762D01*
X131492572Y-109577143D01*
X131444953Y-109481905D01*
X131444953Y-109196190D01*
X131492572Y-109100952D01*
X131540191Y-109053333D01*
X131635429Y-109005714D01*
X131778287Y-109005714D01*
X131873525Y-109053333D01*
X131921144Y-109100952D01*
X131968763Y-109196190D01*
X131968763Y-109481905D01*
X131921144Y-109577143D01*
X131873525Y-109624762D01*
X131778287Y-109672381D01*
X131635429Y-109672381D01*
X132397334Y-109005714D02*
X132397334Y-109672381D01*
X132397334Y-109100952D02*
X132444953Y-109053333D01*
X132540191Y-109005714D01*
X132683049Y-109005714D01*
X132778287Y-109053333D01*
X132825906Y-109148571D01*
X132825906Y-109672381D01*
X133302096Y-109672381D02*
X133302096Y-109005714D01*
X133302096Y-108672381D02*
X133254477Y-108720000D01*
X133302096Y-108767619D01*
X133349715Y-108720000D01*
X133302096Y-108672381D01*
X133302096Y-108767619D01*
X134206858Y-109624762D02*
X134111620Y-109672381D01*
X133921143Y-109672381D01*
X133825905Y-109624762D01*
X133778286Y-109577143D01*
X133730667Y-109481905D01*
X133730667Y-109196190D01*
X133778286Y-109100952D01*
X133825905Y-109053333D01*
X133921143Y-109005714D01*
X134111620Y-109005714D01*
X134206858Y-109053333D01*
X134587810Y-108767619D02*
X134635429Y-108720000D01*
X134730667Y-108672381D01*
X134968763Y-108672381D01*
X135064001Y-108720000D01*
X135111620Y-108767619D01*
X135159239Y-108862857D01*
X135159239Y-108958095D01*
X135111620Y-109100952D01*
X134540191Y-109672381D01*
X135159239Y-109672381D01*
X140152381Y-44362476D02*
X139152381Y-44362476D01*
X139152381Y-43981523D01*
X139200000Y-43886285D01*
X139247619Y-43838666D01*
X139342857Y-43791047D01*
X139485714Y-43791047D01*
X139580952Y-43838666D01*
X139628571Y-43886285D01*
X139676190Y-43981523D01*
X139676190Y-44362476D01*
X139485714Y-42933904D02*
X140152381Y-42933904D01*
X139104762Y-43172000D02*
X139819048Y-43410095D01*
X139819048Y-42791047D01*
X139152381Y-42219619D02*
X139152381Y-42124380D01*
X139200000Y-42029142D01*
X139247619Y-41981523D01*
X139342857Y-41933904D01*
X139533333Y-41886285D01*
X139771429Y-41886285D01*
X139961905Y-41933904D01*
X140057143Y-41981523D01*
X140104762Y-42029142D01*
X140152381Y-42124380D01*
X140152381Y-42219619D01*
X140104762Y-42314857D01*
X140057143Y-42362476D01*
X139961905Y-42410095D01*
X139771429Y-42457714D01*
X139533333Y-42457714D01*
X139342857Y-42410095D01*
X139247619Y-42362476D01*
X139200000Y-42314857D01*
X139152381Y-42219619D01*
X139152381Y-41552952D02*
X139152381Y-40933904D01*
X139533333Y-41267238D01*
X139533333Y-41124380D01*
X139580952Y-41029142D01*
X139628571Y-40981523D01*
X139723810Y-40933904D01*
X139961905Y-40933904D01*
X140057143Y-40981523D01*
X140104762Y-41029142D01*
X140152381Y-41124380D01*
X140152381Y-41410095D01*
X140104762Y-41505333D01*
X140057143Y-41552952D01*
X129302380Y-47966381D02*
X129302380Y-48775905D01*
X129349999Y-48871143D01*
X129397618Y-48918762D01*
X129492856Y-48966381D01*
X129683333Y-48966381D01*
X129778571Y-48918762D01*
X129826190Y-48871143D01*
X129873809Y-48775905D01*
X129873809Y-47966381D01*
X130492856Y-48966381D02*
X130397618Y-48918762D01*
X130349999Y-48823524D01*
X130349999Y-47966381D01*
X130730952Y-48299714D02*
X131111904Y-48299714D01*
X130873809Y-47966381D02*
X130873809Y-48823524D01*
X130921428Y-48918762D01*
X131016666Y-48966381D01*
X131111904Y-48966381D01*
X131445238Y-48966381D02*
X131445238Y-48299714D01*
X131445238Y-48490190D02*
X131492857Y-48394952D01*
X131540476Y-48347333D01*
X131635714Y-48299714D01*
X131730953Y-48299714D01*
X132492858Y-48966381D02*
X132492858Y-48442571D01*
X132445239Y-48347333D01*
X132350001Y-48299714D01*
X132159524Y-48299714D01*
X132064286Y-48347333D01*
X132492858Y-48918762D02*
X132397620Y-48966381D01*
X132159524Y-48966381D01*
X132064286Y-48918762D01*
X132016667Y-48823524D01*
X132016667Y-48728286D01*
X132064286Y-48633048D01*
X132159524Y-48585429D01*
X132397620Y-48585429D01*
X132492858Y-48537810D01*
X132921429Y-48918762D02*
X133016667Y-48966381D01*
X133207143Y-48966381D01*
X133302382Y-48918762D01*
X133350001Y-48823524D01*
X133350001Y-48775905D01*
X133302382Y-48680667D01*
X133207143Y-48633048D01*
X133064286Y-48633048D01*
X132969048Y-48585429D01*
X132921429Y-48490190D01*
X132921429Y-48442571D01*
X132969048Y-48347333D01*
X133064286Y-48299714D01*
X133207143Y-48299714D01*
X133302382Y-48347333D01*
X133921429Y-48966381D02*
X133826191Y-48918762D01*
X133778572Y-48871143D01*
X133730953Y-48775905D01*
X133730953Y-48490190D01*
X133778572Y-48394952D01*
X133826191Y-48347333D01*
X133921429Y-48299714D01*
X134064287Y-48299714D01*
X134159525Y-48347333D01*
X134207144Y-48394952D01*
X134254763Y-48490190D01*
X134254763Y-48775905D01*
X134207144Y-48871143D01*
X134159525Y-48918762D01*
X134064287Y-48966381D01*
X133921429Y-48966381D01*
X134683334Y-48299714D02*
X134683334Y-48966381D01*
X134683334Y-48394952D02*
X134730953Y-48347333D01*
X134826191Y-48299714D01*
X134969049Y-48299714D01*
X135064287Y-48347333D01*
X135111906Y-48442571D01*
X135111906Y-48966381D01*
X135588096Y-48966381D02*
X135588096Y-48299714D01*
X135588096Y-47966381D02*
X135540477Y-48014000D01*
X135588096Y-48061619D01*
X135635715Y-48014000D01*
X135588096Y-47966381D01*
X135588096Y-48061619D01*
X136492858Y-48918762D02*
X136397620Y-48966381D01*
X136207143Y-48966381D01*
X136111905Y-48918762D01*
X136064286Y-48871143D01*
X136016667Y-48775905D01*
X136016667Y-48490190D01*
X136064286Y-48394952D01*
X136111905Y-48347333D01*
X136207143Y-48299714D01*
X136397620Y-48299714D01*
X136492858Y-48347333D01*
X136826191Y-47966381D02*
X137445239Y-47966381D01*
X137111905Y-48347333D01*
X137254763Y-48347333D01*
X137350001Y-48394952D01*
X137397620Y-48442571D01*
X137445239Y-48537810D01*
X137445239Y-48775905D01*
X137397620Y-48871143D01*
X137350001Y-48918762D01*
X137254763Y-48966381D01*
X136969048Y-48966381D01*
X136873810Y-48918762D01*
X136826191Y-48871143D01*
X120086381Y-50458476D02*
X119086381Y-50458476D01*
X119086381Y-50077523D01*
X119134000Y-49982285D01*
X119181619Y-49934666D01*
X119276857Y-49887047D01*
X119419714Y-49887047D01*
X119514952Y-49934666D01*
X119562571Y-49982285D01*
X119610190Y-50077523D01*
X119610190Y-50458476D01*
X119419714Y-49029904D02*
X120086381Y-49029904D01*
X119038762Y-49268000D02*
X119753048Y-49506095D01*
X119753048Y-48887047D01*
X119086381Y-48315619D02*
X119086381Y-48220380D01*
X119134000Y-48125142D01*
X119181619Y-48077523D01*
X119276857Y-48029904D01*
X119467333Y-47982285D01*
X119705429Y-47982285D01*
X119895905Y-48029904D01*
X119991143Y-48077523D01*
X120038762Y-48125142D01*
X120086381Y-48220380D01*
X120086381Y-48315619D01*
X120038762Y-48410857D01*
X119991143Y-48458476D01*
X119895905Y-48506095D01*
X119705429Y-48553714D01*
X119467333Y-48553714D01*
X119276857Y-48506095D01*
X119181619Y-48458476D01*
X119134000Y-48410857D01*
X119086381Y-48315619D01*
X119419714Y-47125142D02*
X120086381Y-47125142D01*
X119038762Y-47363238D02*
X119753048Y-47601333D01*
X119753048Y-46982285D01*
X123912381Y-50021620D02*
X124721905Y-50021620D01*
X124817143Y-49974001D01*
X124864762Y-49926382D01*
X124912381Y-49831144D01*
X124912381Y-49640667D01*
X124864762Y-49545429D01*
X124817143Y-49497810D01*
X124721905Y-49450191D01*
X123912381Y-49450191D01*
X124912381Y-48831144D02*
X124864762Y-48926382D01*
X124769524Y-48974001D01*
X123912381Y-48974001D01*
X124245714Y-48593048D02*
X124245714Y-48212096D01*
X123912381Y-48450191D02*
X124769524Y-48450191D01*
X124864762Y-48402572D01*
X124912381Y-48307334D01*
X124912381Y-48212096D01*
X124912381Y-47878762D02*
X124245714Y-47878762D01*
X124436190Y-47878762D02*
X124340952Y-47831143D01*
X124293333Y-47783524D01*
X124245714Y-47688286D01*
X124245714Y-47593047D01*
X124912381Y-46831142D02*
X124388571Y-46831142D01*
X124293333Y-46878761D01*
X124245714Y-46973999D01*
X124245714Y-47164476D01*
X124293333Y-47259714D01*
X124864762Y-46831142D02*
X124912381Y-46926380D01*
X124912381Y-47164476D01*
X124864762Y-47259714D01*
X124769524Y-47307333D01*
X124674286Y-47307333D01*
X124579048Y-47259714D01*
X124531429Y-47164476D01*
X124531429Y-46926380D01*
X124483810Y-46831142D01*
X124864762Y-46402571D02*
X124912381Y-46307333D01*
X124912381Y-46116857D01*
X124864762Y-46021618D01*
X124769524Y-45973999D01*
X124721905Y-45973999D01*
X124626667Y-46021618D01*
X124579048Y-46116857D01*
X124579048Y-46259714D01*
X124531429Y-46354952D01*
X124436190Y-46402571D01*
X124388571Y-46402571D01*
X124293333Y-46354952D01*
X124245714Y-46259714D01*
X124245714Y-46116857D01*
X124293333Y-46021618D01*
X124912381Y-45402571D02*
X124864762Y-45497809D01*
X124817143Y-45545428D01*
X124721905Y-45593047D01*
X124436190Y-45593047D01*
X124340952Y-45545428D01*
X124293333Y-45497809D01*
X124245714Y-45402571D01*
X124245714Y-45259713D01*
X124293333Y-45164475D01*
X124340952Y-45116856D01*
X124436190Y-45069237D01*
X124721905Y-45069237D01*
X124817143Y-45116856D01*
X124864762Y-45164475D01*
X124912381Y-45259713D01*
X124912381Y-45402571D01*
X124245714Y-44640666D02*
X124912381Y-44640666D01*
X124340952Y-44640666D02*
X124293333Y-44593047D01*
X124245714Y-44497809D01*
X124245714Y-44354951D01*
X124293333Y-44259713D01*
X124388571Y-44212094D01*
X124912381Y-44212094D01*
X124912381Y-43735904D02*
X124245714Y-43735904D01*
X123912381Y-43735904D02*
X123960000Y-43783523D01*
X124007619Y-43735904D01*
X123960000Y-43688285D01*
X123912381Y-43735904D01*
X124007619Y-43735904D01*
X124864762Y-42831142D02*
X124912381Y-42926380D01*
X124912381Y-43116857D01*
X124864762Y-43212095D01*
X124817143Y-43259714D01*
X124721905Y-43307333D01*
X124436190Y-43307333D01*
X124340952Y-43259714D01*
X124293333Y-43212095D01*
X124245714Y-43116857D01*
X124245714Y-42926380D01*
X124293333Y-42831142D01*
X124245714Y-41973999D02*
X124912381Y-41973999D01*
X123864762Y-42212095D02*
X124579048Y-42450190D01*
X124579048Y-41831142D01*
X140152381Y-116244476D02*
X139152381Y-116244476D01*
X139152381Y-115863523D01*
X139200000Y-115768285D01*
X139247619Y-115720666D01*
X139342857Y-115673047D01*
X139485714Y-115673047D01*
X139580952Y-115720666D01*
X139628571Y-115768285D01*
X139676190Y-115863523D01*
X139676190Y-116244476D01*
X139485714Y-114815904D02*
X140152381Y-114815904D01*
X139104762Y-115054000D02*
X139819048Y-115292095D01*
X139819048Y-114673047D01*
X139152381Y-114101619D02*
X139152381Y-114006380D01*
X139200000Y-113911142D01*
X139247619Y-113863523D01*
X139342857Y-113815904D01*
X139533333Y-113768285D01*
X139771429Y-113768285D01*
X139961905Y-113815904D01*
X140057143Y-113863523D01*
X140104762Y-113911142D01*
X140152381Y-114006380D01*
X140152381Y-114101619D01*
X140104762Y-114196857D01*
X140057143Y-114244476D01*
X139961905Y-114292095D01*
X139771429Y-114339714D01*
X139533333Y-114339714D01*
X139342857Y-114292095D01*
X139247619Y-114244476D01*
X139200000Y-114196857D01*
X139152381Y-114101619D01*
X139152381Y-112863523D02*
X139152381Y-113339714D01*
X139628571Y-113387333D01*
X139580952Y-113339714D01*
X139533333Y-113244476D01*
X139533333Y-113006380D01*
X139580952Y-112911142D01*
X139628571Y-112863523D01*
X139723810Y-112815904D01*
X139961905Y-112815904D01*
X140057143Y-112863523D01*
X140104762Y-112911142D01*
X140152381Y-113006380D01*
X140152381Y-113244476D01*
X140104762Y-113339714D01*
X140057143Y-113387333D01*
X142002380Y-108672381D02*
X142002380Y-109481905D01*
X142049999Y-109577143D01*
X142097618Y-109624762D01*
X142192856Y-109672381D01*
X142383333Y-109672381D01*
X142478571Y-109624762D01*
X142526190Y-109577143D01*
X142573809Y-109481905D01*
X142573809Y-108672381D01*
X143192856Y-109672381D02*
X143097618Y-109624762D01*
X143049999Y-109529524D01*
X143049999Y-108672381D01*
X143430952Y-109005714D02*
X143811904Y-109005714D01*
X143573809Y-108672381D02*
X143573809Y-109529524D01*
X143621428Y-109624762D01*
X143716666Y-109672381D01*
X143811904Y-109672381D01*
X144145238Y-109672381D02*
X144145238Y-109005714D01*
X144145238Y-109196190D02*
X144192857Y-109100952D01*
X144240476Y-109053333D01*
X144335714Y-109005714D01*
X144430953Y-109005714D01*
X145192858Y-109672381D02*
X145192858Y-109148571D01*
X145145239Y-109053333D01*
X145050001Y-109005714D01*
X144859524Y-109005714D01*
X144764286Y-109053333D01*
X145192858Y-109624762D02*
X145097620Y-109672381D01*
X144859524Y-109672381D01*
X144764286Y-109624762D01*
X144716667Y-109529524D01*
X144716667Y-109434286D01*
X144764286Y-109339048D01*
X144859524Y-109291429D01*
X145097620Y-109291429D01*
X145192858Y-109243810D01*
X145621429Y-109624762D02*
X145716667Y-109672381D01*
X145907143Y-109672381D01*
X146002382Y-109624762D01*
X146050001Y-109529524D01*
X146050001Y-109481905D01*
X146002382Y-109386667D01*
X145907143Y-109339048D01*
X145764286Y-109339048D01*
X145669048Y-109291429D01*
X145621429Y-109196190D01*
X145621429Y-109148571D01*
X145669048Y-109053333D01*
X145764286Y-109005714D01*
X145907143Y-109005714D01*
X146002382Y-109053333D01*
X146621429Y-109672381D02*
X146526191Y-109624762D01*
X146478572Y-109577143D01*
X146430953Y-109481905D01*
X146430953Y-109196190D01*
X146478572Y-109100952D01*
X146526191Y-109053333D01*
X146621429Y-109005714D01*
X146764287Y-109005714D01*
X146859525Y-109053333D01*
X146907144Y-109100952D01*
X146954763Y-109196190D01*
X146954763Y-109481905D01*
X146907144Y-109577143D01*
X146859525Y-109624762D01*
X146764287Y-109672381D01*
X146621429Y-109672381D01*
X147383334Y-109005714D02*
X147383334Y-109672381D01*
X147383334Y-109100952D02*
X147430953Y-109053333D01*
X147526191Y-109005714D01*
X147669049Y-109005714D01*
X147764287Y-109053333D01*
X147811906Y-109148571D01*
X147811906Y-109672381D01*
X148288096Y-109672381D02*
X148288096Y-109005714D01*
X148288096Y-108672381D02*
X148240477Y-108720000D01*
X148288096Y-108767619D01*
X148335715Y-108720000D01*
X148288096Y-108672381D01*
X148288096Y-108767619D01*
X149192858Y-109624762D02*
X149097620Y-109672381D01*
X148907143Y-109672381D01*
X148811905Y-109624762D01*
X148764286Y-109577143D01*
X148716667Y-109481905D01*
X148716667Y-109196190D01*
X148764286Y-109100952D01*
X148811905Y-109053333D01*
X148907143Y-109005714D01*
X149097620Y-109005714D01*
X149192858Y-109053333D01*
X150097620Y-108672381D02*
X149621429Y-108672381D01*
X149573810Y-109148571D01*
X149621429Y-109100952D01*
X149716667Y-109053333D01*
X149954763Y-109053333D01*
X150050001Y-109100952D01*
X150097620Y-109148571D01*
X150145239Y-109243810D01*
X150145239Y-109481905D01*
X150097620Y-109577143D01*
X150050001Y-109624762D01*
X149954763Y-109672381D01*
X149716667Y-109672381D01*
X149621429Y-109624762D01*
X149573810Y-109577143D01*
X117689524Y-101036381D02*
X117689524Y-100036381D01*
X118070477Y-100036381D01*
X118165715Y-100084000D01*
X118213334Y-100131619D01*
X118260953Y-100226857D01*
X118260953Y-100369714D01*
X118213334Y-100464952D01*
X118165715Y-100512571D01*
X118070477Y-100560190D01*
X117689524Y-100560190D01*
X119118096Y-100369714D02*
X119118096Y-101036381D01*
X118880000Y-99988762D02*
X118641905Y-100703048D01*
X119260953Y-100703048D01*
X119832381Y-100036381D02*
X119927620Y-100036381D01*
X120022858Y-100084000D01*
X120070477Y-100131619D01*
X120118096Y-100226857D01*
X120165715Y-100417333D01*
X120165715Y-100655429D01*
X120118096Y-100845905D01*
X120070477Y-100941143D01*
X120022858Y-100988762D01*
X119927620Y-101036381D01*
X119832381Y-101036381D01*
X119737143Y-100988762D01*
X119689524Y-100941143D01*
X119641905Y-100845905D01*
X119594286Y-100655429D01*
X119594286Y-100417333D01*
X119641905Y-100226857D01*
X119689524Y-100131619D01*
X119737143Y-100084000D01*
X119832381Y-100036381D01*
X121022858Y-100036381D02*
X120832381Y-100036381D01*
X120737143Y-100084000D01*
X120689524Y-100131619D01*
X120594286Y-100274476D01*
X120546667Y-100464952D01*
X120546667Y-100845905D01*
X120594286Y-100941143D01*
X120641905Y-100988762D01*
X120737143Y-101036381D01*
X120927620Y-101036381D01*
X121022858Y-100988762D01*
X121070477Y-100941143D01*
X121118096Y-100845905D01*
X121118096Y-100607810D01*
X121070477Y-100512571D01*
X121022858Y-100464952D01*
X120927620Y-100417333D01*
X120737143Y-100417333D01*
X120641905Y-100464952D01*
X120594286Y-100512571D01*
X120546667Y-100607810D01*
X123810781Y-109914820D02*
X124620305Y-109914820D01*
X124715543Y-109867201D01*
X124763162Y-109819582D01*
X124810781Y-109724344D01*
X124810781Y-109533867D01*
X124763162Y-109438629D01*
X124715543Y-109391010D01*
X124620305Y-109343391D01*
X123810781Y-109343391D01*
X124810781Y-108724344D02*
X124763162Y-108819582D01*
X124667924Y-108867201D01*
X123810781Y-108867201D01*
X124144114Y-108486248D02*
X124144114Y-108105296D01*
X123810781Y-108343391D02*
X124667924Y-108343391D01*
X124763162Y-108295772D01*
X124810781Y-108200534D01*
X124810781Y-108105296D01*
X124810781Y-107771962D02*
X124144114Y-107771962D01*
X124334590Y-107771962D02*
X124239352Y-107724343D01*
X124191733Y-107676724D01*
X124144114Y-107581486D01*
X124144114Y-107486247D01*
X124810781Y-106724342D02*
X124286971Y-106724342D01*
X124191733Y-106771961D01*
X124144114Y-106867199D01*
X124144114Y-107057676D01*
X124191733Y-107152914D01*
X124763162Y-106724342D02*
X124810781Y-106819580D01*
X124810781Y-107057676D01*
X124763162Y-107152914D01*
X124667924Y-107200533D01*
X124572686Y-107200533D01*
X124477448Y-107152914D01*
X124429829Y-107057676D01*
X124429829Y-106819580D01*
X124382210Y-106724342D01*
X124763162Y-106295771D02*
X124810781Y-106200533D01*
X124810781Y-106010057D01*
X124763162Y-105914818D01*
X124667924Y-105867199D01*
X124620305Y-105867199D01*
X124525067Y-105914818D01*
X124477448Y-106010057D01*
X124477448Y-106152914D01*
X124429829Y-106248152D01*
X124334590Y-106295771D01*
X124286971Y-106295771D01*
X124191733Y-106248152D01*
X124144114Y-106152914D01*
X124144114Y-106010057D01*
X124191733Y-105914818D01*
X124810781Y-105295771D02*
X124763162Y-105391009D01*
X124715543Y-105438628D01*
X124620305Y-105486247D01*
X124334590Y-105486247D01*
X124239352Y-105438628D01*
X124191733Y-105391009D01*
X124144114Y-105295771D01*
X124144114Y-105152913D01*
X124191733Y-105057675D01*
X124239352Y-105010056D01*
X124334590Y-104962437D01*
X124620305Y-104962437D01*
X124715543Y-105010056D01*
X124763162Y-105057675D01*
X124810781Y-105152913D01*
X124810781Y-105295771D01*
X124144114Y-104533866D02*
X124810781Y-104533866D01*
X124239352Y-104533866D02*
X124191733Y-104486247D01*
X124144114Y-104391009D01*
X124144114Y-104248151D01*
X124191733Y-104152913D01*
X124286971Y-104105294D01*
X124810781Y-104105294D01*
X124810781Y-103629104D02*
X124144114Y-103629104D01*
X123810781Y-103629104D02*
X123858400Y-103676723D01*
X123906019Y-103629104D01*
X123858400Y-103581485D01*
X123810781Y-103629104D01*
X123906019Y-103629104D01*
X124763162Y-102724342D02*
X124810781Y-102819580D01*
X124810781Y-103010057D01*
X124763162Y-103105295D01*
X124715543Y-103152914D01*
X124620305Y-103200533D01*
X124334590Y-103200533D01*
X124239352Y-103152914D01*
X124191733Y-103105295D01*
X124144114Y-103010057D01*
X124144114Y-102819580D01*
X124191733Y-102724342D01*
X123810781Y-101867199D02*
X123810781Y-102057676D01*
X123858400Y-102152914D01*
X123906019Y-102200533D01*
X124048876Y-102295771D01*
X124239352Y-102343390D01*
X124620305Y-102343390D01*
X124715543Y-102295771D01*
X124763162Y-102248152D01*
X124810781Y-102152914D01*
X124810781Y-101962437D01*
X124763162Y-101867199D01*
X124715543Y-101819580D01*
X124620305Y-101771961D01*
X124382210Y-101771961D01*
X124286971Y-101819580D01*
X124239352Y-101867199D01*
X124191733Y-101962437D01*
X124191733Y-102152914D01*
X124239352Y-102248152D01*
X124286971Y-102295771D01*
X124382210Y-102343390D01*
X141542381Y-58356286D02*
X142351905Y-58356286D01*
X142447143Y-58308667D01*
X142494762Y-58261048D01*
X142542381Y-58165810D01*
X142542381Y-57975333D01*
X142494762Y-57880095D01*
X142447143Y-57832476D01*
X142351905Y-57784857D01*
X141542381Y-57784857D01*
X141542381Y-57403905D02*
X141542381Y-56784857D01*
X141923333Y-57118191D01*
X141923333Y-56975333D01*
X141970952Y-56880095D01*
X142018571Y-56832476D01*
X142113810Y-56784857D01*
X142351905Y-56784857D01*
X142447143Y-56832476D01*
X142494762Y-56880095D01*
X142542381Y-56975333D01*
X142542381Y-57261048D01*
X142494762Y-57356286D01*
X142447143Y-57403905D01*
X141542381Y-56165810D02*
X141542381Y-56070571D01*
X141590000Y-55975333D01*
X141637619Y-55927714D01*
X141732857Y-55880095D01*
X141923333Y-55832476D01*
X142161429Y-55832476D01*
X142351905Y-55880095D01*
X142447143Y-55927714D01*
X142494762Y-55975333D01*
X142542381Y-56070571D01*
X142542381Y-56165810D01*
X142494762Y-56261048D01*
X142447143Y-56308667D01*
X142351905Y-56356286D01*
X142161429Y-56403905D01*
X141923333Y-56403905D01*
X141732857Y-56356286D01*
X141637619Y-56308667D01*
X141590000Y-56261048D01*
X141542381Y-56165810D01*
X142542381Y-54880095D02*
X142542381Y-55451524D01*
X142542381Y-55165810D02*
X141542381Y-55165810D01*
X141685238Y-55261048D01*
X141780476Y-55356286D01*
X141828095Y-55451524D01*
X119887143Y-59237238D02*
X119934762Y-59284857D01*
X119982381Y-59427714D01*
X119982381Y-59522952D01*
X119934762Y-59665810D01*
X119839524Y-59761048D01*
X119744286Y-59808667D01*
X119553810Y-59856286D01*
X119410952Y-59856286D01*
X119220476Y-59808667D01*
X119125238Y-59761048D01*
X119030000Y-59665810D01*
X118982381Y-59522952D01*
X118982381Y-59427714D01*
X119030000Y-59284857D01*
X119077619Y-59237238D01*
X119982381Y-58808667D02*
X118982381Y-58808667D01*
X118982381Y-58570572D01*
X119030000Y-58427714D01*
X119125238Y-58332476D01*
X119220476Y-58284857D01*
X119410952Y-58237238D01*
X119553810Y-58237238D01*
X119744286Y-58284857D01*
X119839524Y-58332476D01*
X119934762Y-58427714D01*
X119982381Y-58570572D01*
X119982381Y-58808667D01*
X119315714Y-57380095D02*
X119982381Y-57380095D01*
X118934762Y-57618191D02*
X119649048Y-57856286D01*
X119649048Y-57237238D01*
X118982381Y-56665810D02*
X118982381Y-56570571D01*
X119030000Y-56475333D01*
X119077619Y-56427714D01*
X119172857Y-56380095D01*
X119363333Y-56332476D01*
X119601429Y-56332476D01*
X119791905Y-56380095D01*
X119887143Y-56427714D01*
X119934762Y-56475333D01*
X119982381Y-56570571D01*
X119982381Y-56665810D01*
X119934762Y-56761048D01*
X119887143Y-56808667D01*
X119791905Y-56856286D01*
X119601429Y-56903905D01*
X119363333Y-56903905D01*
X119172857Y-56856286D01*
X119077619Y-56808667D01*
X119030000Y-56761048D01*
X118982381Y-56665810D01*
X118982381Y-55427714D02*
X118982381Y-55903905D01*
X119458571Y-55951524D01*
X119410952Y-55903905D01*
X119363333Y-55808667D01*
X119363333Y-55570571D01*
X119410952Y-55475333D01*
X119458571Y-55427714D01*
X119553810Y-55380095D01*
X119791905Y-55380095D01*
X119887143Y-55427714D01*
X119934762Y-55475333D01*
X119982381Y-55570571D01*
X119982381Y-55808667D01*
X119934762Y-55903905D01*
X119887143Y-55951524D01*
X119982381Y-54427714D02*
X119982381Y-54999143D01*
X119982381Y-54713429D02*
X118982381Y-54713429D01*
X119125238Y-54808667D01*
X119220476Y-54903905D01*
X119268095Y-54999143D01*
X119458571Y-53665809D02*
X119506190Y-53522952D01*
X119553810Y-53475333D01*
X119649048Y-53427714D01*
X119791905Y-53427714D01*
X119887143Y-53475333D01*
X119934762Y-53522952D01*
X119982381Y-53618190D01*
X119982381Y-53999143D01*
X118982381Y-53999143D01*
X118982381Y-53665809D01*
X119030000Y-53570571D01*
X119077619Y-53522952D01*
X119172857Y-53475333D01*
X119268095Y-53475333D01*
X119363333Y-53522952D01*
X119410952Y-53570571D01*
X119458571Y-53665809D01*
X119458571Y-53999143D01*
X147788381Y-62420286D02*
X148597905Y-62420286D01*
X148693143Y-62372667D01*
X148740762Y-62325048D01*
X148788381Y-62229810D01*
X148788381Y-62039333D01*
X148740762Y-61944095D01*
X148693143Y-61896476D01*
X148597905Y-61848857D01*
X147788381Y-61848857D01*
X147788381Y-61467905D02*
X147788381Y-60848857D01*
X148169333Y-61182191D01*
X148169333Y-61039333D01*
X148216952Y-60944095D01*
X148264571Y-60896476D01*
X148359810Y-60848857D01*
X148597905Y-60848857D01*
X148693143Y-60896476D01*
X148740762Y-60944095D01*
X148788381Y-61039333D01*
X148788381Y-61325048D01*
X148740762Y-61420286D01*
X148693143Y-61467905D01*
X147788381Y-60229810D02*
X147788381Y-60134571D01*
X147836000Y-60039333D01*
X147883619Y-59991714D01*
X147978857Y-59944095D01*
X148169333Y-59896476D01*
X148407429Y-59896476D01*
X148597905Y-59944095D01*
X148693143Y-59991714D01*
X148740762Y-60039333D01*
X148788381Y-60134571D01*
X148788381Y-60229810D01*
X148740762Y-60325048D01*
X148693143Y-60372667D01*
X148597905Y-60420286D01*
X148407429Y-60467905D01*
X148169333Y-60467905D01*
X147978857Y-60420286D01*
X147883619Y-60372667D01*
X147836000Y-60325048D01*
X147788381Y-60229810D01*
X147883619Y-59515524D02*
X147836000Y-59467905D01*
X147788381Y-59372667D01*
X147788381Y-59134571D01*
X147836000Y-59039333D01*
X147883619Y-58991714D01*
X147978857Y-58944095D01*
X148074095Y-58944095D01*
X148216952Y-58991714D01*
X148788381Y-59563143D01*
X148788381Y-58944095D01*
X148439523Y-64250381D02*
X148439523Y-63250381D01*
X148772857Y-63964667D01*
X149106190Y-63250381D01*
X149106190Y-64250381D01*
X149725237Y-64250381D02*
X149629999Y-64202762D01*
X149582380Y-64155143D01*
X149534761Y-64059905D01*
X149534761Y-63774190D01*
X149582380Y-63678952D01*
X149629999Y-63631333D01*
X149725237Y-63583714D01*
X149868095Y-63583714D01*
X149963333Y-63631333D01*
X150010952Y-63678952D01*
X150058571Y-63774190D01*
X150058571Y-64059905D01*
X150010952Y-64155143D01*
X149963333Y-64202762D01*
X149868095Y-64250381D01*
X149725237Y-64250381D01*
X150344285Y-63583714D02*
X150725237Y-63583714D01*
X150487142Y-63250381D02*
X150487142Y-64107524D01*
X150534761Y-64202762D01*
X150629999Y-64250381D01*
X150725237Y-64250381D01*
X151201428Y-64250381D02*
X151106190Y-64202762D01*
X151058571Y-64155143D01*
X151010952Y-64059905D01*
X151010952Y-63774190D01*
X151058571Y-63678952D01*
X151106190Y-63631333D01*
X151201428Y-63583714D01*
X151344286Y-63583714D01*
X151439524Y-63631333D01*
X151487143Y-63678952D01*
X151534762Y-63774190D01*
X151534762Y-64059905D01*
X151487143Y-64155143D01*
X151439524Y-64202762D01*
X151344286Y-64250381D01*
X151201428Y-64250381D01*
X151963333Y-64250381D02*
X151963333Y-63583714D01*
X151963333Y-63774190D02*
X152010952Y-63678952D01*
X152058571Y-63631333D01*
X152153809Y-63583714D01*
X152249048Y-63583714D01*
X153868096Y-64250381D02*
X153296667Y-64250381D01*
X153582381Y-64250381D02*
X153582381Y-63250381D01*
X153487143Y-63393238D01*
X153391905Y-63488476D01*
X153296667Y-63536095D01*
X167195714Y-48474381D02*
X167195714Y-49283905D01*
X167243333Y-49379143D01*
X167290952Y-49426762D01*
X167386190Y-49474381D01*
X167576667Y-49474381D01*
X167671905Y-49426762D01*
X167719524Y-49379143D01*
X167767143Y-49283905D01*
X167767143Y-48474381D01*
X168148095Y-48474381D02*
X168767143Y-48474381D01*
X168433809Y-48855333D01*
X168576667Y-48855333D01*
X168671905Y-48902952D01*
X168719524Y-48950571D01*
X168767143Y-49045810D01*
X168767143Y-49283905D01*
X168719524Y-49379143D01*
X168671905Y-49426762D01*
X168576667Y-49474381D01*
X168290952Y-49474381D01*
X168195714Y-49426762D01*
X168148095Y-49379143D01*
X169386190Y-48474381D02*
X169481429Y-48474381D01*
X169576667Y-48522000D01*
X169624286Y-48569619D01*
X169671905Y-48664857D01*
X169719524Y-48855333D01*
X169719524Y-49093429D01*
X169671905Y-49283905D01*
X169624286Y-49379143D01*
X169576667Y-49426762D01*
X169481429Y-49474381D01*
X169386190Y-49474381D01*
X169290952Y-49426762D01*
X169243333Y-49379143D01*
X169195714Y-49283905D01*
X169148095Y-49093429D01*
X169148095Y-48855333D01*
X169195714Y-48664857D01*
X169243333Y-48569619D01*
X169290952Y-48522000D01*
X169386190Y-48474381D01*
X170052857Y-48474381D02*
X170671905Y-48474381D01*
X170338571Y-48855333D01*
X170481429Y-48855333D01*
X170576667Y-48902952D01*
X170624286Y-48950571D01*
X170671905Y-49045810D01*
X170671905Y-49283905D01*
X170624286Y-49379143D01*
X170576667Y-49426762D01*
X170481429Y-49474381D01*
X170195714Y-49474381D01*
X170100476Y-49426762D01*
X170052857Y-49379143D01*
X166219523Y-64250381D02*
X166219523Y-63250381D01*
X166552857Y-63964667D01*
X166886190Y-63250381D01*
X166886190Y-64250381D01*
X167505237Y-64250381D02*
X167409999Y-64202762D01*
X167362380Y-64155143D01*
X167314761Y-64059905D01*
X167314761Y-63774190D01*
X167362380Y-63678952D01*
X167409999Y-63631333D01*
X167505237Y-63583714D01*
X167648095Y-63583714D01*
X167743333Y-63631333D01*
X167790952Y-63678952D01*
X167838571Y-63774190D01*
X167838571Y-64059905D01*
X167790952Y-64155143D01*
X167743333Y-64202762D01*
X167648095Y-64250381D01*
X167505237Y-64250381D01*
X168124285Y-63583714D02*
X168505237Y-63583714D01*
X168267142Y-63250381D02*
X168267142Y-64107524D01*
X168314761Y-64202762D01*
X168409999Y-64250381D01*
X168505237Y-64250381D01*
X168981428Y-64250381D02*
X168886190Y-64202762D01*
X168838571Y-64155143D01*
X168790952Y-64059905D01*
X168790952Y-63774190D01*
X168838571Y-63678952D01*
X168886190Y-63631333D01*
X168981428Y-63583714D01*
X169124286Y-63583714D01*
X169219524Y-63631333D01*
X169267143Y-63678952D01*
X169314762Y-63774190D01*
X169314762Y-64059905D01*
X169267143Y-64155143D01*
X169219524Y-64202762D01*
X169124286Y-64250381D01*
X168981428Y-64250381D01*
X169743333Y-64250381D02*
X169743333Y-63583714D01*
X169743333Y-63774190D02*
X169790952Y-63678952D01*
X169838571Y-63631333D01*
X169933809Y-63583714D01*
X170029048Y-63583714D01*
X171076667Y-63345619D02*
X171124286Y-63298000D01*
X171219524Y-63250381D01*
X171457620Y-63250381D01*
X171552858Y-63298000D01*
X171600477Y-63345619D01*
X171648096Y-63440857D01*
X171648096Y-63536095D01*
X171600477Y-63678952D01*
X171029048Y-64250381D01*
X171648096Y-64250381D01*
X145605714Y-78402381D02*
X145605714Y-79211905D01*
X145653333Y-79307143D01*
X145700952Y-79354762D01*
X145796190Y-79402381D01*
X145986667Y-79402381D01*
X146081905Y-79354762D01*
X146129524Y-79307143D01*
X146177143Y-79211905D01*
X146177143Y-78402381D01*
X146558095Y-78402381D02*
X147177143Y-78402381D01*
X146843809Y-78783333D01*
X146986667Y-78783333D01*
X147081905Y-78830952D01*
X147129524Y-78878571D01*
X147177143Y-78973810D01*
X147177143Y-79211905D01*
X147129524Y-79307143D01*
X147081905Y-79354762D01*
X146986667Y-79402381D01*
X146700952Y-79402381D01*
X146605714Y-79354762D01*
X146558095Y-79307143D01*
X147796190Y-78402381D02*
X147891429Y-78402381D01*
X147986667Y-78450000D01*
X148034286Y-78497619D01*
X148081905Y-78592857D01*
X148129524Y-78783333D01*
X148129524Y-79021429D01*
X148081905Y-79211905D01*
X148034286Y-79307143D01*
X147986667Y-79354762D01*
X147891429Y-79402381D01*
X147796190Y-79402381D01*
X147700952Y-79354762D01*
X147653333Y-79307143D01*
X147605714Y-79211905D01*
X147558095Y-79021429D01*
X147558095Y-78783333D01*
X147605714Y-78592857D01*
X147653333Y-78497619D01*
X147700952Y-78450000D01*
X147796190Y-78402381D01*
X148986667Y-78735714D02*
X148986667Y-79402381D01*
X148748571Y-78354762D02*
X148510476Y-79069048D01*
X149129524Y-79069048D01*
X144629523Y-94222381D02*
X144629523Y-93222381D01*
X144962857Y-93936667D01*
X145296190Y-93222381D01*
X145296190Y-94222381D01*
X145915237Y-94222381D02*
X145819999Y-94174762D01*
X145772380Y-94127143D01*
X145724761Y-94031905D01*
X145724761Y-93746190D01*
X145772380Y-93650952D01*
X145819999Y-93603333D01*
X145915237Y-93555714D01*
X146058095Y-93555714D01*
X146153333Y-93603333D01*
X146200952Y-93650952D01*
X146248571Y-93746190D01*
X146248571Y-94031905D01*
X146200952Y-94127143D01*
X146153333Y-94174762D01*
X146058095Y-94222381D01*
X145915237Y-94222381D01*
X146534285Y-93555714D02*
X146915237Y-93555714D01*
X146677142Y-93222381D02*
X146677142Y-94079524D01*
X146724761Y-94174762D01*
X146819999Y-94222381D01*
X146915237Y-94222381D01*
X147391428Y-94222381D02*
X147296190Y-94174762D01*
X147248571Y-94127143D01*
X147200952Y-94031905D01*
X147200952Y-93746190D01*
X147248571Y-93650952D01*
X147296190Y-93603333D01*
X147391428Y-93555714D01*
X147534286Y-93555714D01*
X147629524Y-93603333D01*
X147677143Y-93650952D01*
X147724762Y-93746190D01*
X147724762Y-94031905D01*
X147677143Y-94127143D01*
X147629524Y-94174762D01*
X147534286Y-94222381D01*
X147391428Y-94222381D01*
X148153333Y-94222381D02*
X148153333Y-93555714D01*
X148153333Y-93746190D02*
X148200952Y-93650952D01*
X148248571Y-93603333D01*
X148343809Y-93555714D01*
X148439048Y-93555714D01*
X149962858Y-93555714D02*
X149962858Y-94222381D01*
X149724762Y-93174762D02*
X149486667Y-93889048D01*
X150105715Y-93889048D01*
X155872381Y-116014286D02*
X156681905Y-116014286D01*
X156777143Y-115966667D01*
X156824762Y-115919048D01*
X156872381Y-115823810D01*
X156872381Y-115633333D01*
X156824762Y-115538095D01*
X156777143Y-115490476D01*
X156681905Y-115442857D01*
X155872381Y-115442857D01*
X155872381Y-115061905D02*
X155872381Y-114442857D01*
X156253333Y-114776191D01*
X156253333Y-114633333D01*
X156300952Y-114538095D01*
X156348571Y-114490476D01*
X156443810Y-114442857D01*
X156681905Y-114442857D01*
X156777143Y-114490476D01*
X156824762Y-114538095D01*
X156872381Y-114633333D01*
X156872381Y-114919048D01*
X156824762Y-115014286D01*
X156777143Y-115061905D01*
X155872381Y-113823810D02*
X155872381Y-113728571D01*
X155920000Y-113633333D01*
X155967619Y-113585714D01*
X156062857Y-113538095D01*
X156253333Y-113490476D01*
X156491429Y-113490476D01*
X156681905Y-113538095D01*
X156777143Y-113585714D01*
X156824762Y-113633333D01*
X156872381Y-113728571D01*
X156872381Y-113823810D01*
X156824762Y-113919048D01*
X156777143Y-113966667D01*
X156681905Y-114014286D01*
X156491429Y-114061905D01*
X156253333Y-114061905D01*
X156062857Y-114014286D01*
X155967619Y-113966667D01*
X155920000Y-113919048D01*
X155872381Y-113823810D01*
X155872381Y-112585714D02*
X155872381Y-113061905D01*
X156348571Y-113109524D01*
X156300952Y-113061905D01*
X156253333Y-112966667D01*
X156253333Y-112728571D01*
X156300952Y-112633333D01*
X156348571Y-112585714D01*
X156443810Y-112538095D01*
X156681905Y-112538095D01*
X156777143Y-112585714D01*
X156824762Y-112633333D01*
X156872381Y-112728571D01*
X156872381Y-112966667D01*
X156824762Y-113061905D01*
X156777143Y-113109524D01*
X161901523Y-111958381D02*
X161901523Y-110958381D01*
X162234857Y-111672667D01*
X162568190Y-110958381D01*
X162568190Y-111958381D01*
X163187237Y-111958381D02*
X163091999Y-111910762D01*
X163044380Y-111863143D01*
X162996761Y-111767905D01*
X162996761Y-111482190D01*
X163044380Y-111386952D01*
X163091999Y-111339333D01*
X163187237Y-111291714D01*
X163330095Y-111291714D01*
X163425333Y-111339333D01*
X163472952Y-111386952D01*
X163520571Y-111482190D01*
X163520571Y-111767905D01*
X163472952Y-111863143D01*
X163425333Y-111910762D01*
X163330095Y-111958381D01*
X163187237Y-111958381D01*
X163806285Y-111291714D02*
X164187237Y-111291714D01*
X163949142Y-110958381D02*
X163949142Y-111815524D01*
X163996761Y-111910762D01*
X164091999Y-111958381D01*
X164187237Y-111958381D01*
X164663428Y-111958381D02*
X164568190Y-111910762D01*
X164520571Y-111863143D01*
X164472952Y-111767905D01*
X164472952Y-111482190D01*
X164520571Y-111386952D01*
X164568190Y-111339333D01*
X164663428Y-111291714D01*
X164806286Y-111291714D01*
X164901524Y-111339333D01*
X164949143Y-111386952D01*
X164996762Y-111482190D01*
X164996762Y-111767905D01*
X164949143Y-111863143D01*
X164901524Y-111910762D01*
X164806286Y-111958381D01*
X164663428Y-111958381D01*
X165425333Y-111958381D02*
X165425333Y-111291714D01*
X165425333Y-111482190D02*
X165472952Y-111386952D01*
X165520571Y-111339333D01*
X165615809Y-111291714D01*
X165711048Y-111291714D01*
X167234858Y-110958381D02*
X167044381Y-110958381D01*
X166949143Y-111006000D01*
X166901524Y-111053619D01*
X166806286Y-111196476D01*
X166758667Y-111386952D01*
X166758667Y-111767905D01*
X166806286Y-111863143D01*
X166853905Y-111910762D01*
X166949143Y-111958381D01*
X167139620Y-111958381D01*
X167234858Y-111910762D01*
X167282477Y-111863143D01*
X167330096Y-111767905D01*
X167330096Y-111529810D01*
X167282477Y-111434571D01*
X167234858Y-111386952D01*
X167139620Y-111339333D01*
X166949143Y-111339333D01*
X166853905Y-111386952D01*
X166806286Y-111434571D01*
X166758667Y-111529810D01*
X131635714Y-93642381D02*
X131635714Y-94451905D01*
X131683333Y-94547143D01*
X131730952Y-94594762D01*
X131826190Y-94642381D01*
X132016667Y-94642381D01*
X132111905Y-94594762D01*
X132159524Y-94547143D01*
X132207143Y-94451905D01*
X132207143Y-93642381D01*
X132588095Y-93642381D02*
X133207143Y-93642381D01*
X132873809Y-94023333D01*
X133016667Y-94023333D01*
X133111905Y-94070952D01*
X133159524Y-94118571D01*
X133207143Y-94213810D01*
X133207143Y-94451905D01*
X133159524Y-94547143D01*
X133111905Y-94594762D01*
X133016667Y-94642381D01*
X132730952Y-94642381D01*
X132635714Y-94594762D01*
X132588095Y-94547143D01*
X133826190Y-93642381D02*
X133921429Y-93642381D01*
X134016667Y-93690000D01*
X134064286Y-93737619D01*
X134111905Y-93832857D01*
X134159524Y-94023333D01*
X134159524Y-94261429D01*
X134111905Y-94451905D01*
X134064286Y-94547143D01*
X134016667Y-94594762D01*
X133921429Y-94642381D01*
X133826190Y-94642381D01*
X133730952Y-94594762D01*
X133683333Y-94547143D01*
X133635714Y-94451905D01*
X133588095Y-94261429D01*
X133588095Y-94023333D01*
X133635714Y-93832857D01*
X133683333Y-93737619D01*
X133730952Y-93690000D01*
X133826190Y-93642381D01*
X135016667Y-93642381D02*
X134826190Y-93642381D01*
X134730952Y-93690000D01*
X134683333Y-93737619D01*
X134588095Y-93880476D01*
X134540476Y-94070952D01*
X134540476Y-94451905D01*
X134588095Y-94547143D01*
X134635714Y-94594762D01*
X134730952Y-94642381D01*
X134921429Y-94642381D01*
X135016667Y-94594762D01*
X135064286Y-94547143D01*
X135111905Y-94451905D01*
X135111905Y-94213810D01*
X135064286Y-94118571D01*
X135016667Y-94070952D01*
X134921429Y-94023333D01*
X134730952Y-94023333D01*
X134635714Y-94070952D01*
X134588095Y-94118571D01*
X134540476Y-94213810D01*
X131008381Y-104798477D02*
X130008381Y-104798477D01*
X130722667Y-104465143D01*
X130008381Y-104131810D01*
X131008381Y-104131810D01*
X131008381Y-103512763D02*
X130960762Y-103608001D01*
X130913143Y-103655620D01*
X130817905Y-103703239D01*
X130532190Y-103703239D01*
X130436952Y-103655620D01*
X130389333Y-103608001D01*
X130341714Y-103512763D01*
X130341714Y-103369905D01*
X130389333Y-103274667D01*
X130436952Y-103227048D01*
X130532190Y-103179429D01*
X130817905Y-103179429D01*
X130913143Y-103227048D01*
X130960762Y-103274667D01*
X131008381Y-103369905D01*
X131008381Y-103512763D01*
X130341714Y-102893715D02*
X130341714Y-102512763D01*
X130008381Y-102750858D02*
X130865524Y-102750858D01*
X130960762Y-102703239D01*
X131008381Y-102608001D01*
X131008381Y-102512763D01*
X131008381Y-102036572D02*
X130960762Y-102131810D01*
X130913143Y-102179429D01*
X130817905Y-102227048D01*
X130532190Y-102227048D01*
X130436952Y-102179429D01*
X130389333Y-102131810D01*
X130341714Y-102036572D01*
X130341714Y-101893714D01*
X130389333Y-101798476D01*
X130436952Y-101750857D01*
X130532190Y-101703238D01*
X130817905Y-101703238D01*
X130913143Y-101750857D01*
X130960762Y-101798476D01*
X131008381Y-101893714D01*
X131008381Y-102036572D01*
X131008381Y-101274667D02*
X130341714Y-101274667D01*
X130532190Y-101274667D02*
X130436952Y-101227048D01*
X130389333Y-101179429D01*
X130341714Y-101084191D01*
X130341714Y-100988952D01*
X130008381Y-99417523D02*
X130008381Y-99893714D01*
X130484571Y-99941333D01*
X130436952Y-99893714D01*
X130389333Y-99798476D01*
X130389333Y-99560380D01*
X130436952Y-99465142D01*
X130484571Y-99417523D01*
X130579810Y-99369904D01*
X130817905Y-99369904D01*
X130913143Y-99417523D01*
X130960762Y-99465142D01*
X131008381Y-99560380D01*
X131008381Y-99798476D01*
X130960762Y-99893714D01*
X130913143Y-99941333D01*
X159682381Y-45402286D02*
X160491905Y-45402286D01*
X160587143Y-45354667D01*
X160634762Y-45307048D01*
X160682381Y-45211810D01*
X160682381Y-45021333D01*
X160634762Y-44926095D01*
X160587143Y-44878476D01*
X160491905Y-44830857D01*
X159682381Y-44830857D01*
X159682381Y-44449905D02*
X159682381Y-43830857D01*
X160063333Y-44164191D01*
X160063333Y-44021333D01*
X160110952Y-43926095D01*
X160158571Y-43878476D01*
X160253810Y-43830857D01*
X160491905Y-43830857D01*
X160587143Y-43878476D01*
X160634762Y-43926095D01*
X160682381Y-44021333D01*
X160682381Y-44307048D01*
X160634762Y-44402286D01*
X160587143Y-44449905D01*
X159682381Y-43211810D02*
X159682381Y-43116571D01*
X159730000Y-43021333D01*
X159777619Y-42973714D01*
X159872857Y-42926095D01*
X160063333Y-42878476D01*
X160301429Y-42878476D01*
X160491905Y-42926095D01*
X160587143Y-42973714D01*
X160634762Y-43021333D01*
X160682381Y-43116571D01*
X160682381Y-43211810D01*
X160634762Y-43307048D01*
X160587143Y-43354667D01*
X160491905Y-43402286D01*
X160301429Y-43449905D01*
X160063333Y-43449905D01*
X159872857Y-43402286D01*
X159777619Y-43354667D01*
X159730000Y-43307048D01*
X159682381Y-43211810D01*
X159682381Y-42545143D02*
X159682381Y-41878476D01*
X160682381Y-42307048D01*
X165457523Y-46680381D02*
X165457523Y-45680381D01*
X165790857Y-46394667D01*
X166124190Y-45680381D01*
X166124190Y-46680381D01*
X166743237Y-46680381D02*
X166647999Y-46632762D01*
X166600380Y-46585143D01*
X166552761Y-46489905D01*
X166552761Y-46204190D01*
X166600380Y-46108952D01*
X166647999Y-46061333D01*
X166743237Y-46013714D01*
X166886095Y-46013714D01*
X166981333Y-46061333D01*
X167028952Y-46108952D01*
X167076571Y-46204190D01*
X167076571Y-46489905D01*
X167028952Y-46585143D01*
X166981333Y-46632762D01*
X166886095Y-46680381D01*
X166743237Y-46680381D01*
X167362285Y-46013714D02*
X167743237Y-46013714D01*
X167505142Y-45680381D02*
X167505142Y-46537524D01*
X167552761Y-46632762D01*
X167647999Y-46680381D01*
X167743237Y-46680381D01*
X168219428Y-46680381D02*
X168124190Y-46632762D01*
X168076571Y-46585143D01*
X168028952Y-46489905D01*
X168028952Y-46204190D01*
X168076571Y-46108952D01*
X168124190Y-46061333D01*
X168219428Y-46013714D01*
X168362286Y-46013714D01*
X168457524Y-46061333D01*
X168505143Y-46108952D01*
X168552762Y-46204190D01*
X168552762Y-46489905D01*
X168505143Y-46585143D01*
X168457524Y-46632762D01*
X168362286Y-46680381D01*
X168219428Y-46680381D01*
X168981333Y-46680381D02*
X168981333Y-46013714D01*
X168981333Y-46204190D02*
X169028952Y-46108952D01*
X169076571Y-46061333D01*
X169171809Y-46013714D01*
X169267048Y-46013714D01*
X170267048Y-45680381D02*
X170886096Y-45680381D01*
X170552762Y-46061333D01*
X170695620Y-46061333D01*
X170790858Y-46108952D01*
X170838477Y-46156571D01*
X170886096Y-46251810D01*
X170886096Y-46489905D01*
X170838477Y-46585143D01*
X170790858Y-46632762D01*
X170695620Y-46680381D01*
X170409905Y-46680381D01*
X170314667Y-46632762D01*
X170267048Y-46585143D01*
X118982381Y-89344286D02*
X119791905Y-89344286D01*
X119887143Y-89296667D01*
X119934762Y-89249048D01*
X119982381Y-89153810D01*
X119982381Y-88963333D01*
X119934762Y-88868095D01*
X119887143Y-88820476D01*
X119791905Y-88772857D01*
X118982381Y-88772857D01*
X119315714Y-87868095D02*
X119982381Y-87868095D01*
X118934762Y-88106191D02*
X119649048Y-88344286D01*
X119649048Y-87725238D01*
X118982381Y-87153810D02*
X118982381Y-87058571D01*
X119030000Y-86963333D01*
X119077619Y-86915714D01*
X119172857Y-86868095D01*
X119363333Y-86820476D01*
X119601429Y-86820476D01*
X119791905Y-86868095D01*
X119887143Y-86915714D01*
X119934762Y-86963333D01*
X119982381Y-87058571D01*
X119982381Y-87153810D01*
X119934762Y-87249048D01*
X119887143Y-87296667D01*
X119791905Y-87344286D01*
X119601429Y-87391905D01*
X119363333Y-87391905D01*
X119172857Y-87344286D01*
X119077619Y-87296667D01*
X119030000Y-87249048D01*
X118982381Y-87153810D01*
X119077619Y-86439524D02*
X119030000Y-86391905D01*
X118982381Y-86296667D01*
X118982381Y-86058571D01*
X119030000Y-85963333D01*
X119077619Y-85915714D01*
X119172857Y-85868095D01*
X119268095Y-85868095D01*
X119410952Y-85915714D01*
X119982381Y-86487143D01*
X119982381Y-85868095D01*
X142447143Y-90225238D02*
X142494762Y-90272857D01*
X142542381Y-90415714D01*
X142542381Y-90510952D01*
X142494762Y-90653810D01*
X142399524Y-90749048D01*
X142304286Y-90796667D01*
X142113810Y-90844286D01*
X141970952Y-90844286D01*
X141780476Y-90796667D01*
X141685238Y-90749048D01*
X141590000Y-90653810D01*
X141542381Y-90510952D01*
X141542381Y-90415714D01*
X141590000Y-90272857D01*
X141637619Y-90225238D01*
X142542381Y-89796667D02*
X141542381Y-89796667D01*
X141542381Y-89558572D01*
X141590000Y-89415714D01*
X141685238Y-89320476D01*
X141780476Y-89272857D01*
X141970952Y-89225238D01*
X142113810Y-89225238D01*
X142304286Y-89272857D01*
X142399524Y-89320476D01*
X142494762Y-89415714D01*
X142542381Y-89558572D01*
X142542381Y-89796667D01*
X141875714Y-88368095D02*
X142542381Y-88368095D01*
X141494762Y-88606191D02*
X142209048Y-88844286D01*
X142209048Y-88225238D01*
X141542381Y-87653810D02*
X141542381Y-87558571D01*
X141590000Y-87463333D01*
X141637619Y-87415714D01*
X141732857Y-87368095D01*
X141923333Y-87320476D01*
X142161429Y-87320476D01*
X142351905Y-87368095D01*
X142447143Y-87415714D01*
X142494762Y-87463333D01*
X142542381Y-87558571D01*
X142542381Y-87653810D01*
X142494762Y-87749048D01*
X142447143Y-87796667D01*
X142351905Y-87844286D01*
X142161429Y-87891905D01*
X141923333Y-87891905D01*
X141732857Y-87844286D01*
X141637619Y-87796667D01*
X141590000Y-87749048D01*
X141542381Y-87653810D01*
X141542381Y-86415714D02*
X141542381Y-86891905D01*
X142018571Y-86939524D01*
X141970952Y-86891905D01*
X141923333Y-86796667D01*
X141923333Y-86558571D01*
X141970952Y-86463333D01*
X142018571Y-86415714D01*
X142113810Y-86368095D01*
X142351905Y-86368095D01*
X142447143Y-86415714D01*
X142494762Y-86463333D01*
X142542381Y-86558571D01*
X142542381Y-86796667D01*
X142494762Y-86891905D01*
X142447143Y-86939524D01*
X142542381Y-85415714D02*
X142542381Y-85987143D01*
X142542381Y-85701429D02*
X141542381Y-85701429D01*
X141685238Y-85796667D01*
X141780476Y-85891905D01*
X141828095Y-85987143D01*
X142018571Y-84653809D02*
X142066190Y-84510952D01*
X142113810Y-84463333D01*
X142209048Y-84415714D01*
X142351905Y-84415714D01*
X142447143Y-84463333D01*
X142494762Y-84510952D01*
X142542381Y-84606190D01*
X142542381Y-84987143D01*
X141542381Y-84987143D01*
X141542381Y-84653809D01*
X141590000Y-84558571D01*
X141637619Y-84510952D01*
X141732857Y-84463333D01*
X141828095Y-84463333D01*
X141923333Y-84510952D01*
X141970952Y-84558571D01*
X142018571Y-84653809D01*
X142018571Y-84987143D01*
X171534524Y-82002381D02*
X171534524Y-81002381D01*
X171915477Y-81002381D01*
X172010715Y-81050000D01*
X172058334Y-81097619D01*
X172105953Y-81192857D01*
X172105953Y-81335714D01*
X172058334Y-81430952D01*
X172010715Y-81478571D01*
X171915477Y-81526190D01*
X171534524Y-81526190D01*
X173010715Y-81002381D02*
X172534524Y-81002381D01*
X172486905Y-81478571D01*
X172534524Y-81430952D01*
X172629762Y-81383333D01*
X172867858Y-81383333D01*
X172963096Y-81430952D01*
X173010715Y-81478571D01*
X173058334Y-81573810D01*
X173058334Y-81811905D01*
X173010715Y-81907143D01*
X172963096Y-81954762D01*
X172867858Y-82002381D01*
X172629762Y-82002381D01*
X172534524Y-81954762D01*
X172486905Y-81907143D01*
X173677381Y-81002381D02*
X173772620Y-81002381D01*
X173867858Y-81050000D01*
X173915477Y-81097619D01*
X173963096Y-81192857D01*
X174010715Y-81383333D01*
X174010715Y-81621429D01*
X173963096Y-81811905D01*
X173915477Y-81907143D01*
X173867858Y-81954762D01*
X173772620Y-82002381D01*
X173677381Y-82002381D01*
X173582143Y-81954762D01*
X173534524Y-81907143D01*
X173486905Y-81811905D01*
X173439286Y-81621429D01*
X173439286Y-81383333D01*
X173486905Y-81192857D01*
X173534524Y-81097619D01*
X173582143Y-81050000D01*
X173677381Y-81002381D01*
X174963096Y-82002381D02*
X174391667Y-82002381D01*
X174677381Y-82002381D02*
X174677381Y-81002381D01*
X174582143Y-81145238D01*
X174486905Y-81240476D01*
X174391667Y-81288095D01*
X167224999Y-106814762D02*
X167367856Y-106862381D01*
X167605952Y-106862381D01*
X167701190Y-106814762D01*
X167748809Y-106767143D01*
X167796428Y-106671905D01*
X167796428Y-106576667D01*
X167748809Y-106481429D01*
X167701190Y-106433810D01*
X167605952Y-106386190D01*
X167415475Y-106338571D01*
X167320237Y-106290952D01*
X167272618Y-106243333D01*
X167224999Y-106148095D01*
X167224999Y-106052857D01*
X167272618Y-105957619D01*
X167320237Y-105910000D01*
X167415475Y-105862381D01*
X167653571Y-105862381D01*
X167796428Y-105910000D01*
X168605952Y-106814762D02*
X168510714Y-106862381D01*
X168320237Y-106862381D01*
X168224999Y-106814762D01*
X168177380Y-106719524D01*
X168177380Y-106338571D01*
X168224999Y-106243333D01*
X168320237Y-106195714D01*
X168510714Y-106195714D01*
X168605952Y-106243333D01*
X168653571Y-106338571D01*
X168653571Y-106433810D01*
X168177380Y-106529048D01*
X169082142Y-106195714D02*
X169082142Y-106862381D01*
X169082142Y-106290952D02*
X169129761Y-106243333D01*
X169224999Y-106195714D01*
X169367857Y-106195714D01*
X169463095Y-106243333D01*
X169510714Y-106338571D01*
X169510714Y-106862381D01*
X169939285Y-106814762D02*
X170034523Y-106862381D01*
X170224999Y-106862381D01*
X170320238Y-106814762D01*
X170367857Y-106719524D01*
X170367857Y-106671905D01*
X170320238Y-106576667D01*
X170224999Y-106529048D01*
X170082142Y-106529048D01*
X169986904Y-106481429D01*
X169939285Y-106386190D01*
X169939285Y-106338571D01*
X169986904Y-106243333D01*
X170082142Y-106195714D01*
X170224999Y-106195714D01*
X170320238Y-106243333D01*
X170939285Y-106862381D02*
X170844047Y-106814762D01*
X170796428Y-106767143D01*
X170748809Y-106671905D01*
X170748809Y-106386190D01*
X170796428Y-106290952D01*
X170844047Y-106243333D01*
X170939285Y-106195714D01*
X171082143Y-106195714D01*
X171177381Y-106243333D01*
X171225000Y-106290952D01*
X171272619Y-106386190D01*
X171272619Y-106671905D01*
X171225000Y-106767143D01*
X171177381Y-106814762D01*
X171082143Y-106862381D01*
X170939285Y-106862381D01*
X171701190Y-106862381D02*
X171701190Y-106195714D01*
X171701190Y-106386190D02*
X171748809Y-106290952D01*
X171796428Y-106243333D01*
X171891666Y-106195714D01*
X171986905Y-106195714D01*
X173415477Y-106338571D02*
X173558334Y-106386190D01*
X173605953Y-106433810D01*
X173653572Y-106529048D01*
X173653572Y-106671905D01*
X173605953Y-106767143D01*
X173558334Y-106814762D01*
X173463096Y-106862381D01*
X173082143Y-106862381D01*
X173082143Y-105862381D01*
X173415477Y-105862381D01*
X173510715Y-105910000D01*
X173558334Y-105957619D01*
X173605953Y-106052857D01*
X173605953Y-106148095D01*
X173558334Y-106243333D01*
X173510715Y-106290952D01*
X173415477Y-106338571D01*
X173082143Y-106338571D01*
X174082143Y-106862381D02*
X174082143Y-106195714D01*
X174082143Y-106386190D02*
X174129762Y-106290952D01*
X174177381Y-106243333D01*
X174272619Y-106195714D01*
X174367858Y-106195714D01*
X175082144Y-106814762D02*
X174986906Y-106862381D01*
X174796429Y-106862381D01*
X174701191Y-106814762D01*
X174653572Y-106719524D01*
X174653572Y-106338571D01*
X174701191Y-106243333D01*
X174796429Y-106195714D01*
X174986906Y-106195714D01*
X175082144Y-106243333D01*
X175129763Y-106338571D01*
X175129763Y-106433810D01*
X174653572Y-106529048D01*
X175986906Y-106862381D02*
X175986906Y-106338571D01*
X175939287Y-106243333D01*
X175844049Y-106195714D01*
X175653572Y-106195714D01*
X175558334Y-106243333D01*
X175986906Y-106814762D02*
X175891668Y-106862381D01*
X175653572Y-106862381D01*
X175558334Y-106814762D01*
X175510715Y-106719524D01*
X175510715Y-106624286D01*
X175558334Y-106529048D01*
X175653572Y-106481429D01*
X175891668Y-106481429D01*
X175986906Y-106433810D01*
X176463096Y-106862381D02*
X176463096Y-105862381D01*
X176558334Y-106481429D02*
X176844049Y-106862381D01*
X176844049Y-106195714D02*
X176463096Y-106576667D01*
X177415477Y-106862381D02*
X177320239Y-106814762D01*
X177272620Y-106767143D01*
X177225001Y-106671905D01*
X177225001Y-106386190D01*
X177272620Y-106290952D01*
X177320239Y-106243333D01*
X177415477Y-106195714D01*
X177558335Y-106195714D01*
X177653573Y-106243333D01*
X177701192Y-106290952D01*
X177748811Y-106386190D01*
X177748811Y-106671905D01*
X177701192Y-106767143D01*
X177653573Y-106814762D01*
X177558335Y-106862381D01*
X177415477Y-106862381D01*
X178605954Y-106195714D02*
X178605954Y-106862381D01*
X178177382Y-106195714D02*
X178177382Y-106719524D01*
X178225001Y-106814762D01*
X178320239Y-106862381D01*
X178463097Y-106862381D01*
X178558335Y-106814762D01*
X178605954Y-106767143D01*
X178939287Y-106195714D02*
X179320239Y-106195714D01*
X179082144Y-105862381D02*
X179082144Y-106719524D01*
X179129763Y-106814762D01*
X179225001Y-106862381D01*
X179320239Y-106862381D01*
M02*
